<svg width="1440" height="1300" viewBox="0 0 1440 1300" fill="none" xmlns="http://www.w3.org/2000/svg">
<g clip-path="url(#clip0_225_285)">
<rect width="1440" height="1300" fill="#8CBCE7"/>
<ellipse cx="720" cy="1044" rx="720" ry="256" fill="#FDF9E8"/>
<rect width="1440" height="256" transform="translate(0 1044)" fill="#FDF9E8"/>
<path d="M1438.5 1130.5C1438.5 983 1216.5 820.5 718.497 820.5C331.5 820.5 0 913 0 1142.5" stroke="#8CBCE7" stroke-width="5" stroke-dasharray="10 10"/>
<path fill-rule="evenodd" clip-rule="evenodd" d="M74.8451 828.68L75.4393 829.874L69.8851 837.65C69.53 838.147 69.3629 838.755 69.4136 839.364C69.4642 839.973 69.7292 840.545 70.1615 840.977L74.0365 844.852C74.4199 845.235 74.9141 845.488 75.4492 845.575C75.9842 845.661 76.5329 845.578 77.0177 845.335L80.2572 843.718L82.0448 846.1L76.6973 863.217L76.2582 862.881C75.8697 862.579 75.4988 862.255 75.1473 861.91C74.6722 861.428 74.0269 861.151 73.3501 861.14C72.6734 861.129 72.0192 861.384 71.5284 861.85C71.0376 862.316 70.7494 862.956 70.7256 863.633C70.7019 864.309 70.9446 864.968 71.4015 865.467L73.0445 866.927C74.0701 867.74 75.5762 868.8 77.5602 869.851C81.5463 871.959 87.444 874.026 95.2379 874.026C103.032 874.026 108.932 871.959 112.916 869.851C114.507 869.016 116.018 868.037 117.431 866.927C117.829 866.609 119.123 865.423 119.074 865.467C119.511 865.007 119.764 864.403 119.784 863.769C119.804 863.135 119.59 862.516 119.183 862.03C118.776 861.543 118.205 861.223 117.577 861.131C116.95 861.039 116.31 861.181 115.781 861.53L113.12 848.223C114.471 849.487 115.93 851.44 117.47 854.514C117.615 854.828 117.822 855.11 118.078 855.342C118.334 855.575 118.634 855.754 118.961 855.868C119.287 855.983 119.633 856.03 119.979 856.009C120.324 855.987 120.661 855.896 120.971 855.741C121.28 855.586 121.555 855.371 121.78 855.108C122.005 854.845 122.174 854.539 122.278 854.209C122.383 853.88 122.42 853.532 122.387 853.188C122.355 852.843 122.253 852.509 122.089 852.204C119.361 846.746 116.442 843.635 113.184 842.008C110.454 840.641 107.741 840.468 105.442 840.442H95.9044C95.6461 839.66 95.3539 838.89 95.0287 838.133C93.9721 835.668 92.1948 832.455 89.3143 829.574C86.3203 826.58 83.2358 825.382 80.8074 824.976C79.8338 824.814 78.8448 824.765 77.8598 824.829C77.5679 824.849 76.6973 824.976 76.5268 825.02C76.1519 825.114 75.8028 825.291 75.5054 825.538C75.208 825.785 74.9698 826.096 74.8084 826.447C74.647 826.798 74.5665 827.181 74.5729 827.568C74.5792 827.954 74.6722 828.335 74.8451 828.68ZM102.538 868.123L99.9034 861.109H93.1506L90.3632 868.539C91.8744 868.743 93.4968 868.859 95.2353 868.859C97.9453 868.859 100.376 868.575 102.533 868.123H102.538Z" fill="white" fill-opacity="0.5"/>
<path fill-rule="evenodd" clip-rule="evenodd" d="M1348.51 805.776C1327.53 805.785 1310.53 822.795 1310.53 843.776C1310.53 864.744 1327.51 881.747 1348.47 881.776H1348.58C1358.57 881.775 1368.14 877.833 1375.23 870.809C1375.35 870.708 1375.46 870.598 1375.56 870.481C1382.62 863.353 1386.57 853.713 1386.53 843.679C1386.48 822.745 1369.5 805.79 1348.56 805.776M1379.93 846.683C1379.36 852.909 1376.95 858.824 1372.99 863.668L1353.1 843.777L1359.91 836.97C1365.64 841.95 1372.62 845.572 1379.93 846.683M1364.5 832.384C1369.1 836.297 1374.45 839.057 1379.85 840.105C1379.16 834.155 1376.78 828.527 1372.99 823.886L1364.5 832.384ZM1355.34 832.395L1348.53 839.203L1328.64 819.31C1333.48 815.358 1339.4 812.943 1345.62 812.376C1346.73 819.68 1350.36 826.671 1355.34 832.395M1352.2 812.456C1353.25 817.855 1356.01 823.21 1359.92 827.809L1368.42 819.31C1363.78 815.523 1358.15 813.145 1352.2 812.456ZM1324.06 823.881C1320.11 828.725 1317.7 834.64 1317.13 840.865C1324.44 841.974 1331.42 845.596 1337.15 850.578L1343.96 843.776L1324.06 823.881ZM1348.53 848.352L1341.73 855.156C1346.71 860.88 1350.33 867.871 1351.44 875.175C1357.66 874.608 1363.58 872.195 1368.42 868.244L1348.53 848.352ZM1328.64 868.244L1337.14 859.742C1341.05 864.341 1343.82 869.698 1344.86 875.097C1338.91 874.409 1333.28 872.031 1328.64 868.244ZM1332.57 855.168L1324.06 863.671C1320.28 859.029 1317.9 853.398 1317.21 847.446C1322.61 848.492 1327.97 851.253 1332.57 855.168" fill="white" fill-opacity="0.5"/>
<circle cx="1258.53" cy="831.776" r="12" fill="#FAE24C"/>
<path fill-rule="evenodd" clip-rule="evenodd" d="M356.044 491.776C371.225 491.783 383.53 504.092 383.53 519.276C383.53 534.45 371.239 546.755 356.069 546.776H355.99C348.767 546.775 341.836 543.923 336.705 538.839C336.62 538.766 336.541 538.686 336.467 538.602C331.356 533.443 328.502 526.467 328.53 519.205C328.568 504.056 340.856 491.786 356.011 491.776M333.308 521.38C333.718 525.885 335.465 530.166 338.324 533.672L352.72 519.277L347.794 514.35C343.65 517.954 338.592 520.576 333.307 521.38M344.473 511.031C341.145 513.863 337.27 515.861 333.363 516.619C333.862 512.313 335.584 508.241 338.324 504.882L344.473 511.031ZM351.102 511.04L356.029 515.966L370.427 501.57C366.921 498.71 362.64 496.963 358.134 496.552C357.33 501.838 354.709 506.897 351.103 511.04M353.373 496.61C352.615 500.517 350.617 504.393 347.784 507.721L341.634 501.57C344.993 498.829 349.067 497.109 353.373 496.61ZM373.736 504.879C376.596 508.384 378.343 512.664 378.753 517.169C373.466 517.972 368.408 520.593 364.263 524.199L359.339 519.276L373.736 504.879ZM356.03 522.587L360.953 527.512C357.347 531.654 354.727 536.713 353.923 541.999C349.419 541.588 345.14 539.842 341.635 536.983L356.03 522.587ZM370.424 536.983L364.271 530.83C361.44 534.158 359.441 538.035 358.683 541.943C362.99 541.445 367.064 539.724 370.424 536.983ZM367.581 527.52L373.735 533.674C376.476 530.314 378.198 526.24 378.697 521.932C374.788 522.689 370.911 524.687 367.582 527.52" fill="white" fill-opacity="0.5"/>
<path fill-rule="evenodd" clip-rule="evenodd" d="M86.5492 653.776C107.527 653.785 124.53 670.795 124.53 691.776C124.53 712.744 107.546 729.747 86.5847 729.776H86.4748C76.4939 729.775 66.917 725.833 59.8264 718.809C59.7092 718.708 59.5995 718.598 59.4981 718.481C52.4356 711.353 48.4908 701.713 48.5299 691.679C48.5833 670.745 65.5619 653.79 86.5039 653.776M55.1322 694.683C55.6988 700.909 58.1128 706.824 62.0643 711.668L81.9568 691.777L75.1492 684.97C69.4234 689.95 62.4346 693.572 55.1306 694.683M70.5601 680.384C65.9613 684.297 60.6074 687.057 55.2082 688.105C55.8983 682.155 58.2774 676.527 62.0643 671.886L70.5601 680.384ZM79.7205 680.395L86.5281 687.203L106.424 667.31C101.579 663.358 95.6639 660.943 89.4372 660.376C88.3263 667.68 84.7042 674.671 79.7221 680.395M82.8591 660.456C81.8113 665.855 79.0511 671.21 75.1363 675.809L66.6372 667.31C71.2789 663.523 76.9081 661.145 82.8591 660.456ZM110.997 671.881C114.948 676.725 117.362 682.64 117.929 688.865C110.623 689.974 103.635 693.596 97.9071 698.578L91.1027 691.776L110.997 671.881ZM86.5298 696.352L93.3325 703.156C88.3505 708.88 84.73 715.871 83.6191 723.175C77.395 722.608 71.4822 720.195 66.6389 716.244L86.5298 696.352ZM106.421 716.244L97.9184 707.742C94.0052 712.341 91.2434 717.698 90.1955 723.097C96.1474 722.409 101.778 720.031 106.421 716.244ZM102.491 703.168L110.995 711.671C114.783 707.029 117.162 701.398 117.851 695.446C112.451 696.492 107.093 699.253 102.493 703.168" fill="white" fill-opacity="0.5"/>
<path d="M81.0709 455.882L77.4709 453.227C77.2808 453.089 77.12 452.915 76.9977 452.714C76.8754 452.514 76.7942 452.291 76.7586 452.058C76.723 451.826 76.7339 451.589 76.7905 451.361C76.8471 451.133 76.9483 450.919 77.0884 450.73C77.6734 449.92 78.7984 449.762 79.5859 450.347L83.1859 453.002C83.9959 453.587 84.1534 454.712 83.5684 455.5C82.9834 456.31 81.8584 456.467 81.0709 455.882ZM69.9784 458.402L67.3234 462.002C66.7384 462.767 66.8959 463.892 67.6834 464.477C68.4934 465.062 69.5959 464.905 70.1809 464.117L72.8359 460.517C73.4209 459.73 73.2634 458.605 72.4534 458.02C72.2665 457.88 72.0537 457.78 71.8275 457.723C71.6012 457.667 71.366 457.656 71.1356 457.692C70.9052 457.728 70.6842 457.809 70.4855 457.931C70.2868 458.053 70.1144 458.213 69.9784 458.402ZM95.3809 467.087L93.3109 463.127C93.0884 462.715 92.7128 462.407 92.2651 462.269C91.8174 462.131 91.3334 462.174 90.9174 462.389C90.5013 462.605 90.1865 462.975 90.0408 463.42C89.8951 463.866 89.9301 464.35 90.1384 464.77L92.2084 468.73C92.4309 469.142 92.8064 469.451 93.2541 469.589C93.7018 469.727 94.1858 469.683 94.6019 469.468C95.0179 469.253 95.3327 468.882 95.4784 468.437C95.6241 467.992 95.5891 467.507 95.3809 467.087ZM72.4759 476.355L70.6534 472.283C70.4787 471.853 70.4775 471.373 70.6501 470.943C70.8227 470.512 71.1555 470.166 71.5785 469.976C72.0015 469.787 72.4816 469.769 72.9177 469.926C73.3537 470.084 73.7115 470.404 73.9159 470.82L75.7384 474.893C75.9131 475.322 75.9142 475.802 75.7416 476.233C75.5691 476.663 75.2362 477.009 74.8132 477.199C74.3902 477.389 73.9101 477.407 73.4741 477.249C73.0381 477.092 72.6802 476.771 72.4759 476.355ZM61.3609 473.905L57.4009 475.975C56.9886 476.197 56.6802 476.573 56.5422 477.021C56.4041 477.468 56.4475 477.952 56.6629 478.368C56.8783 478.784 57.2485 479.099 57.6937 479.245C58.139 479.391 58.6237 479.356 59.0434 479.147L63.0034 477.077C63.8809 476.627 64.2184 475.547 63.7684 474.67C63.5479 474.252 63.1718 473.937 62.7213 473.794C62.2709 473.651 61.7822 473.691 61.3609 473.905ZM103.076 480.79L99.4759 478.135C99.2872 477.995 99.0726 477.894 98.8446 477.837C98.6166 477.78 98.3796 477.77 98.1473 477.805C97.9151 477.841 97.6922 477.922 97.4915 478.044C97.2909 478.167 97.1165 478.327 96.9784 478.517C96.3934 479.305 96.5509 480.43 97.3609 481.015L100.961 483.67C101.748 484.255 102.873 484.097 103.458 483.287C104.021 482.5 103.863 481.375 103.076 480.79ZM89.0359 476.47L84.5809 476.785C83.5909 476.852 82.7359 476.11 82.6684 475.142C82.5784 474.152 83.3209 473.297 84.3109 473.23L88.7659 472.915C89.7559 472.825 90.6109 473.567 90.6784 474.557C90.7684 475.547 90.0259 476.402 89.0359 476.47ZM102.243 491.185L98.9584 494.222C98.6123 494.545 98.1523 494.716 97.6797 494.699C97.2071 494.682 96.7606 494.479 96.4384 494.132C96.1161 493.786 95.9446 493.326 95.9615 492.854C95.9783 492.381 96.1823 491.935 96.5284 491.612L99.8134 488.575C100.159 488.253 100.619 488.081 101.092 488.098C101.565 488.115 102.011 488.319 102.333 488.665C102.656 489.011 102.827 489.471 102.81 489.944C102.793 490.416 102.589 490.863 102.243 491.185ZM60.3709 486.257L62.6209 490.127C62.8491 490.54 62.9063 491.026 62.7801 491.48C62.6539 491.935 62.3543 492.322 61.9459 492.557C61.0909 493.052 60.0109 492.76 59.5159 491.905L57.2884 488.035C57.1714 487.833 57.0956 487.609 57.0651 487.377C57.0346 487.146 57.0501 486.91 57.1107 486.685C57.1713 486.459 57.2758 486.247 57.4183 486.062C57.5607 485.877 57.7383 485.721 57.9409 485.605C58.7959 485.11 59.8759 485.402 60.3709 486.257ZM79.2484 462.655L83.3434 464.41C84.2434 464.815 84.6709 465.85 84.2884 466.75C84.1975 466.966 84.0647 467.162 83.8977 467.327C83.7307 467.492 83.5327 467.622 83.3152 467.71C83.0976 467.798 82.8649 467.842 82.6303 467.839C82.3957 467.836 82.1639 467.787 81.9484 467.695L77.8534 465.94C77.6371 465.849 77.4409 465.716 77.2762 465.549C77.1114 465.382 76.9814 465.184 76.8935 464.967C76.8057 464.749 76.7618 464.516 76.7643 464.282C76.7669 464.047 76.8158 463.815 76.9084 463.6C76.9992 463.384 77.132 463.187 77.299 463.023C77.466 462.858 77.664 462.728 77.8816 462.64C78.0991 462.552 78.3319 462.508 78.5664 462.511C78.801 462.513 79.0328 462.562 79.2484 462.655Z" fill="white" fill-opacity="0.5"/>
<path d="M92.4356 504.026H93.5404C96.6095 504.024 99.6241 503.215 102.281 501.678C104.938 500.142 107.143 497.933 108.676 495.274C110.208 492.615 111.013 489.599 111.01 486.53C111.007 483.461 110.196 480.447 108.658 477.791L93.3716 451.286C91.9713 448.851 89.9538 446.829 87.5226 445.423C85.0915 444.016 82.3326 443.276 79.524 443.276C76.7154 443.276 73.9565 444.016 71.5253 445.423C69.0942 446.829 67.0767 448.851 65.6764 451.286L50.3899 477.795C48.8561 480.452 48.0481 483.465 48.047 486.533C48.046 489.6 48.8519 492.614 50.3838 495.272C51.9158 497.929 54.1198 500.137 56.7748 501.674C59.4298 503.21 62.4423 504.021 65.5099 504.026H66.6236C67.8611 505.407 69.6566 506.276 71.6546 506.276H87.4046C88.3543 506.276 89.2933 506.075 90.1602 505.688C91.0271 505.3 91.8025 504.733 92.4356 504.026ZM94.1546 499.51V481.526C94.1546 480.929 93.9176 480.357 93.4956 479.935C93.0737 479.513 92.5014 479.276 91.9046 479.276H67.1546C66.5579 479.276 65.9856 479.513 65.5636 479.935C65.1417 480.357 64.9046 480.929 64.9046 481.526V499.51C62.6803 499.403 60.5208 498.726 58.6338 497.543C56.7468 496.361 55.1957 494.713 54.1296 492.758C53.0634 490.803 52.5181 488.606 52.5461 486.379C52.574 484.153 53.1743 481.971 54.2891 480.043L69.5756 453.531C70.5812 451.781 72.0305 450.327 73.7773 449.316C75.5242 448.305 77.5068 447.773 79.5251 447.773C81.5434 447.773 83.526 448.305 85.2729 449.316C87.0198 450.327 88.4691 451.781 89.4746 453.531L104.761 480.043C105.876 481.97 106.476 484.151 106.504 486.377C106.533 488.603 105.988 490.799 104.923 492.754C103.858 494.709 102.308 496.357 100.422 497.54C98.5365 498.723 96.3782 499.402 94.1546 499.51Z" fill="white" fill-opacity="0.5"/>
<g clip-path="url(#clip1_225_285)">
<path d="M376.968 404.861C376.674 404.384 376.245 404.005 375.735 403.772C375.226 403.539 374.659 403.462 374.105 403.552C373.552 403.641 373.038 403.892 372.627 404.274C372.217 404.655 371.929 405.15 371.8 405.695C371.671 406.241 371.706 406.812 371.901 407.337C372.097 407.862 372.444 408.318 372.898 408.646C373.352 408.974 373.894 409.16 374.454 409.18C375.014 409.201 375.567 409.054 376.044 408.76C376.684 408.366 377.141 407.733 377.314 407.002C377.487 406.271 377.363 405.501 376.968 404.861ZM387.772 398.197C387.477 397.72 387.048 397.341 386.539 397.108C386.029 396.875 385.462 396.798 384.909 396.888C384.355 396.977 383.841 397.228 383.431 397.61C383.02 397.991 382.732 398.486 382.603 399.031C382.474 399.577 382.509 400.148 382.705 400.673C382.9 401.198 383.247 401.654 383.701 401.982C384.156 402.31 384.697 402.496 385.257 402.516C385.817 402.536 386.371 402.39 386.848 402.096C387.487 401.702 387.944 401.069 388.117 400.338C388.29 399.607 388.166 398.837 387.772 398.197ZM388.14 409.588C387.746 408.949 387.113 408.492 386.382 408.319C385.651 408.145 384.881 408.27 384.241 408.664L381.83 410.152C381.19 410.546 380.733 411.179 380.56 411.91C380.387 412.641 380.511 413.411 380.906 414.051C381.3 414.69 381.933 415.147 382.664 415.32C383.395 415.493 384.165 415.369 384.805 414.975L387.216 413.487C387.856 413.093 388.312 412.46 388.486 411.729C388.659 410.998 388.535 410.228 388.14 409.588ZM404.232 427.958C404.198 426.831 403.939 425.722 403.472 424.696C403.005 423.67 402.338 422.747 401.51 421.981C400.659 421.177 399.646 420.565 398.539 420.185L397.464 382.231C397.45 381.734 397.305 381.249 397.043 380.826C396.782 380.403 396.414 380.056 395.977 379.82C395.538 379.576 395.042 379.454 394.54 379.465C394.038 379.477 393.548 379.621 393.12 379.884L361.361 399.475C360.003 398.348 358.323 397.681 356.562 397.571C354.8 397.46 353.05 397.912 351.562 398.861C349.676 400.024 348.318 401.877 347.778 404.026C347.238 406.174 347.559 408.449 348.671 410.365L349.534 411.764C354.427 419.654 361.32 426.109 369.514 430.474C377.708 434.838 386.912 436.957 396.189 436.615C398.389 436.501 400.459 435.537 401.962 433.926C403.465 432.316 404.284 430.185 404.247 427.982L404.232 427.958ZM391.923 387.28L392.865 419.623C387.285 419.413 381.833 417.893 376.948 415.187C372.064 412.481 367.884 408.664 364.746 404.045L391.923 387.28ZM395.964 430.961C387.449 431.272 379.009 429.261 371.548 425.143C364.088 421.025 357.888 414.955 353.613 407.583C353.218 406.944 353.094 406.174 353.267 405.442C353.441 404.711 353.897 404.079 354.537 403.684C354.859 403.483 355.218 403.349 355.593 403.289C355.968 403.229 356.351 403.245 356.719 403.337C357.436 403.52 358.052 403.977 358.436 404.608L359.195 405.838C363.017 412.028 368.414 417.093 374.835 420.513C381.256 423.934 388.47 425.589 395.739 425.307C396.094 425.291 396.449 425.348 396.78 425.476C397.111 425.604 397.412 425.8 397.663 426.052C398.205 426.557 398.528 427.254 398.562 427.994C398.606 428.731 398.36 429.456 397.878 430.014C397.396 430.573 396.714 430.921 395.979 430.985L395.964 430.961Z" fill="white" fill-opacity="0.5"/>
</g>
<g clip-path="url(#clip2_225_285)">
<path d="M201.57 744.327L199.569 745.815C195.203 740.95 189.175 737.891 182.67 737.24C176.165 736.588 169.65 738.39 164.405 742.293C159.16 746.196 155.562 751.918 154.317 758.336C153.073 764.754 154.271 771.406 157.677 776.987L155.676 778.476C155.169 778.853 154.832 779.416 154.741 780.042C154.649 780.667 154.809 781.304 155.187 781.811C158.579 786.352 163.148 789.88 168.4 792.012C173.652 794.144 179.387 794.8 184.985 793.909L185.647 794.798C186.402 795.812 187.529 796.485 188.779 796.669C190.03 796.852 191.303 796.531 192.317 795.776L207.615 784.393C208.63 783.639 209.303 782.512 209.486 781.261C209.67 780.01 209.349 778.737 208.594 777.723L207.932 776.834C210.395 771.728 211.414 766.046 210.88 760.403C210.347 754.76 208.281 749.37 204.905 744.816C204.528 744.309 203.965 743.972 203.339 743.881C202.714 743.789 202.077 743.949 201.57 744.327ZM195.723 748.677L183.432 757.823C183.163 752.619 184.8 747.496 188.038 743.414C190.957 744.58 193.582 746.377 195.723 748.677ZM180.998 741.894C181.703 741.926 182.404 741.992 183.102 742.092C179.344 747.67 177.876 754.48 179.002 761.112L171.951 766.359C170.653 762.119 170.696 757.582 172.073 753.368C173.451 749.154 176.096 745.468 179.647 742.813C180.085 742.488 180.538 742.184 180.998 741.894ZM167.24 746.103C168.776 744.963 170.457 744.033 172.239 743.338C169.3 746.913 167.356 751.2 166.603 755.766C165.849 760.332 166.312 765.016 167.946 769.346L161.523 774.125C158.868 769.567 157.984 764.192 159.038 759.024C160.093 753.856 163.012 749.257 167.24 746.103ZM203.038 775.916C202.818 776.317 202.719 776.773 202.752 777.23C202.784 777.686 202.948 778.123 203.222 778.489L204.77 780.569L189.472 791.952L187.924 789.872C187.652 789.504 187.28 789.222 186.853 789.06C186.425 788.897 185.959 788.861 185.512 788.956C180.998 789.911 176.311 789.662 171.924 788.233C167.536 786.804 163.602 784.247 160.515 780.817L202.415 749.64C204.814 753.58 206.134 758.082 206.243 762.694C206.353 767.306 205.247 771.866 203.038 775.916Z" fill="white" fill-opacity="0.5"/>
</g>
<path d="M224.78 380.776C224.783 376.475 223.179 372.328 220.283 369.148C217.388 365.969 213.408 363.985 209.126 363.587C204.844 363.189 200.567 364.405 197.135 366.996C193.703 369.588 191.362 373.368 190.573 377.596C188.937 382.886 187.459 385.769 186.648 387.109L179.412 394.346C179.154 394.604 178.966 394.923 178.865 395.273C178.765 395.624 178.754 395.994 178.836 396.35C178.917 396.706 179.087 397.035 179.33 397.307C179.573 397.579 179.881 397.784 180.226 397.905L174.358 403.776C172.845 403.798 171.378 404.297 170.166 405.202C168.953 406.107 168.057 407.371 167.605 408.815C167.153 410.258 167.168 411.808 167.648 413.243C168.128 414.677 169.048 415.924 170.278 416.805C170.744 417.139 171.167 417.561 171.5 418.027C172.382 419.258 173.63 420.179 175.066 420.658C176.502 421.138 178.053 421.152 179.497 420.698C180.942 420.244 182.206 419.346 183.109 418.131C184.013 416.916 184.51 415.447 184.53 413.933L190.395 408.068C190.513 408.414 190.718 408.725 190.99 408.97C191.262 409.215 191.592 409.387 191.948 409.47C192.305 409.552 192.677 409.543 193.028 409.442C193.38 409.341 193.701 409.152 193.96 408.893L201.216 401.637C202.576 400.823 205.465 399.351 210.747 397.727C214.694 396.977 218.255 394.874 220.817 391.779C223.379 388.685 224.78 384.793 224.78 380.776ZM186.206 398.026H190.28V402.085L181.321 411.041C180.598 411.79 180.201 412.796 180.217 413.838C180.217 414.447 180.024 415.04 179.665 415.532C179.306 416.023 178.8 416.389 178.221 416.575C177.641 416.761 177.018 416.758 176.44 416.567C175.862 416.376 175.359 416.006 175.005 415.511C174.391 414.661 173.645 413.914 172.794 413.3C172.299 412.946 171.929 412.444 171.738 411.866C171.547 411.288 171.544 410.664 171.73 410.084C171.916 409.505 172.282 408.999 172.774 408.64C173.265 408.282 173.858 408.088 174.467 408.088C175.327 408.088 176.402 407.829 177.241 406.99L186.206 398.026Z" fill="white" fill-opacity="0.5"/>
<g clip-path="url(#clip3_225_285)">
<path d="M105.78 183.776C105.783 179.475 104.179 175.328 101.283 172.148C98.3877 168.969 94.4085 166.985 90.1262 166.587C85.844 166.189 81.5674 167.405 78.1352 169.996C74.7029 172.588 72.3625 176.368 71.5729 180.596C69.937 185.886 68.4592 188.769 67.6485 190.109L60.4121 197.346C60.1543 197.604 59.9662 197.923 59.8654 198.273C59.7646 198.624 59.7543 198.994 59.8356 199.35C59.9169 199.706 60.087 200.035 60.3302 200.307C60.5733 200.579 60.8814 200.784 61.2257 200.905L55.3579 206.776C53.8452 206.798 52.3781 207.297 51.1656 208.202C49.9532 209.107 49.0571 210.371 48.605 211.815C48.153 213.258 48.168 214.808 48.648 216.243C49.128 217.677 50.0484 218.924 51.2782 219.805C51.744 220.139 52.1666 220.561 52.5001 221.027C53.3819 222.258 54.6299 223.179 56.0659 223.658C57.502 224.138 59.0528 224.152 60.4972 223.698C61.9416 223.244 63.2059 222.346 64.1095 221.131C65.0132 219.916 65.5102 218.447 65.5296 216.933L71.3946 211.068C71.5133 211.414 71.7182 211.725 71.99 211.97C72.2618 212.215 72.5915 212.387 72.9482 212.47C73.3048 212.552 73.6766 212.543 74.0285 212.442C74.3804 212.341 74.7009 212.152 74.9596 211.893L82.2161 204.637C83.576 203.823 86.4654 202.351 91.7467 200.727C95.6937 199.977 99.2553 197.874 101.817 194.779C104.379 191.685 105.78 187.793 105.78 183.776ZM67.2057 201.026H71.2796V205.085L62.3211 214.041C61.5976 214.79 61.2006 215.796 61.2171 216.838C61.217 217.447 61.0236 218.04 60.6648 218.532C60.3061 219.023 59.8005 219.389 59.2209 219.575C58.6413 219.761 58.0175 219.758 57.4396 219.567C56.8616 219.376 56.3592 219.006 56.0047 218.511C55.3912 217.661 54.6447 216.914 53.7939 216.3C53.299 215.946 52.9293 215.444 52.7382 214.866C52.5471 214.288 52.5444 213.664 52.7305 213.084C52.9165 212.505 53.2818 211.999 53.7736 211.64C54.2654 211.282 54.8584 211.088 55.4671 211.088C56.3267 211.088 57.402 210.829 58.2415 209.99L67.2057 201.026Z" fill="white" fill-opacity="0.5"/>
</g>
<path d="M203.114 218.004C202.904 217.949 197.816 216.687 190.789 216.687C182.145 216.687 169.899 218.634 160.646 227.902C144.404 244.172 150.487 269.299 150.755 270.363C150.89 270.897 151.167 271.385 151.557 271.774C151.947 272.163 152.435 272.438 152.969 272.572C153.179 272.626 158.219 273.867 165.191 273.867C173.856 273.867 186.13 271.918 195.401 262.65C211.628 246.422 205.593 221.283 205.329 220.221C205.195 219.686 204.919 219.196 204.529 218.806C204.139 218.415 203.65 218.138 203.114 218.004ZM192.356 246.176L188.055 250.477L182.601 245.026L177.777 249.85L183.228 255.304L178.927 259.605L173.476 254.151L168.023 259.605L163.722 255.304L169.175 249.85L163.722 244.394L168.023 240.093L173.476 245.549L178.3 240.725L172.844 235.272L177.144 230.971L182.601 236.424L188.055 230.971L192.356 235.272L186.902 240.725L192.356 246.176Z" fill="white" fill-opacity="0.5"/>
<path d="M309.127 679.778L294.607 652.209C294.18 651.397 293.957 650.532 293.939 649.616C293.92 648.699 294.107 647.837 294.498 647.032L304.767 625.102C305.301 623.948 306.143 623.068 307.291 622.464C308.439 621.859 309.647 621.659 310.914 621.864L334.804 625.801C335.692 625.933 336.509 626.267 337.253 626.804C337.999 627.338 338.586 628.011 339.013 628.823L353.532 656.393C353.98 657.243 354.054 658.15 353.755 659.116C353.456 660.081 352.881 660.787 352.031 661.235L341.297 666.888C340.57 667.271 339.832 667.346 339.083 667.114C338.333 666.88 337.767 666.4 337.385 665.674L329.419 650.548C329.037 649.823 328.471 649.344 327.722 649.112C326.97 648.878 326.231 648.953 325.506 649.335L319.162 652.676C318.437 653.058 317.959 653.624 317.728 654.375C317.494 655.125 317.567 655.863 317.949 656.588L325.917 671.718C326.299 672.443 326.374 673.18 326.142 673.929C325.91 674.678 325.431 675.244 324.706 675.626L313.969 681.28C313.119 681.728 312.211 681.802 311.246 681.502C310.281 681.203 309.574 680.628 309.127 679.778Z" fill="white" fill-opacity="0.5"/>
<path fill-rule="evenodd" clip-rule="evenodd" d="M351.229 697.339C349.984 696.095 348.297 695.397 346.538 695.397C344.779 695.397 343.091 696.095 341.847 697.339C339.717 699.469 338.629 703.301 339.387 706.046C339.724 707.265 339.957 708.728 339.825 710.205C339.694 711.694 339.173 713.37 337.838 714.705L316.463 736.08C315.128 737.415 313.452 737.936 311.963 738.068C310.56 738.166 309.151 738.018 307.8 737.629C305.055 736.871 301.227 737.959 299.1 740.089C298.459 740.699 297.947 741.431 297.593 742.242C297.239 743.053 297.051 743.926 297.04 744.811C297.029 745.696 297.195 746.574 297.528 747.393C297.862 748.213 298.355 748.957 298.981 749.583C299.606 750.209 300.35 750.704 301.17 751.038C301.989 751.371 302.867 751.538 303.752 751.528C304.636 751.517 305.51 751.33 306.321 750.977C307.132 750.624 307.865 750.112 308.475 749.471C308.736 749.21 309.046 749.002 309.387 748.861C309.729 748.719 310.094 748.646 310.464 748.645C310.833 748.645 311.199 748.718 311.541 748.859C311.882 749 312.193 749.207 312.454 749.468C312.716 749.729 312.923 750.039 313.065 750.38C313.207 750.721 313.28 751.087 313.28 751.456C313.28 751.826 313.208 752.192 313.067 752.533C312.926 752.875 312.719 753.185 312.458 753.446C311.828 754.059 311.325 754.791 310.98 755.599C310.635 756.408 310.454 757.277 310.448 758.155C310.442 759.034 310.61 759.906 310.944 760.719C311.277 761.532 311.769 762.271 312.39 762.893C313.011 763.515 313.75 764.006 314.563 764.34C315.376 764.674 316.248 764.843 317.127 764.837C318.006 764.831 318.875 764.65 319.683 764.305C320.492 763.961 321.224 763.459 321.837 762.829C323.967 760.699 325.054 756.866 324.297 754.121C323.908 752.771 323.76 751.364 323.858 749.963C323.989 748.474 324.51 746.798 325.845 745.463L347.22 724.088C348.555 722.753 350.232 722.231 351.72 722.1C353.123 722.001 354.532 722.15 355.883 722.539C358.628 723.296 362.457 722.209 364.583 720.079C365.734 718.817 366.354 717.161 366.315 715.454C366.276 713.747 365.581 712.121 364.373 710.913C363.166 709.706 361.54 709.01 359.833 708.97C358.126 708.93 356.47 709.55 355.208 710.7C354.68 711.228 353.964 711.525 353.218 711.525C352.471 711.526 351.755 711.23 351.227 710.702C350.699 710.174 350.402 709.459 350.402 708.712C350.401 707.966 350.698 707.249 351.225 706.721C352.469 705.477 353.167 703.789 353.167 702.03C353.167 700.271 352.473 698.583 351.229 697.339ZM358.737 703.185C358.973 700.674 358.428 698.151 357.178 695.96C355.928 693.769 354.032 692.018 351.75 690.943C349.468 689.869 346.91 689.525 344.425 689.957C341.94 690.39 339.649 691.578 337.864 693.36C334.418 696.81 332.622 702.694 333.964 707.546C334.182 708.334 334.275 709.099 334.219 709.71C334.167 710.31 333.994 710.588 333.855 710.73L312.48 732.105C312.342 732.244 312.064 732.413 311.464 732.465C310.734 732.505 310.002 732.419 309.3 732.21C304.448 730.868 298.56 732.664 295.114 736.11C293.332 737.895 292.144 740.186 291.711 742.671C291.279 745.156 291.623 747.714 292.697 749.996C293.772 752.279 295.523 754.174 297.714 755.424C299.905 756.674 302.428 757.219 304.939 756.983C304.701 759.495 305.244 762.019 306.494 764.211C307.743 766.403 309.639 768.156 311.922 769.231C314.205 770.306 316.764 770.65 319.25 770.216C321.736 769.782 324.027 768.592 325.812 766.808C329.258 763.358 331.054 757.474 329.712 752.621C329.503 751.92 329.417 751.188 329.457 750.458C329.509 749.858 329.682 749.58 329.82 749.438L351.195 728.063C351.334 727.924 351.612 727.755 352.212 727.703C352.823 727.646 353.584 727.74 354.375 727.958C359.228 729.3 365.115 727.504 368.558 724.058C370.342 722.274 371.532 719.983 371.966 717.497C372.399 715.012 372.056 712.453 370.982 710.17C369.907 707.887 368.155 705.992 365.964 704.741C363.772 703.491 361.248 702.948 358.737 703.185Z" fill="white" fill-opacity="0.5"/>
<path fill-rule="evenodd" clip-rule="evenodd" d="M127.865 340.241C128.011 338.488 127.454 336.748 126.318 335.405C125.182 334.062 123.559 333.225 121.806 333.077C118.804 332.827 115.175 334.471 113.569 336.822C112.856 337.867 111.89 338.989 110.677 339.843C109.455 340.704 107.839 341.389 105.958 341.232L75.8337 338.716C73.9523 338.559 72.4718 337.615 71.4101 336.563C70.429 335.556 69.6325 334.385 69.057 333.102C67.8626 330.517 64.5597 328.296 61.5603 328.048C60.6807 327.953 59.7909 328.034 58.9432 328.288C58.0956 328.541 57.3072 328.962 56.6246 329.525C55.9419 330.087 55.3787 330.781 54.9682 331.565C54.5576 332.349 54.308 333.207 54.234 334.088C54.16 334.97 54.2631 335.858 54.5373 336.699C54.8115 337.54 55.2511 338.318 55.8304 338.987C56.4097 339.655 57.117 340.201 57.9105 340.593C58.704 340.984 59.5678 341.213 60.451 341.265C60.8192 341.296 61.1779 341.398 61.5064 341.567C61.8349 341.736 62.127 341.968 62.3658 342.25C62.6047 342.532 62.7857 342.858 62.8985 343.21C63.0113 343.562 63.0538 343.932 63.0234 344.301C62.993 344.669 62.8903 345.027 62.7213 345.356C62.5523 345.684 62.3203 345.977 62.0384 346.215C61.7565 346.454 61.4304 346.635 61.0786 346.748C60.7268 346.861 60.3562 346.903 59.988 346.873C59.1132 346.787 58.2301 346.876 57.3901 347.135C56.5501 347.394 55.7698 347.817 55.0947 348.38C54.4195 348.942 53.863 349.634 53.4573 350.413C53.0516 351.193 52.805 352.046 52.7316 352.922C52.6583 353.798 52.7598 354.679 53.0301 355.516C53.3005 356.352 53.7343 357.126 54.3065 357.793C54.8787 358.461 55.5777 359.008 56.363 359.402C57.1484 359.797 58.0043 360.032 58.8811 360.093C61.8829 360.344 65.5114 358.699 67.118 356.348C67.8978 355.179 68.8766 354.157 70.0099 353.327C71.2314 352.466 72.8478 351.781 74.7292 351.938L104.853 354.455C106.735 354.612 108.215 355.555 109.277 356.607C110.258 357.614 111.054 358.786 111.63 360.068C112.824 362.653 116.127 364.874 119.127 365.122C120.833 365.186 122.498 364.59 123.776 363.458C125.054 362.326 125.847 360.745 125.989 359.043C126.132 357.342 125.613 355.651 124.541 354.322C123.469 352.993 121.926 352.128 120.233 351.908C119.489 351.846 118.8 351.491 118.318 350.921C117.835 350.351 117.599 349.613 117.661 348.869C117.723 348.126 118.077 347.437 118.647 346.954C119.217 346.472 119.955 346.236 120.699 346.297C122.452 346.443 124.192 345.887 125.535 344.75C126.878 343.614 127.718 341.994 127.865 340.241ZM128.25 349.749C130.319 348.307 131.894 346.262 132.759 343.893C133.625 341.523 133.738 338.945 133.085 336.509C132.431 334.073 131.042 331.897 129.107 330.279C127.172 328.661 124.785 327.679 122.272 327.467C117.412 327.064 111.76 329.492 108.922 333.651C108.461 334.326 107.937 334.891 107.434 335.243C106.942 335.59 106.619 335.638 106.421 335.624L76.2967 333.108C76.1012 333.092 75.7931 332.989 75.3656 332.565C74.8634 332.032 74.4566 331.418 74.1629 330.748C72.0542 326.176 66.8806 322.841 62.0238 322.435C59.51 322.227 56.9933 322.8 54.8167 324.074C52.6401 325.349 50.9095 327.264 49.8608 329.558C48.8121 331.852 48.4963 334.413 48.9565 336.893C49.4167 339.373 50.6305 341.651 52.4324 343.416C50.3606 344.856 48.7838 346.901 47.9172 349.271C47.0506 351.641 46.9365 354.22 47.5904 356.658C48.2442 359.095 49.6343 361.271 51.5707 362.889C53.5072 364.506 55.8958 365.487 58.4103 365.697C63.27 366.1 68.9223 363.672 71.7603 359.514C72.161 358.901 72.6642 358.363 73.2476 357.921C73.7397 357.574 74.0629 357.527 74.2613 357.54L104.385 360.057C104.581 360.073 104.889 360.176 105.316 360.6C105.754 361.03 106.174 361.672 106.519 362.417C108.628 366.989 113.801 370.324 118.656 370.727C121.17 370.937 123.688 370.366 125.865 369.092C128.043 367.818 129.775 365.903 130.824 363.609C131.873 361.314 132.189 358.752 131.728 356.272C131.268 353.791 130.053 351.513 128.25 349.749Z" fill="white" fill-opacity="0.5"/>
<g clip-path="url(#clip4_225_285)">
<path d="M184.812 581.336C183.16 582.591 180.556 581.932 178.983 579.861C177.426 577.811 177.489 575.125 179.142 573.87C180.794 572.615 183.398 573.274 184.956 575.325C186.528 577.396 186.464 580.081 184.812 581.336ZM165.431 571.318C162.962 573.193 159.681 573.048 158.124 570.997C156.551 568.927 157.292 565.727 159.761 563.852C162.23 561.977 165.51 562.122 167.083 564.193C168.64 566.243 167.9 569.443 165.431 571.318ZM169.88 592.676C168.228 593.931 165.624 593.272 164.051 591.202C162.494 589.151 162.558 586.466 164.21 585.211C165.862 583.956 168.467 584.615 170.024 586.665C171.596 588.736 171.533 591.421 169.88 592.676ZM160.895 565.345C161.711 564.725 162.902 564.888 163.522 565.704C164.142 566.521 163.979 567.712 163.163 568.332C162.347 568.952 161.156 568.789 160.536 567.973C159.916 567.156 160.079 565.965 160.895 565.345ZM180.004 562.605C179.367 563.089 178.855 563.697 178.494 564.379C176.616 563.89 174.536 563.838 172.378 564.221C172.303 561.766 171.514 559.321 169.926 557.231L169.835 557.111C171.658 555.005 171.823 551.834 170.054 549.505C168.043 546.857 164.225 546.335 161.577 548.346C160.203 549.389 159.368 550.934 159.227 552.485C156.95 552.675 154.775 553.51 152.956 554.892C151.136 556.274 149.748 558.145 148.954 560.287C147.422 560.007 145.71 560.397 144.336 561.44C141.688 563.451 141.166 567.27 143.177 569.917C144.931 572.227 148.03 572.918 150.543 571.763L150.634 571.882C152.222 573.973 154.401 575.395 156.71 576.121C155.782 578.081 155.274 580.1 155.241 582.04C154.328 582.25 153.482 582.686 152.781 583.308C152.08 583.93 151.546 584.717 151.229 585.599C150.911 586.481 150.82 587.428 150.963 588.354C151.106 589.28 151.48 590.155 152.049 590.899C153.939 593.388 157.442 593.867 159.931 591.977L160.05 591.886C160.334 592.424 160.687 592.972 161.065 593.47C164.195 597.591 169.403 598.909 172.708 596.399C174.719 594.872 175.538 592.272 175.181 589.529C176.108 589.014 177.01 588.423 177.906 587.743C178.801 587.062 179.612 586.353 180.358 585.598C182.904 586.678 185.629 586.586 187.64 585.059C190.944 582.549 191.072 577.178 187.942 573.057C187.564 572.559 187.131 572.072 186.688 571.654L186.808 571.564C189.297 569.674 189.775 566.171 187.885 563.682C185.995 561.193 182.492 560.715 180.004 562.605Z" fill="white" fill-opacity="0.5"/>
</g>
<g clip-path="url(#clip5_225_285)">
<path d="M292.842 326.389C291.283 325.02 291.411 322.337 293.127 320.384C294.827 318.449 297.471 317.977 299.03 319.347C300.589 320.717 300.461 323.4 298.761 325.334C297.045 327.287 294.401 327.759 292.842 326.389ZM298.803 305.403C296.474 303.356 295.963 300.112 297.663 298.178C299.379 296.225 302.662 296.314 304.991 298.36C307.32 300.406 307.83 303.65 306.114 305.604C304.414 307.538 301.131 307.449 298.803 305.403ZM278.757 314.013C277.198 312.644 277.326 309.96 279.042 308.007C280.742 306.073 283.386 305.601 284.945 306.971C286.504 308.34 286.376 311.023 284.676 312.958C282.96 314.911 280.316 315.383 278.757 314.013ZM303.753 299.769C304.523 300.445 304.601 301.645 303.924 302.415C303.248 303.185 302.048 303.262 301.278 302.586C300.508 301.909 300.431 300.709 301.107 299.939C301.784 299.169 302.983 299.092 303.753 299.769ZM310.242 317.95C309.641 317.422 308.943 317.042 308.203 316.824C308.308 314.886 307.945 312.837 307.14 310.799C309.531 310.237 311.77 308.976 313.503 307.004L313.602 306.892C316.028 308.258 319.169 307.79 321.1 305.592C323.295 303.095 323.046 299.249 320.548 297.054C319.253 295.916 317.572 295.404 316.024 295.575C315.385 293.382 314.134 291.416 312.417 289.908C310.701 288.4 308.591 287.412 306.334 287.06C306.304 285.503 305.581 283.902 304.285 282.764C301.787 280.569 297.941 280.817 295.747 283.315C293.832 285.494 293.772 288.668 295.404 290.901L295.305 291.014C293.572 292.986 292.612 295.404 292.36 297.812C290.254 297.292 288.176 297.196 286.267 297.55C285.88 296.697 285.284 295.955 284.535 295.391C283.786 294.828 282.908 294.462 281.981 294.326C281.054 294.19 280.107 294.289 279.229 294.614C278.35 294.939 277.566 295.479 276.95 296.185C274.887 298.533 275.115 302.061 277.463 304.124L277.575 304.223C277.104 304.607 276.638 305.063 276.225 305.532C272.809 309.419 272.553 314.786 275.671 317.525C277.568 319.192 280.279 319.477 282.896 318.582C283.586 319.388 284.344 320.154 285.189 320.896C286.034 321.639 286.891 322.292 287.779 322.872C287.227 325.583 287.859 328.235 289.756 329.901C292.874 332.641 298.162 331.697 301.578 327.809C301.991 327.34 302.382 326.819 302.703 326.302L302.816 326.401C305.163 328.464 308.692 328.236 310.754 325.888C312.817 323.541 312.589 320.012 310.242 317.95Z" fill="white" fill-opacity="0.5"/>
</g>
<path d="M1242.52 222.004C1242.73 221.949 1247.82 220.687 1254.84 220.687C1263.49 220.687 1275.74 222.634 1284.99 231.902C1301.23 248.172 1295.15 273.299 1294.88 274.363C1294.74 274.897 1294.47 275.385 1294.08 275.774C1293.69 276.163 1293.2 276.438 1292.66 276.572C1292.46 276.626 1287.42 277.867 1280.44 277.867C1271.78 277.867 1259.5 275.918 1250.23 266.65C1234.01 250.422 1240.04 225.283 1240.31 224.221C1240.44 223.686 1240.72 223.196 1241.11 222.806C1241.5 222.415 1241.98 222.138 1242.52 222.004ZM1253.28 250.176L1257.58 254.477L1263.03 249.026L1267.86 253.85L1262.41 259.304L1266.71 263.605L1272.16 258.151L1277.61 263.605L1281.91 259.304L1276.46 253.85L1281.91 248.394L1277.61 244.093L1272.16 249.549L1267.33 244.725L1272.79 239.272L1268.49 234.971L1263.03 240.424L1257.58 234.971L1253.28 239.272L1258.73 244.725L1253.28 250.176Z" fill="white" fill-opacity="0.5"/>
<g clip-path="url(#clip6_225_285)">
<path d="M1152.79 330.389C1154.35 329.02 1154.22 326.337 1152.51 324.384C1150.81 322.449 1148.16 321.977 1146.6 323.347C1145.05 324.717 1145.17 327.4 1146.87 329.334C1148.59 331.287 1151.23 331.759 1152.79 330.389ZM1146.83 309.403C1149.16 307.356 1149.67 304.112 1147.97 302.178C1146.26 300.225 1142.97 300.314 1140.64 302.36C1138.31 304.406 1137.8 307.65 1139.52 309.604C1141.22 311.538 1144.5 311.449 1146.83 309.403ZM1166.88 318.013C1168.44 316.644 1168.31 313.96 1166.59 312.007C1164.89 310.073 1162.25 309.601 1160.69 310.971C1159.13 312.34 1159.26 315.023 1160.96 316.958C1162.67 318.911 1165.32 319.383 1166.88 318.013ZM1141.88 303.769C1141.11 304.445 1141.03 305.645 1141.71 306.415C1142.39 307.185 1143.59 307.262 1144.36 306.586C1145.13 305.909 1145.2 304.709 1144.53 303.939C1143.85 303.169 1142.65 303.092 1141.88 303.769ZM1135.39 321.95C1135.99 321.422 1136.69 321.042 1137.43 320.824C1137.33 318.886 1137.69 316.837 1138.49 314.799C1136.1 314.237 1133.86 312.976 1132.13 311.004L1132.03 310.892C1129.61 312.258 1126.47 311.79 1124.53 309.592C1122.34 307.095 1122.59 303.249 1125.09 301.054C1126.38 299.916 1128.06 299.404 1129.61 299.575C1130.25 297.382 1131.5 295.416 1133.22 293.908C1134.93 292.4 1137.04 291.412 1139.3 291.06C1139.33 289.503 1140.05 287.902 1141.35 286.764C1143.85 284.569 1147.69 284.817 1149.89 287.315C1151.8 289.494 1151.86 292.668 1150.23 294.901L1150.33 295.014C1152.06 296.986 1153.02 299.404 1153.27 301.812C1155.38 301.292 1157.46 301.196 1159.37 301.55C1159.75 300.697 1160.35 299.955 1161.1 299.391C1161.85 298.828 1162.73 298.462 1163.65 298.326C1164.58 298.19 1165.53 298.289 1166.41 298.614C1167.28 298.939 1168.07 299.479 1168.68 300.185C1170.75 302.533 1170.52 306.061 1168.17 308.124L1168.06 308.223C1168.53 308.607 1169 309.063 1169.41 309.532C1172.83 313.419 1173.08 318.786 1169.96 321.525C1168.07 323.192 1165.36 323.477 1162.74 322.582C1162.05 323.388 1161.29 324.154 1160.45 324.896C1159.6 325.639 1158.74 326.292 1157.86 326.872C1158.41 329.583 1157.78 332.235 1155.88 333.901C1152.76 336.641 1147.47 335.697 1144.06 331.809C1143.64 331.34 1143.25 330.819 1142.93 330.302L1142.82 330.401C1140.47 332.464 1136.94 332.236 1134.88 329.888C1132.82 327.541 1133.05 324.012 1135.39 321.95Z" fill="white" fill-opacity="0.5"/>
</g>
<path fill-rule="evenodd" clip-rule="evenodd" d="M1303.27 351.241C1303.12 349.488 1303.68 347.748 1304.82 346.405C1305.95 345.062 1307.58 344.225 1309.33 344.077C1312.33 343.827 1315.96 345.471 1317.57 347.822C1318.28 348.867 1319.24 349.989 1320.46 350.843C1321.68 351.704 1323.3 352.389 1325.18 352.232L1355.3 349.716C1357.18 349.559 1358.66 348.615 1359.72 347.563C1360.71 346.556 1361.5 345.385 1362.08 344.102C1363.27 341.517 1366.57 339.296 1369.57 339.048C1370.45 338.953 1371.34 339.034 1372.19 339.288C1373.04 339.541 1373.83 339.962 1374.51 340.525C1375.19 341.087 1375.76 341.781 1376.17 342.565C1376.58 343.349 1376.83 344.207 1376.9 345.088C1376.97 345.97 1376.87 346.858 1376.6 347.699C1376.32 348.54 1375.88 349.318 1375.3 349.987C1374.72 350.655 1374.02 351.201 1373.22 351.593C1372.43 351.984 1371.57 352.213 1370.68 352.265C1370.32 352.296 1369.96 352.398 1369.63 352.567C1369.3 352.736 1369.01 352.968 1368.77 353.25C1368.53 353.532 1368.35 353.858 1368.24 354.21C1368.12 354.562 1368.08 354.932 1368.11 355.301C1368.14 355.669 1368.24 356.027 1368.41 356.356C1368.58 356.684 1368.81 356.977 1369.1 357.215C1369.38 357.454 1369.7 357.635 1370.06 357.748C1370.41 357.861 1370.78 357.903 1371.15 357.873C1372.02 357.787 1372.9 357.876 1373.74 358.135C1374.58 358.394 1375.36 358.817 1376.04 359.38C1376.71 359.942 1377.27 360.634 1377.68 361.413C1378.08 362.193 1378.33 363.046 1378.4 363.922C1378.48 364.798 1378.37 365.679 1378.1 366.516C1377.83 367.352 1377.4 368.126 1376.83 368.793C1376.26 369.461 1375.56 370.008 1374.77 370.402C1373.99 370.797 1373.13 371.032 1372.25 371.093C1369.25 371.344 1365.62 369.699 1364.02 367.348C1363.24 366.179 1362.26 365.157 1361.12 364.327C1359.9 363.466 1358.29 362.781 1356.41 362.938L1326.28 365.455C1324.4 365.612 1322.92 366.555 1321.86 367.607C1320.88 368.614 1320.08 369.786 1319.5 371.068C1318.31 373.653 1315.01 375.874 1312.01 376.122C1310.3 376.186 1308.64 375.59 1307.36 374.458C1306.08 373.326 1305.29 371.745 1305.15 370.043C1305 368.342 1305.52 366.651 1306.59 365.322C1307.67 363.993 1309.21 363.128 1310.9 362.908C1311.65 362.846 1312.33 362.491 1312.82 361.921C1313.3 361.351 1313.54 360.613 1313.47 359.869C1313.41 359.126 1313.06 358.437 1312.49 357.954C1311.92 357.472 1311.18 357.236 1310.44 357.297C1308.68 357.443 1306.94 356.887 1305.6 355.75C1304.26 354.614 1303.42 352.994 1303.27 351.241ZM1302.88 360.749C1300.82 359.307 1299.24 357.262 1298.38 354.893C1297.51 352.523 1297.4 349.945 1298.05 347.509C1298.7 345.073 1300.09 342.897 1302.03 341.279C1303.96 339.661 1306.35 338.679 1308.86 338.467C1313.72 338.064 1319.37 340.492 1322.21 344.651C1322.67 345.326 1323.2 345.891 1323.7 346.243C1324.19 346.59 1324.52 346.638 1324.71 346.624L1354.84 344.108C1355.03 344.092 1355.34 343.989 1355.77 343.565C1356.27 343.032 1356.68 342.418 1356.97 341.748C1359.08 337.176 1364.25 333.841 1369.11 333.435C1371.62 333.227 1374.14 333.8 1376.32 335.074C1378.49 336.349 1380.22 338.264 1381.27 340.558C1382.32 342.852 1382.64 345.413 1382.18 347.893C1381.72 350.373 1380.5 352.651 1378.7 354.416C1380.77 355.856 1382.35 357.901 1383.22 360.271C1384.08 362.641 1384.2 365.22 1383.54 367.658C1382.89 370.095 1381.5 372.271 1379.56 373.889C1377.63 375.506 1375.24 376.487 1372.72 376.697C1367.86 377.1 1362.21 374.672 1359.37 370.514C1358.97 369.901 1358.47 369.363 1357.89 368.921C1357.39 368.574 1357.07 368.527 1356.87 368.54L1326.75 371.057C1326.55 371.073 1326.25 371.176 1325.82 371.6C1325.38 372.03 1324.96 372.672 1324.62 373.417C1322.51 377.989 1317.33 381.324 1312.48 381.727C1309.96 381.937 1307.45 381.366 1305.27 380.092C1303.09 378.818 1301.36 376.903 1300.31 374.609C1299.26 372.314 1298.95 369.752 1299.41 367.272C1299.87 364.791 1301.08 362.513 1302.88 360.749Z" fill="white" fill-opacity="0.5"/>
<g clip-path="url(#clip7_225_285)">
<path d="M1101.67 383.861C1101.96 383.384 1102.39 383.005 1102.9 382.772C1103.41 382.539 1103.98 382.462 1104.53 382.552C1105.08 382.641 1105.6 382.892 1106.01 383.274C1106.42 383.655 1106.71 384.15 1106.83 384.695C1106.96 385.241 1106.93 385.812 1106.73 386.337C1106.54 386.862 1106.19 387.318 1105.74 387.646C1105.28 387.974 1104.74 388.16 1104.18 388.18C1103.62 388.201 1103.07 388.054 1102.59 387.76C1101.95 387.366 1101.49 386.733 1101.32 386.002C1101.15 385.271 1101.27 384.501 1101.67 383.861ZM1090.86 377.197C1091.16 376.72 1091.59 376.341 1092.1 376.108C1092.61 375.875 1093.17 375.798 1093.73 375.888C1094.28 375.977 1094.79 376.228 1095.2 376.61C1095.61 376.991 1095.9 377.486 1096.03 378.031C1096.16 378.577 1096.13 379.148 1095.93 379.673C1095.73 380.198 1095.39 380.654 1094.93 380.982C1094.48 381.31 1093.94 381.496 1093.38 381.516C1092.82 381.536 1092.26 381.39 1091.79 381.096C1091.15 380.702 1090.69 380.069 1090.52 379.338C1090.34 378.607 1090.47 377.837 1090.86 377.197ZM1090.49 388.588C1090.89 387.949 1091.52 387.492 1092.25 387.319C1092.98 387.145 1093.75 387.27 1094.39 387.664L1096.8 389.152C1097.44 389.546 1097.9 390.179 1098.07 390.91C1098.25 391.641 1098.12 392.411 1097.73 393.051C1097.33 393.69 1096.7 394.147 1095.97 394.32C1095.24 394.493 1094.47 394.369 1093.83 393.975L1091.42 392.487C1090.78 392.093 1090.32 391.46 1090.15 390.729C1089.98 389.998 1090.1 389.228 1090.49 388.588ZM1074.4 406.958C1074.44 405.831 1074.69 404.722 1075.16 403.696C1075.63 402.67 1076.3 401.747 1077.12 400.981C1077.98 400.177 1078.99 399.565 1080.1 399.185L1081.17 361.231C1081.18 360.734 1081.33 360.249 1081.59 359.826C1081.85 359.403 1082.22 359.056 1082.66 358.82C1083.1 358.576 1083.59 358.454 1084.09 358.465C1084.6 358.477 1085.09 358.621 1085.51 358.884L1117.27 378.475C1118.63 377.348 1120.31 376.681 1122.07 376.571C1123.83 376.46 1125.58 376.912 1127.07 377.861C1128.96 379.024 1130.32 380.877 1130.86 383.026C1131.4 385.174 1131.08 387.449 1129.96 389.365L1129.1 390.764C1124.21 398.654 1117.31 405.109 1109.12 409.474C1100.93 413.838 1091.72 415.957 1082.44 415.615C1080.24 415.501 1078.18 414.537 1076.67 412.926C1075.17 411.316 1074.35 409.185 1074.39 406.982L1074.4 406.958ZM1086.71 366.28L1085.77 398.623C1091.35 398.413 1096.8 396.893 1101.69 394.187C1106.57 391.481 1110.75 387.664 1113.89 383.045L1086.71 366.28ZM1082.67 409.961C1091.19 410.272 1099.63 408.261 1107.09 404.143C1114.55 400.025 1120.75 393.955 1125.02 386.583C1125.42 385.944 1125.54 385.174 1125.37 384.442C1125.19 383.711 1124.74 383.079 1124.1 382.684C1123.78 382.483 1123.42 382.349 1123.04 382.289C1122.67 382.229 1122.28 382.245 1121.91 382.337C1121.2 382.52 1120.58 382.977 1120.2 383.608L1119.44 384.838C1115.62 391.028 1110.22 396.093 1103.8 399.513C1097.38 402.934 1090.16 404.589 1082.9 404.307C1082.54 404.291 1082.19 404.348 1081.85 404.476C1081.52 404.604 1081.22 404.8 1080.97 405.052C1080.43 405.557 1080.11 406.254 1080.07 406.994C1080.03 407.731 1080.27 408.456 1080.76 409.014C1081.24 409.573 1081.92 409.921 1082.66 409.985L1082.67 409.961Z" fill="white" fill-opacity="0.5"/>
</g>
<path d="M1220.85 384.776C1220.85 380.475 1222.46 376.328 1225.35 373.148C1228.25 369.969 1232.23 367.985 1236.51 367.587C1240.79 367.189 1245.07 368.405 1248.5 370.996C1251.93 373.588 1254.27 377.368 1255.06 381.596C1256.7 386.886 1258.18 389.769 1258.99 391.109L1266.22 398.346C1266.48 398.604 1266.67 398.923 1266.77 399.273C1266.87 399.624 1266.88 399.994 1266.8 400.35C1266.72 400.706 1266.55 401.035 1266.3 401.307C1266.06 401.579 1265.75 401.784 1265.41 401.905L1271.28 407.776C1272.79 407.798 1274.26 408.297 1275.47 409.202C1276.68 410.107 1277.58 411.371 1278.03 412.815C1278.48 414.258 1278.47 415.808 1277.99 417.243C1277.51 418.677 1276.59 419.924 1275.36 420.805C1274.89 421.139 1274.47 421.561 1274.13 422.027C1273.25 423.258 1272 424.179 1270.57 424.658C1269.13 425.138 1267.58 425.152 1266.14 424.698C1264.69 424.244 1263.43 423.346 1262.52 422.131C1261.62 420.916 1261.12 419.447 1261.1 417.933L1255.24 412.068C1255.12 412.414 1254.92 412.725 1254.64 412.97C1254.37 413.215 1254.04 413.387 1253.69 413.47C1253.33 413.552 1252.96 413.543 1252.61 413.442C1252.25 413.341 1251.93 413.152 1251.67 412.893L1244.42 405.637C1243.06 404.823 1240.17 403.351 1234.89 401.727C1230.94 400.977 1227.38 398.874 1224.82 395.779C1222.26 392.685 1220.85 388.793 1220.85 384.776ZM1259.43 402.026H1255.35V406.085L1264.31 415.041C1265.04 415.79 1265.43 416.796 1265.42 417.838C1265.42 418.447 1265.61 419.04 1265.97 419.532C1266.33 420.023 1266.83 420.389 1267.41 420.575C1267.99 420.761 1268.62 420.758 1269.19 420.567C1269.77 420.376 1270.28 420.006 1270.63 419.511C1271.24 418.661 1271.99 417.914 1272.84 417.3C1273.34 416.946 1273.71 416.444 1273.9 415.866C1274.09 415.288 1274.09 414.664 1273.9 414.084C1273.72 413.505 1273.35 412.999 1272.86 412.64C1272.37 412.282 1271.78 412.088 1271.17 412.088C1270.31 412.088 1269.23 411.829 1268.39 410.99L1259.43 402.026Z" fill="white" fill-opacity="0.5"/>
<path d="M1350.06 459.882L1353.66 457.227C1353.85 457.089 1354.01 456.915 1354.14 456.714C1354.26 456.514 1354.34 456.291 1354.38 456.058C1354.41 455.826 1354.4 455.589 1354.34 455.361C1354.29 455.133 1354.19 454.919 1354.05 454.73C1353.46 453.92 1352.34 453.762 1351.55 454.347L1347.95 457.002C1347.14 457.587 1346.98 458.712 1347.57 459.5C1348.15 460.31 1349.28 460.467 1350.06 459.882ZM1361.16 462.402L1363.81 466.002C1364.4 466.767 1364.24 467.892 1363.45 468.477C1362.64 469.062 1361.54 468.905 1360.95 468.117L1358.3 464.517C1357.71 463.73 1357.87 462.605 1358.68 462.02C1358.87 461.88 1359.08 461.78 1359.31 461.723C1359.53 461.667 1359.77 461.656 1360 461.692C1360.23 461.728 1360.45 461.809 1360.65 461.931C1360.85 462.053 1361.02 462.213 1361.16 462.402ZM1335.75 471.087L1337.82 467.127C1338.05 466.715 1338.42 466.407 1338.87 466.269C1339.32 466.131 1339.8 466.174 1340.22 466.389C1340.63 466.605 1340.95 466.975 1341.09 467.42C1341.24 467.866 1341.2 468.35 1341 468.77L1338.93 472.73C1338.7 473.142 1338.33 473.451 1337.88 473.589C1337.43 473.727 1336.95 473.683 1336.53 473.468C1336.12 473.253 1335.8 472.882 1335.66 472.437C1335.51 471.992 1335.55 471.507 1335.75 471.087ZM1358.66 480.355L1360.48 476.283C1360.66 475.853 1360.66 475.373 1360.48 474.943C1360.31 474.512 1359.98 474.166 1359.56 473.976C1359.13 473.787 1358.65 473.769 1358.22 473.926C1357.78 474.084 1357.42 474.404 1357.22 474.82L1355.4 478.893C1355.22 479.322 1355.22 479.802 1355.39 480.233C1355.57 480.663 1355.9 481.009 1356.32 481.199C1356.74 481.389 1357.22 481.407 1357.66 481.249C1358.1 481.092 1358.45 480.771 1358.66 480.355ZM1369.77 477.905L1373.73 479.975C1374.15 480.197 1374.45 480.573 1374.59 481.021C1374.73 481.468 1374.69 481.952 1374.47 482.368C1374.26 482.784 1373.89 483.099 1373.44 483.245C1373 483.391 1372.51 483.356 1372.09 483.147L1368.13 481.077C1367.25 480.627 1366.92 479.547 1367.37 478.67C1367.59 478.252 1367.96 477.937 1368.41 477.794C1368.86 477.651 1369.35 477.691 1369.77 477.905ZM1328.06 484.79L1331.66 482.135C1331.85 481.995 1332.06 481.894 1332.29 481.837C1332.52 481.78 1332.75 481.77 1332.99 481.805C1333.22 481.841 1333.44 481.922 1333.64 482.044C1333.84 482.167 1334.02 482.327 1334.16 482.517C1334.74 483.305 1334.58 484.43 1333.77 485.015L1330.17 487.67C1329.39 488.255 1328.26 488.097 1327.68 487.287C1327.11 486.5 1327.27 485.375 1328.06 484.79ZM1342.1 480.47L1346.55 480.785C1347.54 480.852 1348.4 480.11 1348.47 479.142C1348.56 478.152 1347.81 477.297 1346.82 477.23L1342.37 476.915C1341.38 476.825 1340.52 477.567 1340.46 478.557C1340.37 479.547 1341.11 480.402 1342.1 480.47ZM1328.89 495.185L1332.18 498.222C1332.52 498.545 1332.98 498.716 1333.45 498.699C1333.93 498.682 1334.37 498.479 1334.7 498.132C1335.02 497.786 1335.19 497.326 1335.17 496.854C1335.16 496.381 1334.95 495.935 1334.61 495.612L1331.32 492.575C1330.98 492.253 1330.52 492.081 1330.04 492.098C1329.57 492.115 1329.12 492.319 1328.8 492.665C1328.48 493.011 1328.31 493.471 1328.32 493.944C1328.34 494.416 1328.55 494.863 1328.89 495.185ZM1370.76 490.257L1368.51 494.127C1368.29 494.54 1368.23 495.026 1368.35 495.48C1368.48 495.935 1368.78 496.322 1369.19 496.557C1370.04 497.052 1371.12 496.76 1371.62 495.905L1373.85 492.035C1373.96 491.833 1374.04 491.609 1374.07 491.377C1374.1 491.146 1374.08 490.91 1374.02 490.685C1373.96 490.459 1373.86 490.247 1373.72 490.062C1373.57 489.877 1373.4 489.721 1373.19 489.605C1372.34 489.11 1371.26 489.402 1370.76 490.257ZM1351.89 466.655L1347.79 468.41C1346.89 468.815 1346.46 469.85 1346.85 470.75C1346.94 470.966 1347.07 471.162 1347.24 471.327C1347.4 471.492 1347.6 471.622 1347.82 471.71C1348.04 471.798 1348.27 471.842 1348.5 471.839C1348.74 471.836 1348.97 471.787 1349.19 471.695L1353.28 469.94C1353.5 469.849 1353.69 469.716 1353.86 469.549C1354.02 469.382 1354.15 469.184 1354.24 468.967C1354.33 468.749 1354.37 468.516 1354.37 468.282C1354.37 468.047 1354.32 467.815 1354.23 467.6C1354.14 467.384 1354 467.187 1353.84 467.023C1353.67 466.858 1353.47 466.728 1353.25 466.64C1353.04 466.552 1352.8 466.508 1352.57 466.511C1352.33 466.513 1352.1 466.562 1351.89 466.655Z" fill="white" fill-opacity="0.5"/>
<path d="M1338.7 508.026H1337.59C1334.52 508.024 1331.51 507.215 1328.85 505.678C1326.2 504.142 1323.99 501.933 1322.46 499.274C1320.93 496.615 1320.12 493.599 1320.12 490.53C1320.13 487.461 1320.94 484.447 1322.48 481.791L1337.76 455.286C1339.16 452.851 1341.18 450.829 1343.61 449.423C1346.04 448.016 1348.8 447.276 1351.61 447.276C1354.42 447.276 1357.18 448.016 1359.61 449.423C1362.04 450.829 1364.06 452.851 1365.46 455.286L1380.74 481.795C1382.28 484.452 1383.09 487.465 1383.09 490.533C1383.09 493.6 1382.28 496.614 1380.75 499.272C1379.22 501.929 1377.01 504.137 1374.36 505.674C1371.7 507.21 1368.69 508.021 1365.62 508.026H1364.51C1363.27 509.407 1361.48 510.276 1359.48 510.276H1343.73C1342.78 510.276 1341.84 510.075 1340.97 509.688C1340.11 509.3 1339.33 508.733 1338.7 508.026ZM1336.98 503.51V485.526C1336.98 484.929 1337.22 484.357 1337.64 483.935C1338.06 483.513 1338.63 483.276 1339.23 483.276H1363.98C1364.58 483.276 1365.15 483.513 1365.57 483.935C1365.99 484.357 1366.23 484.929 1366.23 485.526V503.51C1368.45 503.403 1370.61 502.726 1372.5 501.543C1374.39 500.361 1375.94 498.713 1377 496.758C1378.07 494.803 1378.62 492.606 1378.59 490.379C1378.56 488.153 1377.96 485.971 1376.85 484.043L1361.56 457.531C1360.55 455.781 1359.1 454.327 1357.36 453.316C1355.61 452.305 1353.63 451.773 1351.61 451.773C1349.59 451.773 1347.61 452.305 1345.86 453.316C1344.11 454.327 1342.67 455.781 1341.66 457.531L1326.37 484.043C1325.26 485.97 1324.66 488.151 1324.63 490.377C1324.6 492.603 1325.15 494.799 1326.21 496.754C1327.28 498.709 1328.83 500.357 1330.71 501.54C1332.6 502.723 1334.76 503.402 1336.98 503.51Z" fill="white" fill-opacity="0.5"/>
<path fill-rule="evenodd" clip-rule="evenodd" d="M1100.59 490.776C1085.41 490.783 1073.1 503.092 1073.1 518.276C1073.1 533.45 1085.4 545.755 1100.56 545.776H1100.64C1107.87 545.775 1114.8 542.923 1119.93 537.839C1120.01 537.766 1120.09 537.686 1120.17 537.602C1125.28 532.443 1128.13 525.467 1128.1 518.205C1128.07 503.056 1115.78 490.786 1100.62 490.776M1123.33 520.38C1122.92 524.885 1121.17 529.166 1118.31 532.672L1103.91 518.277L1108.84 513.35C1112.98 516.954 1118.04 519.576 1123.33 520.38M1112.16 510.031C1115.49 512.863 1119.36 514.861 1123.27 515.619C1122.77 511.313 1121.05 507.241 1118.31 503.882L1112.16 510.031ZM1105.53 510.04L1100.61 514.966L1086.21 500.57C1089.71 497.71 1093.99 495.963 1098.5 495.552C1099.3 500.838 1101.93 505.897 1105.53 510.04M1103.26 495.61C1104.02 499.517 1106.02 503.393 1108.85 506.721L1115 500.57C1111.64 497.829 1107.57 496.109 1103.26 495.61ZM1082.9 503.879C1080.04 507.384 1078.29 511.664 1077.88 516.169C1083.17 516.972 1088.23 519.593 1092.37 523.199L1097.3 518.276L1082.9 503.879ZM1100.6 521.587L1095.68 526.512C1099.29 530.654 1101.91 535.713 1102.71 540.999C1107.22 540.588 1111.49 538.842 1115 535.983L1100.6 521.587ZM1086.21 535.983L1092.36 529.83C1095.19 533.158 1097.19 537.035 1097.95 540.943C1093.64 540.445 1089.57 538.724 1086.21 535.983ZM1089.05 526.52L1082.9 532.674C1080.16 529.314 1078.44 525.24 1077.94 520.932C1081.85 521.689 1085.72 523.687 1089.05 526.52" fill="white" fill-opacity="0.5"/>
<path fill-rule="evenodd" clip-rule="evenodd" d="M1358.02 145.276C1342.83 145.283 1330.53 157.592 1330.53 172.776C1330.53 187.95 1342.82 200.255 1357.99 200.276H1358.07C1365.29 200.275 1372.22 197.423 1377.35 192.339C1377.44 192.266 1377.52 192.186 1377.59 192.102C1382.7 186.943 1385.56 179.967 1385.53 172.705C1385.49 157.556 1373.2 145.286 1358.05 145.276M1380.75 174.88C1380.34 179.385 1378.59 183.666 1375.73 187.172L1361.34 172.777L1366.27 167.85C1370.41 171.454 1375.47 174.076 1380.75 174.88M1369.59 164.531C1372.91 167.363 1376.79 169.361 1380.7 170.119C1380.2 165.813 1378.48 161.741 1375.73 158.382L1369.59 164.531ZM1362.96 164.54L1358.03 169.466L1343.63 155.07C1347.14 152.21 1351.42 150.463 1355.93 150.052C1356.73 155.338 1359.35 160.397 1362.96 164.54M1360.69 150.11C1361.44 154.017 1363.44 157.893 1366.27 161.221L1372.43 155.07C1369.07 152.329 1364.99 150.609 1360.69 150.11ZM1340.32 158.379C1337.46 161.884 1335.72 166.164 1335.31 170.669C1340.59 171.472 1345.65 174.093 1349.8 177.699L1354.72 172.776L1340.32 158.379ZM1358.03 176.087L1353.11 181.012C1356.71 185.154 1359.33 190.213 1360.14 195.499C1364.64 195.088 1368.92 193.342 1372.42 190.483L1358.03 176.087ZM1343.63 190.483L1349.79 184.33C1352.62 187.658 1354.62 191.535 1355.38 195.443C1351.07 194.945 1346.99 193.224 1343.63 190.483ZM1346.48 181.02L1340.32 187.174C1337.58 183.814 1335.86 179.74 1335.36 175.432C1339.27 176.189 1343.15 178.187 1346.48 181.02" fill="white" fill-opacity="0.5"/>
<g clip-path="url(#clip8_225_285)">
<path d="M1250.06 554.327L1252.06 555.815C1256.43 550.95 1262.46 547.891 1268.96 547.239C1275.47 546.588 1281.98 548.39 1287.23 552.293C1292.47 556.196 1296.07 561.918 1297.32 568.336C1298.56 574.754 1297.36 581.406 1293.96 586.987L1295.96 588.476C1296.47 588.853 1296.8 589.416 1296.89 590.042C1296.99 590.667 1296.83 591.304 1296.45 591.811C1293.06 596.352 1288.49 599.88 1283.23 602.012C1277.98 604.144 1272.25 604.8 1266.65 603.908L1265.99 604.798C1265.23 605.812 1264.11 606.485 1262.85 606.668C1261.6 606.852 1260.33 606.531 1259.32 605.776L1244.02 594.393C1243 593.639 1242.33 592.512 1242.15 591.261C1241.96 590.01 1242.29 588.737 1243.04 587.723L1243.7 586.834C1241.24 581.728 1240.22 576.046 1240.75 570.403C1241.29 564.76 1243.35 559.37 1246.73 554.816C1247.11 554.309 1247.67 553.972 1248.3 553.88C1248.92 553.789 1249.56 553.949 1250.06 554.327ZM1255.91 558.677L1268.2 567.823C1268.47 562.619 1266.83 557.496 1263.6 553.414C1260.68 554.58 1258.05 556.377 1255.91 558.677ZM1270.64 551.893C1269.93 551.926 1269.23 551.992 1268.53 552.092C1272.29 557.67 1273.76 564.48 1272.63 571.112L1279.68 576.359C1280.98 572.119 1280.94 567.582 1279.56 563.368C1278.18 559.154 1275.54 555.468 1271.99 552.813C1271.55 552.488 1271.1 552.184 1270.64 551.893ZM1284.39 556.103C1282.86 554.963 1281.18 554.033 1279.4 553.338C1282.33 556.913 1284.28 561.2 1285.03 565.766C1285.79 570.332 1285.32 575.016 1283.69 579.346L1290.11 584.125C1292.77 579.567 1293.65 574.192 1292.6 569.024C1291.54 563.856 1288.62 559.257 1284.39 556.103ZM1248.6 585.916C1248.82 586.317 1248.92 586.773 1248.88 587.23C1248.85 587.686 1248.69 588.123 1248.41 588.489L1246.86 590.569L1262.16 601.952L1263.71 599.872C1263.98 599.504 1264.35 599.222 1264.78 599.06C1265.21 598.897 1265.67 598.861 1266.12 598.956C1270.64 599.911 1275.32 599.662 1279.71 598.233C1284.1 596.804 1288.03 594.247 1291.12 590.817L1249.22 559.64C1246.82 563.58 1245.5 568.082 1245.39 572.694C1245.28 577.306 1246.39 581.866 1248.6 585.916Z" fill="white" fill-opacity="0.5"/>
</g>
<g clip-path="url(#clip9_225_285)">
<path d="M1313.3 652.922C1315.85 654.862 1319.88 653.843 1322.31 650.643C1324.71 647.473 1324.62 643.322 1322.06 641.383C1319.51 639.443 1315.48 640.462 1313.08 643.631C1310.64 646.832 1310.74 650.982 1313.3 652.922ZM1343.25 637.438C1347.07 640.336 1352.14 640.112 1354.55 636.942C1356.98 633.742 1355.83 628.797 1352.02 625.899C1348.2 623.001 1343.13 623.225 1340.7 626.425C1338.29 629.595 1339.44 634.54 1343.25 637.438ZM1336.38 670.45C1338.93 672.39 1342.95 671.371 1345.39 668.17C1347.79 665.001 1347.69 660.85 1345.14 658.911C1342.59 656.971 1338.56 657.99 1336.15 661.159C1333.72 664.36 1333.82 668.51 1336.38 670.45ZM1350.26 628.207C1349 627.248 1347.16 627.5 1346.2 628.762C1345.25 630.023 1345.5 631.864 1346.76 632.822C1348.02 633.781 1349.86 633.529 1350.82 632.267C1351.78 631.006 1351.53 629.165 1350.26 628.207ZM1320.73 623.971C1321.71 624.719 1322.5 625.659 1323.06 626.713C1325.96 625.958 1329.18 625.877 1332.52 626.469C1332.63 622.675 1333.85 618.895 1336.31 615.664L1336.45 615.48C1333.63 612.225 1333.37 607.323 1336.11 603.723C1339.22 599.631 1345.12 598.824 1349.21 601.932C1351.33 603.545 1352.62 605.933 1352.84 608.33C1356.36 608.624 1359.72 609.915 1362.53 612.05C1365.35 614.186 1367.49 617.078 1368.72 620.389C1371.09 619.955 1373.73 620.559 1375.86 622.171C1379.95 625.279 1380.76 631.181 1377.65 635.273C1374.94 638.843 1370.15 639.911 1366.26 638.126L1366.12 638.311C1363.67 641.542 1360.3 643.739 1356.73 644.861C1358.17 647.892 1358.95 651.011 1359 654.01C1360.41 654.335 1361.72 655.009 1362.81 655.97C1363.89 656.931 1364.71 658.148 1365.2 659.511C1365.7 660.874 1365.84 662.338 1365.61 663.769C1365.39 665.2 1364.82 666.553 1363.94 667.703C1361.01 671.549 1355.6 672.29 1351.75 669.368L1351.57 669.228C1351.13 670.06 1350.59 670.907 1350 671.676C1345.16 678.046 1337.11 680.084 1332.01 676.204C1328.9 673.844 1327.63 669.825 1328.18 665.586C1326.75 664.789 1325.36 663.876 1323.97 662.824C1322.59 661.773 1321.33 660.676 1320.18 659.509C1316.25 661.178 1312.04 661.037 1308.93 658.676C1303.82 654.797 1303.62 646.495 1308.46 640.126C1309.04 639.356 1309.71 638.603 1310.4 637.958L1310.21 637.818C1306.37 634.897 1305.63 629.482 1308.55 625.636C1311.47 621.79 1316.88 621.049 1320.73 623.971Z" fill="white" fill-opacity="0.5"/>
</g>
<path d="M1170.18 678.223L1184.7 650.653C1185.13 649.841 1185.35 648.977 1185.37 648.06C1185.39 647.143 1185.2 646.282 1184.81 645.476L1174.54 623.546C1174.01 622.392 1173.17 621.513 1172.02 620.908C1170.87 620.303 1169.66 620.104 1168.4 620.309L1144.51 624.245C1143.62 624.377 1142.8 624.712 1142.06 625.249C1141.31 625.783 1140.72 626.455 1140.3 627.267L1125.78 654.837C1125.33 655.687 1125.26 656.595 1125.56 657.56C1125.85 658.525 1126.43 659.232 1127.28 659.679L1138.01 665.332C1138.74 665.715 1139.48 665.79 1140.23 665.558C1140.98 665.324 1141.54 664.844 1141.93 664.119L1149.89 648.992C1150.27 648.267 1150.84 647.788 1151.59 647.556C1152.34 647.323 1153.08 647.397 1153.8 647.779L1160.15 651.12C1160.87 651.502 1161.35 652.068 1161.58 652.819C1161.82 653.57 1161.74 654.307 1161.36 655.032L1153.39 670.162C1153.01 670.887 1152.94 671.625 1153.17 672.373C1153.4 673.122 1153.88 673.688 1154.6 674.07L1165.34 679.724C1166.19 680.172 1167.1 680.246 1168.06 679.947C1169.03 679.647 1169.74 679.073 1170.18 678.223Z" fill="white" fill-opacity="0.5"/>
<path fill-rule="evenodd" clip-rule="evenodd" d="M1111.45 718.339C1112.69 717.095 1114.38 716.397 1116.14 716.397C1117.9 716.397 1119.59 717.095 1120.83 718.339C1122.96 720.469 1124.05 724.301 1123.29 727.046C1122.95 728.265 1122.72 729.728 1122.85 731.205C1122.98 732.694 1123.5 734.37 1124.84 735.705L1146.21 757.08C1147.55 758.415 1149.23 758.936 1150.71 759.068C1152.12 759.166 1153.53 759.018 1154.88 758.629C1157.62 757.871 1161.45 758.959 1163.58 761.089C1164.22 761.699 1164.73 762.431 1165.08 763.242C1165.44 764.053 1165.63 764.926 1165.64 765.811C1165.65 766.696 1165.48 767.574 1165.15 768.393C1164.82 769.213 1164.32 769.957 1163.7 770.583C1163.07 771.209 1162.33 771.704 1161.51 772.038C1160.69 772.371 1159.81 772.538 1158.93 772.528C1158.04 772.517 1157.17 772.33 1156.36 771.977C1155.55 771.624 1154.81 771.112 1154.2 770.471C1153.94 770.21 1153.63 770.002 1153.29 769.861C1152.95 769.719 1152.58 769.646 1152.21 769.645C1151.84 769.645 1151.48 769.718 1151.14 769.859C1150.8 770 1150.49 770.207 1150.22 770.468C1149.96 770.729 1149.75 771.039 1149.61 771.38C1149.47 771.721 1149.4 772.087 1149.4 772.456C1149.4 772.826 1149.47 773.192 1149.61 773.533C1149.75 773.875 1149.96 774.185 1150.22 774.446C1150.85 775.059 1151.35 775.791 1151.7 776.599C1152.04 777.408 1152.22 778.277 1152.23 779.155C1152.24 780.034 1152.07 780.906 1151.73 781.719C1151.4 782.532 1150.91 783.271 1150.29 783.893C1149.67 784.515 1148.93 785.006 1148.11 785.34C1147.3 785.674 1146.43 785.843 1145.55 785.837C1144.67 785.831 1143.8 785.65 1142.99 785.305C1142.19 784.961 1141.45 784.459 1140.84 783.829C1138.71 781.699 1137.62 777.866 1138.38 775.121C1138.77 773.771 1138.92 772.364 1138.82 770.963C1138.69 769.474 1138.17 767.798 1136.83 766.463L1115.46 745.088C1114.12 743.753 1112.45 743.231 1110.96 743.1C1109.55 743.001 1108.15 743.15 1106.79 743.539C1104.05 744.296 1100.22 743.209 1098.09 741.079C1096.94 739.817 1096.32 738.161 1096.36 736.454C1096.4 734.747 1097.1 733.121 1098.3 731.913C1099.51 730.706 1101.14 730.01 1102.84 729.97C1104.55 729.93 1106.21 730.55 1107.47 731.7C1108 732.228 1108.71 732.525 1109.46 732.525C1110.21 732.526 1110.92 732.23 1111.45 731.702C1111.98 731.174 1112.28 730.459 1112.28 729.712C1112.28 728.966 1111.98 728.249 1111.45 727.721C1110.21 726.477 1109.51 724.789 1109.51 723.03C1109.51 721.271 1110.21 719.583 1111.45 718.339ZM1103.94 724.185C1103.71 721.674 1104.25 719.151 1105.5 716.96C1106.75 714.769 1108.65 713.018 1110.93 711.943C1113.21 710.869 1115.77 710.525 1118.25 710.957C1120.74 711.39 1123.03 712.578 1124.81 714.36C1128.26 717.81 1130.06 723.694 1128.71 728.546C1128.5 729.334 1128.4 730.099 1128.46 730.71C1128.51 731.31 1128.68 731.588 1128.82 731.73L1150.2 753.105C1150.34 753.244 1150.61 753.413 1151.21 753.465C1151.94 753.505 1152.68 753.419 1153.38 753.21C1158.23 751.868 1164.12 753.664 1167.56 757.11C1169.35 758.895 1170.53 761.186 1170.97 763.671C1171.4 766.156 1171.05 768.714 1169.98 770.996C1168.91 773.279 1167.15 775.174 1164.96 776.424C1162.77 777.674 1160.25 778.219 1157.74 777.983C1157.98 780.495 1157.43 783.019 1156.18 785.211C1154.93 787.403 1153.04 789.156 1150.76 790.231C1148.47 791.306 1145.91 791.65 1143.43 791.216C1140.94 790.782 1138.65 789.592 1136.87 787.808C1133.42 784.358 1131.62 778.474 1132.97 773.621C1133.17 772.92 1133.26 772.188 1133.22 771.458C1133.17 770.858 1133 770.58 1132.86 770.438L1111.48 749.063C1111.34 748.924 1111.07 748.755 1110.47 748.703C1109.85 748.646 1109.09 748.74 1108.3 748.958C1103.45 750.3 1097.56 748.504 1094.12 745.058C1092.34 743.274 1091.15 740.983 1090.71 738.497C1090.28 736.012 1090.62 733.453 1091.7 731.17C1092.77 728.887 1094.52 726.992 1096.71 725.741C1098.91 724.491 1101.43 723.948 1103.94 724.185Z" fill="white" fill-opacity="0.5"/>
<g clip-path="url(#clip10_225_285)">
<path fill-rule="evenodd" clip-rule="evenodd" d="M1254.03 696.892L1254.48 698.607L1245.14 707.229C1244.55 707.781 1244.16 708.527 1244.06 709.334C1243.97 710.141 1244.16 710.957 1244.6 711.637L1248.6 717.731C1248.99 718.334 1249.57 718.796 1250.24 719.054C1250.92 719.312 1251.65 719.351 1252.35 719.167L1257.01 717.938L1258.69 721.523L1247.09 742.365L1246.61 741.809C1246.19 741.31 1245.79 740.787 1245.43 740.243C1244.94 739.487 1244.18 738.953 1243.3 738.755C1242.42 738.557 1241.5 738.712 1240.73 739.186C1239.97 739.66 1239.42 740.416 1239.21 741.29C1238.99 742.164 1239.13 743.088 1239.59 743.862L1241.33 746.207C1242.45 747.544 1244.12 749.331 1246.42 751.237C1251.04 755.06 1258.16 759.348 1268.31 761.457C1278.46 763.566 1286.7 762.471 1292.46 760.804C1294.76 760.148 1296.99 759.282 1299.13 758.219C1299.74 757.912 1301.74 756.719 1301.67 756.763C1302.36 756.282 1302.85 755.564 1303.05 754.744C1303.25 753.924 1303.14 753.059 1302.74 752.316C1302.34 751.572 1301.68 751.001 1300.89 750.712C1300.1 750.422 1299.23 750.434 1298.44 750.745L1298.58 732.697C1300 734.708 1301.37 737.646 1302.54 742.066C1302.65 742.514 1302.84 742.937 1303.11 743.309C1303.38 743.681 1303.72 743.995 1304.12 744.233C1304.51 744.47 1304.95 744.626 1305.4 744.691C1305.86 744.756 1306.32 744.729 1306.77 744.611C1307.21 744.493 1307.63 744.287 1307.99 744.005C1308.36 743.724 1308.66 743.372 1308.88 742.97C1309.11 742.569 1309.25 742.127 1309.3 741.669C1309.35 741.212 1309.31 740.749 1309.18 740.308C1307.11 732.462 1304.15 727.622 1300.34 724.621C1297.16 722.103 1293.67 721.143 1290.69 720.488L1278.27 717.907C1278.14 716.818 1277.97 715.736 1277.75 714.662C1277.04 711.167 1275.6 706.502 1272.63 701.971C1269.54 697.262 1265.85 694.867 1262.79 693.682C1261.57 693.208 1260.3 692.876 1259 692.692C1258.61 692.64 1257.44 692.569 1257.21 692.58C1256.69 692.601 1256.19 692.738 1255.74 692.979C1255.28 693.22 1254.89 693.56 1254.58 693.974C1254.28 694.387 1254.07 694.864 1253.97 695.369C1253.88 695.875 1253.9 696.395 1254.03 696.892ZM1279.42 755.746L1277.88 745.9L1269.09 744.072L1263.45 752.993C1265.36 753.667 1267.44 754.258 1269.71 754.728C1273.24 755.462 1276.48 755.749 1279.41 755.744L1279.42 755.746Z" fill="white" fill-opacity="0.5"/>
</g>
<g clip-path="url(#clip11_225_285)">
<path d="M1177.19 488.958C1176.76 488.291 1176.63 487.59 1176.78 486.854C1176.93 486.119 1177.31 485.554 1177.94 485.161C1178.27 484.95 1178.63 484.799 1179.01 484.706C1179.39 484.613 1179.79 484.579 1180.21 484.602C1180.96 484.594 1181.69 484.544 1182.39 484.452C1183.09 484.36 1183.75 484.117 1184.38 483.723C1185.75 482.854 1186.62 481.621 1186.98 480.024C1187.35 478.426 1187.09 476.938 1186.22 475.562C1185.35 474.185 1184.12 473.316 1182.53 472.955C1180.93 472.594 1179.44 472.848 1178.06 473.714C1177.44 474.109 1176.9 474.595 1176.45 475.172C1175.99 475.748 1175.67 476.39 1175.47 477.096C1175.35 477.463 1175.16 477.804 1174.89 478.119C1174.63 478.435 1174.33 478.697 1173.99 478.906C1173.37 479.3 1172.69 479.406 1171.96 479.223C1171.24 479.04 1170.66 478.616 1170.24 477.949L1164.24 468.442C1163.79 467.733 1163.66 466.987 1163.84 466.206C1164.02 465.424 1164.46 464.809 1165.17 464.361L1174.55 458.442C1173.95 457.948 1173.39 457.421 1172.9 456.861C1172.4 456.3 1171.95 455.708 1171.55 455.083C1169.58 451.956 1169 448.607 1169.81 445.037C1170.62 441.467 1172.59 438.695 1175.71 436.721C1178.84 434.748 1182.19 434.165 1185.76 434.974C1189.33 435.783 1192.11 437.751 1194.07 440.877C1194.47 441.503 1194.81 442.161 1195.1 442.852C1195.39 443.542 1195.63 444.267 1195.82 445.025L1205.2 439.106C1205.91 438.659 1206.65 438.524 1207.44 438.701C1208.22 438.878 1208.83 439.321 1209.28 440.029L1215.28 449.537C1215.72 450.246 1215.86 450.992 1215.68 451.776C1215.5 452.559 1215.06 453.173 1214.35 453.618C1214.02 453.828 1213.68 453.939 1213.34 453.95C1213 453.961 1212.63 453.942 1212.25 453.893C1211.53 453.765 1210.81 453.781 1210.1 453.941C1209.38 454.101 1208.71 454.378 1208.09 454.773C1206.71 455.641 1205.84 456.875 1205.48 458.474C1205.12 460.074 1205.37 461.561 1206.24 462.934C1207.11 464.307 1208.34 465.176 1209.94 465.541C1211.54 465.906 1213.03 465.653 1214.4 464.781C1215.03 464.386 1215.56 463.901 1216.02 463.324C1216.47 462.747 1216.79 462.106 1216.99 461.399C1217.07 461.059 1217.19 460.73 1217.37 460.412C1217.55 460.093 1217.81 459.83 1218.14 459.623C1218.85 459.175 1219.6 459.04 1220.38 459.218C1221.16 459.395 1221.78 459.838 1222.22 460.546L1228.22 470.054C1228.67 470.763 1228.8 471.509 1228.63 472.292C1228.45 473.076 1228 473.69 1227.3 474.134L1187.26 499.39C1186.56 499.837 1185.81 499.971 1185.03 499.793C1184.25 499.615 1183.63 499.172 1183.18 498.466L1177.19 488.958ZM1186.61 492.807L1221.64 470.709L1219.82 467.831C1219.48 468.22 1219.14 468.571 1218.78 468.884C1218.42 469.198 1218.02 469.498 1217.56 469.785C1214.8 471.521 1211.83 472.028 1208.63 471.304C1205.44 470.581 1202.97 468.843 1201.24 466.091C1199.5 463.339 1198.99 460.364 1199.72 457.168C1200.44 453.971 1202.18 451.505 1204.93 449.769C1205.39 449.479 1205.84 449.241 1206.27 449.054C1206.71 448.867 1207.18 448.704 1207.67 448.566L1205.85 445.688L1194.47 452.87C1193.76 453.318 1193.02 453.463 1192.25 453.306C1191.49 453.149 1190.89 452.738 1190.47 452.072C1190.26 451.738 1190.09 451.361 1189.97 450.939C1189.85 450.517 1189.87 450.112 1190.03 449.722C1190.43 448.774 1190.5 447.808 1190.26 446.822C1190.02 445.837 1189.62 444.907 1189.07 444.034C1187.96 442.283 1186.43 441.184 1184.45 440.738C1182.48 440.291 1180.62 440.62 1178.87 441.725C1177.12 442.83 1176.02 444.369 1175.57 446.341C1175.12 448.313 1175.45 450.175 1176.56 451.927C1177.11 452.802 1177.78 453.561 1178.57 454.204C1179.35 454.846 1180.25 455.194 1181.28 455.246C1181.7 455.271 1182.06 455.407 1182.37 455.654C1182.67 455.901 1182.92 456.191 1183.13 456.524C1183.58 457.233 1183.71 457.979 1183.54 458.763C1183.36 459.546 1182.92 460.16 1182.21 460.605L1170.82 467.787L1172.64 470.664C1172.98 470.276 1173.33 469.926 1173.68 469.614C1174.04 469.301 1174.45 469 1174.91 468.71C1177.66 466.974 1180.63 466.468 1183.83 467.191C1187.02 467.915 1189.49 469.652 1191.23 472.405C1192.96 475.157 1193.47 478.131 1192.75 481.328C1192.02 484.524 1190.28 486.99 1187.53 488.727C1187.07 489.016 1186.63 489.254 1186.19 489.441C1185.75 489.628 1185.29 489.791 1184.79 489.93L1186.61 492.807Z" fill="white" fill-opacity="0.5"/>
</g>
<path d="M231.53 512.031C231.53 511.539 231.668 511.095 231.944 510.699C232.218 510.301 232.596 510.102 233.078 510.102C233.324 510.102 233.557 510.136 233.777 510.204C233.997 510.272 234.206 510.373 234.404 510.507C234.9 510.753 235.406 510.93 235.922 511.038C236.436 511.146 236.972 511.2 237.53 511.2C239.872 511.2 241.842 510.381 243.44 508.743C245.038 507.105 245.838 505.116 245.84 502.776C245.84 500.472 245.03 498.531 243.41 496.953C241.794 495.373 239.834 494.583 237.53 494.583C237.05 494.583 236.575 494.631 236.105 494.727C235.635 494.823 235.183 494.967 234.749 495.159C234.489 495.255 234.216 495.328 233.93 495.378C233.646 495.426 233.362 495.45 233.078 495.45C232.596 495.45 232.218 495.27 231.944 494.91C231.668 494.554 231.53 494.131 231.53 493.641V487.083C231.53 486.463 231.76 485.923 232.22 485.463C232.68 485.003 233.22 484.774 233.84 484.776H246.935C247.243 484.776 247.435 484.622 247.511 484.314C247.587 484.006 247.472 483.698 247.166 483.39C246.454 482.564 245.92 481.622 245.564 480.564C245.208 479.506 245.03 478.41 245.03 477.276C245.03 474.334 246.045 471.849 248.075 469.821C250.103 467.791 252.588 466.776 255.53 466.776C258.472 466.776 260.958 467.791 262.988 469.821C265.018 471.851 266.032 474.336 266.03 477.276C266.03 478.41 265.852 479.506 265.496 480.564C265.14 481.622 264.607 482.565 263.897 483.393C263.589 483.699 263.473 484.006 263.549 484.314C263.625 484.622 263.817 484.776 264.125 484.776H277.223C277.843 484.776 278.383 485.006 278.843 485.466C279.303 485.926 279.532 486.466 279.53 487.086V492.366C279.53 493.102 279.435 493.806 279.245 494.478C279.053 495.148 278.609 495.483 277.913 495.483C277.591 495.483 277.28 495.463 276.98 495.423C276.68 495.383 276.38 495.295 276.08 495.159C275.684 494.967 275.271 494.823 274.841 494.727C274.409 494.631 273.972 494.583 273.53 494.583C271.226 494.583 269.266 495.373 267.65 496.953C266.03 498.531 265.22 500.472 265.22 502.776C265.22 505.118 266.02 507.108 267.62 508.746C269.22 510.384 271.19 511.202 273.53 511.2C274.05 511.2 274.573 511.151 275.099 511.053C275.627 510.957 276.107 510.775 276.539 510.507C276.753 510.371 276.965 510.264 277.175 510.186C277.383 510.106 277.63 510.066 277.916 510.066C278.42 510.066 278.815 510.268 279.101 510.672C279.387 511.076 279.53 511.528 279.53 512.028V518.469C279.53 519.089 279.3 519.629 278.84 520.089C278.38 520.549 277.84 520.778 277.22 520.776H233.84C233.22 520.776 232.68 520.546 232.22 520.086C231.76 519.626 231.53 519.086 231.53 518.466V512.031Z" fill="white" fill-opacity="0.5"/>
<circle cx="233.03" cy="641.276" r="22.5" fill="#FAE24C"/>
<circle cx="1104.53" cy="453.776" r="12" fill="#FAE24C"/>
<circle cx="93.5296" cy="269.776" r="12" fill="#FAE24C"/>
<path d="M298.821 365.998L294.048 400.309L266.72 379.021L298.821 365.998Z" fill="#2A77BD"/>
<path d="M1381.89 254.066L1377.12 288.377L1349.79 267.089L1381.89 254.066Z" fill="#2A77BD"/>
<path d="M78.3889 546.066L73.6166 580.377L46.2888 559.089L78.3889 546.066Z" fill="#2A77BD"/>
<path d="M1210.89 551.066L1206.12 585.377L1178.79 564.089L1210.89 551.066Z" fill="#2A77BD"/>
<rect x="169.53" y="465.776" width="26" height="26" fill="#F0945B"/>
<rect x="1356.53" y="545.776" width="26" height="26" fill="#F0945B"/>
<rect x="241.53" y="764.776" width="26" height="26" fill="#F0945B"/>
<rect x="1036.53" y="633.776" width="26" height="26" fill="#F0945B"/>
</g>
<defs>
<clipPath id="clip0_225_285">
<rect width="1440" height="1300" fill="white"/>
</clipPath>
<clipPath id="clip1_225_285">
<rect width="68" height="68" fill="white" transform="translate(394.404 365.776) rotate(58.3314)"/>
</clipPath>
<clipPath id="clip2_225_285">
<rect width="76.2735" height="76.2735" fill="white" transform="translate(129.53 759.308) rotate(-36.6524)"/>
</clipPath>
<clipPath id="clip3_225_285">
<rect width="69" height="69" fill="white" transform="translate(42.5296 160.776)"/>
</clipPath>
<clipPath id="clip4_225_285">
<rect width="60" height="60" fill="white" transform="translate(124.53 567.065) rotate(-37.2163)"/>
</clipPath>
<clipPath id="clip5_225_285">
<rect width="60" height="60" fill="white" transform="translate(294.831 264.473) rotate(41.3051)"/>
</clipPath>
<clipPath id="clip6_225_285">
<rect width="60" height="60" fill="white" transform="matrix(-0.751205 0.660069 0.660069 0.751205 1150.8 268.473)"/>
</clipPath>
<clipPath id="clip7_225_285">
<rect width="68" height="68" fill="white" transform="matrix(-0.525005 0.851099 0.851099 0.525005 1084.23 344.776)"/>
</clipPath>
<clipPath id="clip8_225_285">
<rect width="76.2735" height="76.2735" fill="white" transform="matrix(-0.802272 -0.596958 -0.596958 0.802272 1322.1 569.308)"/>
</clipPath>
<clipPath id="clip9_225_285">
<rect width="92.7364" height="92.7364" fill="white" transform="matrix(-0.796358 -0.604826 -0.604826 0.796358 1406.47 630.865)"/>
</clipPath>
<clipPath id="clip10_225_285">
<rect width="82.4583" height="82.4583" fill="white" transform="translate(1244.31 682.776) rotate(11.74)"/>
</clipPath>
<clipPath id="clip11_225_285">
<rect width="71" height="71" fill="white" transform="translate(1142.53 450.659) rotate(-32.2466)"/>
</clipPath>
</defs>
</svg>
