<svg width="176" height="219" viewBox="0 0 176 219" fill="none" xmlns="http://www.w3.org/2000/svg">
<path d="M57.1801 20.7868C57.1801 20.7868 59.7709 14.9471 65.6994 13.8219C71.5797 12.7059 75.9803 17.3735 75.9803 17.3735C75.9803 17.3735 82.7119 14.0972 86.9117 15.2989C91.9496 16.7403 94.5898 22.8324 94.5898 22.8324C94.5898 22.8324 99.2401 20.5955 104.209 23.7193C109.796 27.2319 108.327 34.7185 108.327 34.7185C108.327 34.7185 112.39 35.9226 114.296 37.7712C116.32 39.735 117.684 44.1036 117.684 44.1036C117.684 44.1036 121.686 42.9664 126.083 45.1446C129.704 46.9383 130.879 49.4274 130.879 49.4274C130.879 49.4274 137.742 45.2572 144.395 50.2722C149.226 53.9131 150.013 56.2402 148.781 60.2132C148.187 62.1295 145.344 63.5007 145.344 63.5007C145.344 63.5007 151.778 70.6503 145.491 77.036C142.451 80.1248 134.56 79.1106 134.56 79.1106C134.56 79.1106 129.996 84.6274 125.611 85.4595C121.616 86.2178 116.553 84.2335 116.553 84.2335C116.452 87.8179 116.595 90.2447 114.694 92.9569C113.52 94.6318 110.267 95.9672 110.267 95.9672C110.267 95.9672 123.322 104.263 123.368 120.143C123.383 125.181 121.02 129.579 121.02 129.579C127.764 135.895 128.63 140.458 129.425 144.647C133.588 141.067 136.535 138.624 141.05 138.411C144.534 138.246 153.825 141.772 153.73 148.018C153.672 151.826 151.633 154.308 148.835 155.147C146.036 155.986 142.213 154.001 142.213 154.001C142.213 154.001 140.089 157.45 137.833 158.087C136.054 158.59 132.937 157.389 131.583 156.018C130.242 170.766 124.042 177.601 124.042 177.601C124.042 177.601 127.647 187.587 126.91 192.713C126.062 198.605 117.776 203.437 117.776 203.437L110.765 204.768C110.765 204.768 101.643 206.499 99.9958 197.821C99.4278 194.829 102.484 192.001 102.484 192.001C102.484 192.001 95.8765 187.465 94.2727 183.716C92.4593 179.477 93.9587 174.243 92.5517 170.944C91.8399 169.276 82.5046 170.604 78.1227 177.636C72.9739 185.898 68.0237 194.246 63.9572 195.593C60.6503 196.687 56.8848 197.624 51.303 194.351C45.7213 191.079 43.8103 186.938 46.2409 181.671C48.6716 176.404 54.1057 175.373 54.1057 175.373C54.1057 175.373 54.5196 170.731 56.4642 166.4C57.6435 163.774 61.6468 159.139 61.6468 159.139C61.6468 159.139 58.2464 156.032 56.3351 152.551C54.4238 149.07 52.6922 140.764 52.6922 140.764C52.6922 140.764 43.638 142.758 39.1005 139.934C34.3646 136.986 31.5036 127.889 31.5036 127.889C31.5036 127.889 25.3579 127.196 22.9317 122.231C19.4639 122.889 16.4356 119.278 17.2794 113.848C18.1284 108.383 21.6637 105.893 27.1021 104.698C31.6011 103.71 39.4307 105.459 44.4979 112.402C46.9553 109.301 46.9837 109.45 48.7431 105.551C40.2759 100.8 39.1671 97.8323 36.8438 91.6144L36.7614 91.3939C30.4517 91.8939 26.2981 91.803 23.4233 89.4301C17.7739 84.7669 21.3724 76.5659 21.3724 76.5659C21.3724 76.5659 16.8136 69.6555 19.5486 64.8987C22.5499 59.6788 27.7433 58.6931 27.7433 58.6931C27.7433 58.6931 27.6763 54.0696 29.4483 51.6266C30.9851 49.5078 34.6143 47.1584 34.6143 47.1584C34.6143 47.1584 31.5291 41.3768 34.6992 35.6715C37.2026 31.1661 43.5637 30.1138 43.5637 30.1138C43.5637 30.1138 42.2669 23.281 48.08 20.5761C51.1032 19.1694 57.1801 20.7868 57.1801 20.7868Z" fill="white"/>
<path d="M116.553 84.2335C116.553 84.2335 121.616 86.2178 125.611 85.4595C129.996 84.6274 134.56 79.1106 134.56 79.1106C134.56 79.1106 142.451 80.1248 145.491 77.036C151.778 70.6503 145.344 63.5007 145.344 63.5007C145.344 63.5007 148.187 62.1295 148.781 60.2132C150.013 56.2402 149.226 53.9131 144.395 50.2722C137.742 45.2572 130.879 49.4274 130.879 49.4274C130.879 49.4274 129.704 46.9383 126.083 45.1446C121.686 42.9664 117.684 44.1036 117.684 44.1036C117.684 44.1036 116.32 39.735 114.296 37.7712C112.39 35.9226 108.327 34.7185 108.327 34.7185C108.327 34.7185 109.796 27.2319 104.209 23.7193C99.2401 20.5955 94.5898 22.8324 94.5898 22.8324C94.5898 22.8324 91.9496 16.7403 86.9117 15.2989C82.7119 14.0972 75.9803 17.3735 75.9803 17.3735C75.9803 17.3735 71.5797 12.7059 65.6994 13.8219C59.7709 14.9471 57.1801 20.7868 57.1801 20.7868C57.1801 20.7868 51.1032 19.1694 48.08 20.5761C42.2669 23.281 43.5637 30.1138 43.5637 30.1138C43.5637 30.1138 37.2026 31.1661 34.6992 35.6715C31.5291 41.3768 34.6143 47.1584 34.6143 47.1584C34.6143 47.1584 30.9851 49.5078 29.4483 51.6266C27.6763 54.0696 27.7433 58.6931 27.7433 58.6931C27.7433 58.6931 22.5499 59.6788 19.5486 64.8987C16.8136 69.6555 21.3724 76.5659 21.3724 76.5659C21.3724 76.5659 17.7739 84.7669 23.4233 89.4301C26.2981 91.803 30.4517 91.8939 36.7614 91.3939M116.553 84.2335C112.475 81.6748 110.475 73.6061 110.475 73.6061C110.475 73.6061 106.519 74.2022 102.647 67.3415C99.2881 61.3911 102.157 56.1186 102.157 56.1186M116.553 84.2335C116.452 87.8179 116.595 90.2447 114.694 92.9569C113.52 94.6317 110.267 95.9672 110.267 95.9672C110.267 95.9672 123.322 104.263 123.368 120.143C123.383 125.181 121.02 129.579 121.02 129.579M72.5535 138.002C81.6799 141.231 86.3494 135.384 86.3494 135.384C86.3494 135.384 97.039 142.733 108.987 138.606C113.783 136.948 120.092 134.535 121.02 129.579M72.5535 138.002C69.9251 136.101 66.8117 134.665 67.0908 131.443C67.8008 123.248 73.1923 115.45 82.1751 113.389C87.6627 112.131 96.4134 115.57 96.4134 115.57C96.4134 115.57 98.5495 112.504 98.6853 110.256M72.5535 138.002C72.7449 135.718 72.9701 134.435 74.1794 132.578M121.02 129.579C127.764 135.895 128.63 140.458 129.425 144.647M129.425 144.647C130.39 149.731 130.618 150.935 131.583 156.018M129.425 144.647C133.588 141.067 136.535 138.624 141.05 138.411C144.534 138.246 153.825 141.772 153.73 148.018C153.672 151.826 151.633 154.308 148.835 155.147C146.036 155.986 142.213 154.001 142.213 154.001C142.213 154.001 140.089 157.45 137.833 158.087C136.054 158.59 132.937 157.389 131.583 156.018M131.583 156.018C130.242 170.766 124.042 177.601 124.042 177.601C124.042 177.601 127.647 187.587 126.91 192.713C126.062 198.605 117.776 203.437 117.776 203.437L110.765 204.768M110.765 204.768C110.765 204.768 101.643 206.499 99.9958 197.821C99.4278 194.829 102.484 192.001 102.484 192.001C102.484 192.001 95.8765 187.465 94.2727 183.716C92.4593 179.477 93.9587 174.243 92.5517 170.944C91.8399 169.276 82.5046 170.604 78.1227 177.636C72.9739 185.898 68.0237 194.246 63.9572 195.593C60.6503 196.687 56.8848 197.624 51.303 194.351M110.765 204.768C110.765 204.768 109.948 202.52 110.243 200.371M51.303 194.351C45.7213 191.079 43.8103 186.938 46.2409 181.671C48.6716 176.404 54.1057 175.373 54.1057 175.373C54.1057 175.373 54.5196 170.731 56.4642 166.4C57.6435 163.774 61.6468 159.139 61.6468 159.139C61.6468 159.139 58.2464 156.032 56.3351 152.551C54.4238 149.07 52.6922 140.764 52.6922 140.764C52.6922 140.764 43.638 142.758 39.1005 139.934C34.3646 136.986 31.5036 127.889 31.5036 127.889C31.5036 127.889 25.3579 127.196 22.9317 122.231M51.303 194.351L53.5806 189.889M22.9317 122.231C19.4639 122.889 16.4356 119.278 17.2794 113.848C18.1284 108.383 21.6637 105.893 27.1021 104.698C31.6011 103.71 39.4307 105.459 44.4979 112.402M22.9317 122.231C22.3354 119.089 24.5097 115.731 24.5097 115.731M48.5902 115.036C47.5767 114.221 46.2098 113.226 44.4979 112.402M44.4979 112.402C46.9553 109.301 46.9837 109.45 48.7431 105.551M48.7431 105.551C51.0855 105.959 53.0226 106.289 55.2326 106.412M48.7431 105.551C40.1765 100.744 39.142 97.7628 36.7614 91.3939M36.7614 91.3939C34.5833 84.4443 39.919 74.286 39.919 74.286C40.6763 72.5147 40.7727 69.3187 40.361 67.1492M50.9249 70.9571C50.9249 70.9571 52.5567 67.3695 54.6399 67.0743C56.4679 66.8153 58.9205 69.0521 58.9205 69.0521M77.6943 67.9692C77.6943 67.9692 79.4796 65.9045 81.0618 65.5475C83.6823 64.9562 87.1342 68.7353 87.1342 68.7353M64.6445 84.3969L65.4788 90.439M65.4788 90.439C65.4788 90.439 69.6786 91.248 72.3696 91.7663M65.4788 90.439C65.4788 90.439 62.8751 92.0196 61.2067 93.0324M72.3696 91.7663C75.217 89.8941 76.8134 88.8445 79.6608 86.9723M72.3696 91.7663C74.7294 95.2813 71.8285 101.183 67.5802 101.511C63.4248 101.831 59.7187 96.901 61.2067 93.0324M61.2067 93.0324C58.4543 91.7084 56.9111 90.9662 54.1587 89.6422M137.636 123.712C137.636 123.712 139.148 116.275 138.163 111.677C137.088 106.655 131.976 100.063 131.976 100.063M146.628 106.892C146.989 111.848 147.191 114.627 147.552 119.583" stroke="black" stroke-width="5" stroke-linecap="round" stroke-linejoin="round"/>
<path d="M58.4875 80.7601C57.9718 77.7892 60.2786 75.3823 63.6853 74.8132C67.092 74.2442 71.8872 77.1334 71.0839 80.4621C70.5155 82.8173 67.7466 83.3428 64.7106 83.919C61.4688 84.5343 59.0094 83.7667 58.4875 80.7601Z" fill="black"/>
</svg>
