<svg width="16" height="16" viewBox="0 0 16 16" fill="none" xmlns="http://www.w3.org/2000/svg">
<path d="M9.9875 8.2625C10.0625 8.1875 10.1 8.1 10.1 8C10.1 7.9 10.0625 7.8125 9.9875 7.7375L7.8875 5.6375C7.7625 5.5125 7.625 5.48125 7.475 5.54375C7.325 5.60625 7.25 5.725 7.25 5.9L7.25 10.1C7.25 10.275 7.325 10.3937 7.475 10.4562C7.625 10.5187 7.7625 10.4875 7.8875 10.3625L9.9875 8.2625ZM15.5 8C15.5 9.0375 15.303 10.0125 14.909 10.925C14.515 11.8375 13.9808 12.6312 13.3063 13.3062C12.6318 13.9812 11.838 14.5155 10.925 14.909C10.012 15.3025 9.037 15.4995 8 15.5C6.963 15.5005 5.988 15.3035 5.075 14.909C4.162 14.5145 3.36825 13.9802 2.69375 13.3062C2.01925 12.6322 1.485 11.8385 1.091 10.925C0.697 10.0115 0.5 9.0365 0.5 8C0.5 6.9635 0.697 5.9885 1.091 5.075C1.485 4.1615 2.01925 3.36775 2.69375 2.69375C3.36825 2.01975 4.162 1.48525 5.075 1.09025C5.988 0.69525 6.963 0.498499 8 0.499998C9.037 0.501498 10.012 0.698499 10.925 1.091C11.838 1.4835 12.6318 2.01775 13.3063 2.69375C13.9808 3.36975 14.5152 4.1635 14.9097 5.075C15.3042 5.9865 15.501 6.9615 15.5 8ZM14 8C14 6.325 13.4187 4.90625 12.2562 3.74375C11.0937 2.58125 9.675 2 8 2C6.325 2 4.90625 2.58125 3.74375 3.74375C2.58125 4.90625 2 6.325 2 8C2 9.675 2.58125 11.0937 3.74375 12.2562C4.90625 13.4187 6.325 14 8 14C9.675 14 11.0937 13.4187 12.2562 12.2562C13.4187 11.0937 14 9.675 14 8Z" fill="#2A77BD"/>
</svg>
