<svg width="623" height="480" viewBox="0 0 623 480" fill="none" xmlns="http://www.w3.org/2000/svg">
<g clip-path="url(#clip0_396_168)">
<path d="M310.617 10.4932C200.117 10.4932 182.117 51.6172 159.117 57.9932C146.838 61.397 141.617 58.5091 130.117 63.9932C104.5 76.2084 97.1165 103.993 82.6165 118.993C70.1843 131.854 62.3273 144.054 51.1165 157.993C37.2537 175.229 33.1165 179.993 18.6165 195.493C9.14551 205.617 5.27224 239.234 18.6165 242.993C22.3755 244.052 28.1165 233.993 28.1165 233.993C28.1165 242.993 25.8518 258.054 31.6166 270.493C36.4278 280.875 41.1426 285.787 49.1166 293.993C55.9812 301.058 63.2505 301.732 68.6166 309.993C74.5245 319.088 70.9664 326.973 75.1166 336.993C79.0378 346.46 79.2804 355.269 88.6166 359.493C101.346 365.252 108.12 349.741 120.617 343.493C122.179 351.303 124.614 355.528 124.617 363.493C124.621 378.143 121.984 381.135 114.117 393.493C107.141 404.451 97.1166 412.093 94.1166 414.493C91.6166 416.493 84.5553 427.201 86.1166 430.993C89.9082 440.201 114.117 433.493 114.117 433.493C114.117 433.493 100.617 460.993 88.6166 484.993C83.1166 495.993 74.9401 518.493 74.6166 523.993C74.1166 532.493 76.8434 537.975 80.1166 537.993C84.6166 538.018 92.6166 535.493 96.1166 529.493C99.6166 523.493 70.1165 601.493 72.6165 640.493L548.617 638.993C551.617 601.493 533.617 559.493 533.617 559.493L552.117 562.493C552.117 562.493 559.617 552.493 542.617 508.993C532.913 484.163 510.117 448.993 510.117 448.993L525.117 450.493C525.117 450.493 538.617 451.993 538.617 438.493C538.617 424.993 490.617 408.993 498.617 337.993C498.617 337.993 522.117 360.197 531.617 358.493C557.617 353.83 540.842 318.767 557.617 301.993C566.004 293.606 575.486 290.574 583.117 281.493C588.009 275.67 589.795 273.235 592.117 265.993C595.692 254.836 592.117 235.993 592.117 235.993C592.117 235.993 600.253 241.204 605.617 239.993C611.01 238.775 612.617 228.993 612.617 228.993C612.617 228.993 614.117 198.493 588.617 175.993C570.972 160.425 562.278 148.898 547.617 130.493C524.117 100.993 497.117 62.9932 479.117 57.9932C471.215 55.7982 458.617 54.4932 458.617 54.4932C458.617 54.4932 421.117 10.4932 310.617 10.4932Z" fill="white"/>
<path d="M498.617 337.993C498.617 337.993 522.117 360.197 531.617 358.493C557.617 353.83 540.842 318.767 557.617 301.993C566.004 293.606 575.486 290.574 583.117 281.493C588.009 275.67 589.795 273.235 592.117 265.993C595.692 254.836 592.117 235.993 592.117 235.993C592.117 235.993 600.253 241.204 605.617 239.993C611.01 238.775 612.617 228.993 612.617 228.993C612.617 228.993 614.117 198.493 588.617 175.993C570.972 160.425 562.278 148.898 547.617 130.493C524.117 100.993 497.117 62.9932 479.117 57.9932C471.215 55.7982 458.617 54.4932 458.617 54.4932C458.617 54.4932 421.117 10.4932 310.617 10.4932C200.117 10.4932 182.117 51.6172 159.117 57.9932C146.838 61.397 141.617 58.5091 130.117 63.9932C104.5 76.2084 97.1165 103.993 82.6165 118.993C70.1843 131.854 62.3273 144.054 51.1165 157.993C37.2537 175.229 33.1165 179.993 18.6165 195.493C9.14551 205.617 5.27224 239.234 18.6165 242.993C22.3755 244.052 28.1165 233.993 28.1165 233.993C28.1165 242.993 25.8518 258.054 31.6166 270.493C36.4278 280.875 41.1426 285.787 49.1166 293.993C55.9812 301.058 63.2505 301.732 68.6166 309.993C74.5245 319.088 70.9664 326.973 75.1166 336.993C79.0378 346.46 79.2804 355.269 88.6166 359.493C101.346 365.252 108.12 349.741 120.617 343.493M498.617 337.993C493.783 322.66 480.617 310.33 480.617 290.493C480.617 269.993 482.45 253.66 483.617 235.993C484.783 218.326 486.448 199.491 485.617 175.993C485.033 159.485 480.617 141.493 480.617 141.493M498.617 337.993C490.617 408.993 538.617 424.993 538.617 438.493C538.617 451.993 525.117 450.493 525.117 450.493L510.117 448.993C510.117 448.993 532.913 484.163 542.617 508.993C559.617 552.493 552.117 562.493 552.117 562.493L533.617 559.493C533.617 559.493 551.617 601.493 548.617 638.993L72.6165 640.493C70.1165 601.493 99.6166 523.493 96.1166 529.493C92.6166 535.493 84.6166 538.018 80.1166 537.993C76.8434 537.975 74.1166 532.493 74.6166 523.993C74.9401 518.493 83.1166 495.993 88.6166 484.993C100.617 460.993 114.117 433.493 114.117 433.493C114.117 433.493 89.9082 440.201 86.1166 430.993C84.5553 427.201 91.6166 416.493 94.1166 414.493C97.1166 412.093 107.141 404.451 114.117 393.493C121.984 381.135 124.621 378.143 124.617 363.493C124.614 355.528 122.179 351.303 120.617 343.493M120.617 343.493C131.892 323.746 136.583 311.276 141.117 288.993C148.329 253.543 133.031 232.537 136.117 196.493C138.302 170.965 143.43 157.182 148.117 131.993M246.117 467.993C246.117 467.993 227.913 489.943 223.617 506.993C221.646 514.814 215.319 521.886 221.117 527.493C226.169 532.38 232.401 529.57 239.117 527.493C246.208 525.3 254.617 516.493 254.617 516.493L243.617 562.993C243.617 562.993 242.326 584.756 252.117 587.993C263.266 591.679 272.617 565.993 272.617 565.993C272.617 565.993 274.012 584.387 276.117 595.993C278.162 607.27 280.383 613.363 283.117 624.493M403.117 519.993C403.117 519.993 408.432 545.012 403.117 559.493C399.757 568.645 399.345 579.859 389.617 580.493C381.057 581.051 373.117 565.993 373.117 565.993C373.117 565.993 362.146 601.647 355.117 624.493" stroke="black" stroke-width="20" stroke-linecap="round" stroke-linejoin="round"/>
<path d="M236.616 181.493C244.9 181.493 251.616 172.539 251.616 161.493C251.616 150.447 244.9 141.493 236.616 141.493C228.332 141.493 221.616 150.447 221.616 161.493C221.616 172.539 228.332 181.493 236.616 181.493Z" fill="black"/>
<path d="M389.616 181.493C397.9 181.493 404.616 172.539 404.616 161.493C404.616 150.447 397.9 141.493 389.616 141.493C381.332 141.493 374.616 150.447 374.616 161.493C374.616 172.539 381.332 181.493 389.616 181.493Z" fill="black"/>
</g>
<path d="M196.317 275.153C196.317 275.153 202.317 319.653 253.817 325.153C305.317 330.653 311.317 267.653 311.317 267.653C311.317 267.653 325.317 325.153 369.317 325.153C413.317 325.153 426.317 272.153 426.317 272.153" stroke="black" stroke-width="20" stroke-linecap="round" stroke-linejoin="round"/>
<path d="M338.741 192.869C323.624 188.903 296.241 191.493 285.741 192.993C275.336 194.479 262.864 199.493 259.241 208.493C256.543 215.195 255.612 218.493 258.241 226.993C260.869 235.493 284.936 270.183 311.741 269.993C337.36 269.811 363.476 236.993 365.241 226.993C367.005 216.993 365.241 214.493 362.741 208.369C360.241 202.246 348.741 195.493 338.741 192.869Z" fill="black"/>
<path d="M184.459 422.434C174.538 399.464 160.03 396.054 147.216 390.054C134.402 384.054 109.457 387.568 99.2817 390.054C94.3451 391.26 79.6054 401.249 72.4688 411.96C64.6008 423.768 56.2306 432.652 61.1033 445.495C64.533 454.534 69.4764 460.619 79.8087 463.342C87.0765 465.257 92.3217 464.917 99.2817 462.08C102.563 466.3 114.669 473.775 126.018 472.315C136.017 471.029 147.215 458.975 147.215 458.975C147.215 458.975 158.472 470.213 167.46 469.631C175.476 469.111 182.761 462.684 186.661 456.42C188.099 454.11 189.799 434.798 184.459 422.434Z" fill="white"/>
<path d="M147.215 458.975C147.215 458.975 158.472 470.213 167.46 469.631C175.476 469.111 182.761 462.684 186.661 456.42C188.099 454.11 189.799 434.798 184.459 422.434C174.538 399.464 160.03 396.054 147.216 390.054C134.402 384.054 109.457 387.568 99.2817 390.054C94.3451 391.26 79.6054 401.249 72.4688 411.96C64.6008 423.768 56.2306 432.652 61.1033 445.495C64.533 454.534 69.4764 460.619 79.8087 463.342C87.0765 465.257 92.3217 464.917 99.2817 462.08M147.215 458.975L145.7 435.582M147.215 458.975C147.215 458.975 136.017 471.029 126.018 472.315C114.669 473.775 102.563 466.3 99.2817 462.08M99.2817 462.08C100.796 455.232 103.16 444.543 103.16 444.543" stroke="black" stroke-width="15" stroke-linecap="round"/>
<path d="M425.716 425.029C435.276 403.941 457.15 390.226 473.638 391.112C490.126 391.998 502.377 391.39 512.587 393.61C517.541 394.688 530.203 405.049 537.504 414.817C545.552 425.586 554.058 433.674 549.386 445.461C546.098 453.756 541.251 459.356 530.965 461.906C523.729 463.699 518.481 463.417 511.479 460.859C508.264 464.741 496.279 471.652 484.911 470.379C474.895 469.257 463.514 458.281 463.514 458.281C463.514 458.281 452.436 468.633 443.442 468.15C435.421 467.719 428.039 461.875 424.043 456.16C422.57 454.053 420.57 436.379 425.716 425.029Z" fill="white"/>
<path d="M463.514 458.281C463.514 458.281 452.436 468.633 443.442 468.15C435.421 467.719 428.039 461.875 424.043 456.16C422.57 454.053 420.57 436.379 425.716 425.029C435.276 403.941 457.15 390.226 473.638 391.112C490.126 391.998 502.377 391.39 512.587 393.61C517.541 394.688 530.203 405.049 537.504 414.817C545.552 425.586 554.058 433.674 549.386 445.461C546.098 453.756 541.251 459.356 530.965 461.906C523.729 463.699 518.481 463.417 511.479 460.859M463.514 458.281L464.665 436.853M463.514 458.281C463.514 458.281 474.895 469.257 484.911 470.379C496.279 471.652 508.264 464.741 511.479 460.859M511.479 460.859C509.859 454.596 507.33 444.822 507.33 444.822" stroke="black" stroke-width="15" stroke-linecap="round"/>
<defs>
<clipPath id="clip0_396_168">
<rect width="623" height="444" fill="white" transform="translate(0 0.493164)"/>
</clipPath>
</defs>
</svg>
