<svg width="623" height="480" viewBox="0 0 623 480" fill="none" xmlns="http://www.w3.org/2000/svg">
<g clip-path="url(#clip0_391_159)">
<path d="M310.617 10.4966C200.117 10.4966 182.117 51.6206 159.117 57.9966C146.838 61.4004 141.617 58.5125 130.117 63.9966C104.5 76.2118 97.1165 103.997 82.6165 118.997C70.1843 131.858 62.3273 144.058 51.1165 157.997C37.2537 175.233 33.1165 179.997 18.6165 195.497C9.14551 205.621 5.27224 239.238 18.6165 242.997C22.3755 244.056 28.1165 233.997 28.1165 233.997C28.1165 242.997 25.8518 258.058 31.6166 270.497C36.4278 280.879 41.1426 285.791 49.1166 293.997C55.9812 301.062 63.2505 301.736 68.6166 309.997C74.5245 319.092 70.9664 326.977 75.1166 336.997C79.0378 346.464 79.2804 355.273 88.6166 359.497C101.346 365.256 108.12 349.745 120.617 343.497C122.179 351.307 124.614 355.532 124.617 363.497C124.621 378.147 121.984 381.139 114.117 393.497C107.141 404.455 97.1166 412.097 94.1166 414.497C91.6166 416.497 84.5553 427.205 86.1166 430.997C89.9082 440.205 114.117 433.497 114.117 433.497C114.117 433.497 100.617 460.997 88.6166 484.997C83.1166 495.997 74.9401 518.497 74.6166 523.997C74.1166 532.497 76.8434 537.979 80.1166 537.997C84.6166 538.022 92.6166 535.497 96.1166 529.497C99.6166 523.497 70.1165 601.497 72.6165 640.497L548.617 638.997C551.617 601.497 533.617 559.497 533.617 559.497L552.117 562.497C552.117 562.497 559.617 552.497 542.617 508.997C532.913 484.167 510.117 448.997 510.117 448.997L525.117 450.497C525.117 450.497 538.617 451.997 538.617 438.497C538.617 424.997 490.617 408.997 498.617 337.997C498.617 337.997 522.117 360.201 531.617 358.497C557.617 353.834 540.842 318.771 557.617 301.997C566.004 293.61 575.486 290.578 583.117 281.497C588.009 275.674 589.795 273.239 592.117 265.997C595.692 254.84 592.117 235.997 592.117 235.997C592.117 235.997 600.253 241.208 605.617 239.997C611.01 238.779 612.617 228.997 612.617 228.997C612.617 228.997 614.117 198.497 588.617 175.997C570.972 160.429 562.278 148.902 547.617 130.497C524.117 100.997 497.117 62.9966 479.117 57.9966C471.215 55.8016 458.617 54.4966 458.617 54.4966C458.617 54.4966 421.117 10.4966 310.617 10.4966Z" fill="white"/>
<path d="M498.617 337.997C498.617 337.997 522.117 360.201 531.617 358.497C557.617 353.834 540.842 318.771 557.617 301.997C566.004 293.61 575.486 290.578 583.117 281.497C588.009 275.674 589.795 273.239 592.117 265.997C595.692 254.84 592.117 235.997 592.117 235.997C592.117 235.997 600.253 241.208 605.617 239.997C611.01 238.779 612.617 228.997 612.617 228.997C612.617 228.997 614.117 198.497 588.617 175.997C570.972 160.429 562.278 148.902 547.617 130.497C524.117 100.997 497.117 62.9966 479.117 57.9966C471.215 55.8016 458.617 54.4966 458.617 54.4966C458.617 54.4966 421.117 10.4966 310.617 10.4966C200.117 10.4966 182.117 51.6206 159.117 57.9966C146.838 61.4004 141.617 58.5125 130.117 63.9966C104.5 76.2118 97.1165 103.997 82.6165 118.997C70.1843 131.858 62.3273 144.058 51.1165 157.997C37.2537 175.233 33.1165 179.997 18.6165 195.497C9.14551 205.621 5.27224 239.238 18.6165 242.997C22.3755 244.056 28.1165 233.997 28.1165 233.997C28.1165 242.997 25.8518 258.058 31.6166 270.497C36.4278 280.879 41.1426 285.791 49.1166 293.997C55.9812 301.062 63.2505 301.736 68.6166 309.997C74.5245 319.092 70.9664 326.977 75.1166 336.997C79.0378 346.464 79.2804 355.273 88.6166 359.497C101.346 365.256 108.12 349.745 120.617 343.497M498.617 337.997C493.783 322.664 480.617 310.334 480.617 290.497C480.617 269.997 482.45 253.664 483.617 235.997C484.783 218.33 486.448 199.495 485.617 175.997C485.033 159.489 480.617 141.497 480.617 141.497M498.617 337.997C490.617 408.997 538.617 424.997 538.617 438.497C538.617 451.997 525.117 450.497 525.117 450.497L510.117 448.997C510.117 448.997 532.913 484.167 542.617 508.997C559.617 552.497 552.117 562.497 552.117 562.497L533.617 559.497C533.617 559.497 551.617 601.497 548.617 638.997L72.6165 640.497C70.1165 601.497 99.6166 523.497 96.1166 529.497C92.6166 535.497 84.6166 538.022 80.1166 537.997C76.8434 537.979 74.1166 532.497 74.6166 523.997C74.9401 518.497 83.1166 495.997 88.6166 484.997C100.617 460.997 114.117 433.497 114.117 433.497C114.117 433.497 89.9082 440.205 86.1166 430.997C84.5553 427.205 91.6166 416.497 94.1166 414.497C97.1166 412.097 107.141 404.455 114.117 393.497C121.984 381.139 124.621 378.147 124.617 363.497C124.614 355.532 122.179 351.307 120.617 343.497M120.617 343.497C131.892 323.75 136.583 311.28 141.117 288.997C148.329 253.547 133.031 232.541 136.117 196.497C138.302 170.969 143.43 157.186 148.117 131.997M246.117 467.997C246.117 467.997 227.913 489.947 223.617 506.997C221.646 514.818 215.319 521.89 221.117 527.497C226.169 532.384 232.401 529.574 239.117 527.497C246.208 525.304 254.617 516.497 254.617 516.497L243.617 562.997C243.617 562.997 242.326 584.76 252.117 587.997C263.266 591.683 272.617 565.997 272.617 565.997C272.617 565.997 274.012 584.391 276.117 595.997C278.162 607.274 280.383 613.367 283.117 624.497M403.117 519.997C403.117 519.997 408.432 545.016 403.117 559.497C399.757 568.649 399.345 579.863 389.617 580.497C381.057 581.055 373.117 565.997 373.117 565.997C373.117 565.997 362.146 601.651 355.117 624.497M198.117 276.497C198.117 276.497 204.117 320.997 255.617 326.497C307.117 331.997 313.117 268.997 313.117 268.997C313.117 268.997 327.117 326.497 371.117 326.497C415.117 326.497 428.117 273.497 428.117 273.497" stroke="black" stroke-width="20" stroke-linecap="round" stroke-linejoin="round"/>
<path d="M340.617 192.873C325.5 188.907 298.117 191.497 287.617 192.997C277.212 194.483 264.74 199.497 261.117 208.497C258.419 215.199 257.488 218.497 260.117 226.997C262.745 235.497 286.812 270.187 313.617 269.997C339.236 269.815 365.352 236.997 367.117 226.997C368.881 216.997 367.117 214.497 364.617 208.373C362.117 202.25 350.617 195.497 340.617 192.873Z" fill="black"/>
</g>
<path d="M184.459 422.438C174.538 399.467 160.03 396.058 147.216 390.058C134.402 384.058 109.457 387.571 99.2817 390.058C94.3451 391.264 79.6054 401.252 72.4688 411.963C64.6008 423.772 56.2306 432.656 61.1033 445.498C64.533 454.538 69.4764 460.623 79.8087 463.345C87.0765 465.26 92.3217 464.92 99.2817 462.084C102.563 466.304 114.669 473.778 126.018 472.319C136.017 471.033 147.215 458.979 147.215 458.979C147.215 458.979 158.472 470.216 167.46 469.634C175.476 469.115 182.761 462.688 186.661 456.423C188.099 454.114 189.799 434.801 184.459 422.438Z" fill="white"/>
<path d="M147.215 458.979C147.215 458.979 158.472 470.216 167.46 469.634C175.476 469.115 182.761 462.688 186.661 456.423C188.099 454.114 189.799 434.801 184.459 422.438C174.538 399.467 160.03 396.058 147.216 390.058C134.402 384.058 109.457 387.571 99.2817 390.058C94.3451 391.264 79.6054 401.252 72.4688 411.963C64.6008 423.772 56.2306 432.656 61.1033 445.498C64.533 454.538 69.4764 460.623 79.8087 463.345C87.0765 465.26 92.3217 464.92 99.2817 462.084M147.215 458.979L145.7 435.586M147.215 458.979C147.215 458.979 136.017 471.033 126.018 472.319C114.669 473.778 102.563 466.304 99.2817 462.084M99.2817 462.084C100.796 455.235 103.16 444.547 103.16 444.547" stroke="black" stroke-width="15" stroke-linecap="round"/>
<path d="M425.716 425.032C435.276 403.945 457.15 390.229 473.638 391.115C490.126 392.001 502.377 391.394 512.587 393.614C517.541 394.691 530.203 405.053 537.504 414.821C545.552 425.59 554.058 433.677 549.386 445.464C546.098 453.76 541.251 459.359 530.965 461.909C523.729 463.703 518.481 463.421 511.479 460.862C508.264 464.744 496.279 471.655 484.911 470.382C474.895 469.26 463.514 458.284 463.514 458.284C463.514 458.284 452.436 468.637 443.442 468.153C435.421 467.722 428.039 461.878 424.043 456.163C422.57 454.057 420.57 436.383 425.716 425.032Z" fill="white"/>
<path d="M463.514 458.284C463.514 458.284 452.436 468.637 443.442 468.153C435.421 467.722 428.039 461.878 424.043 456.163C422.57 454.057 420.57 436.383 425.716 425.032C435.276 403.945 457.15 390.229 473.638 391.115C490.126 392.001 502.377 391.394 512.587 393.614C517.541 394.691 530.203 405.053 537.504 414.821C545.552 425.59 554.058 433.677 549.386 445.464C546.098 453.76 541.251 459.359 530.965 461.909C523.729 463.703 518.481 463.421 511.479 460.862M463.514 458.284L464.665 436.857M463.514 458.284C463.514 458.284 474.895 469.26 484.911 470.382C496.279 471.655 508.264 464.744 511.479 460.862M511.479 460.862C509.859 454.599 507.33 444.826 507.33 444.826" stroke="black" stroke-width="15" stroke-linecap="round"/>
<defs>
<clipPath id="clip0_391_159">
<rect width="623" height="444" fill="white" transform="translate(0 0.496582)"/>
</clipPath>
</defs>
</svg>
