<svg width="623" height="480" viewBox="0 0 623 480" fill="none" xmlns="http://www.w3.org/2000/svg">
<g clip-path="url(#clip0_239_192)">
<path d="M310.617 9.99323C200.117 9.99323 182.117 51.1172 159.117 57.4932C146.838 60.897 141.617 58.0091 130.117 63.4932C104.5 75.7084 97.1165 103.493 82.6165 118.493C70.1843 131.354 62.3273 143.554 51.1165 157.493C37.2537 174.729 33.1165 179.493 18.6165 194.993C9.14551 205.117 5.27224 238.734 18.6165 242.493C22.3755 243.552 28.1165 233.493 28.1165 233.493C28.1165 242.493 25.8518 257.554 31.6166 269.993C36.4278 280.375 41.1426 285.287 49.1166 293.493C55.9812 300.558 63.2505 301.232 68.6166 309.493C74.5245 318.588 70.9664 326.473 75.1166 336.493C79.0378 345.96 79.2804 354.769 88.6166 358.993C101.346 364.752 108.12 349.241 120.617 342.993C122.179 350.803 124.614 355.028 124.617 362.993C124.621 377.643 121.984 380.635 114.117 392.993C107.141 403.951 97.1166 411.593 94.1166 413.993C91.6166 415.993 84.5553 426.701 86.1166 430.493C89.9082 439.701 114.117 432.993 114.117 432.993C114.117 432.993 100.617 460.493 88.6166 484.493C83.1166 495.493 74.9401 517.993 74.6166 523.493C74.1166 531.993 76.8434 537.475 80.1166 537.493C84.6166 537.518 92.6166 534.993 96.1166 528.993C99.6166 522.993 70.1165 600.993 72.6165 639.993L548.617 638.493C551.617 600.993 533.617 558.993 533.617 558.993L552.117 561.993C552.117 561.993 559.617 551.993 542.617 508.493C532.913 483.663 510.117 448.493 510.117 448.493L525.117 449.993C525.117 449.993 538.617 451.493 538.617 437.993C538.617 424.493 490.617 408.493 498.617 337.493C498.617 337.493 522.117 359.697 531.617 357.993C557.617 353.33 540.842 318.267 557.617 301.493C566.004 293.106 575.486 290.074 583.117 280.993C588.009 275.17 589.795 272.735 592.117 265.493C595.692 254.336 592.117 235.493 592.117 235.493C592.117 235.493 600.253 240.704 605.617 239.493C611.01 238.275 612.617 228.493 612.617 228.493C612.617 228.493 614.117 197.993 588.617 175.493C570.972 159.925 562.278 148.398 547.617 129.993C524.117 100.493 497.117 62.4932 479.117 57.4932C471.215 55.2982 458.617 53.9932 458.617 53.9932C458.617 53.9932 421.117 9.99323 310.617 9.99323Z" fill="white"/>
<path d="M498.617 337.493C498.617 337.493 522.117 359.697 531.617 357.993C557.617 353.33 540.842 318.267 557.617 301.493C566.004 293.106 575.486 290.074 583.117 280.993C588.009 275.17 589.795 272.735 592.117 265.493C595.692 254.336 592.117 235.493 592.117 235.493C592.117 235.493 600.253 240.704 605.617 239.493C611.01 238.275 612.617 228.493 612.617 228.493C612.617 228.493 614.117 197.993 588.617 175.493C570.972 159.925 562.278 148.398 547.617 129.993C524.117 100.493 497.117 62.4932 479.117 57.4932C471.215 55.2982 458.617 53.9932 458.617 53.9932C458.617 53.9932 421.117 9.99323 310.617 9.99323C200.117 9.99323 182.117 51.1172 159.117 57.4932C146.838 60.897 141.617 58.0091 130.117 63.4932C104.5 75.7084 97.1165 103.493 82.6165 118.493C70.1843 131.354 62.3273 143.554 51.1165 157.493C37.2537 174.729 33.1165 179.493 18.6165 194.993C9.14551 205.117 5.27224 238.734 18.6165 242.493C22.3755 243.552 28.1165 233.493 28.1165 233.493C28.1165 242.493 25.8518 257.554 31.6166 269.993C36.4278 280.375 41.1426 285.287 49.1166 293.493C55.9812 300.558 63.2505 301.232 68.6166 309.493C74.5245 318.588 70.9664 326.473 75.1166 336.493C79.0378 345.96 79.2804 354.769 88.6166 358.993C101.346 364.752 108.12 349.241 120.617 342.993M498.617 337.493C493.783 322.16 480.617 309.83 480.617 289.993C480.617 269.493 482.45 253.16 483.617 235.493C484.783 217.826 486.448 198.991 485.617 175.493C485.033 158.985 480.617 140.993 480.617 140.993M498.617 337.493C490.617 408.493 538.617 424.493 538.617 437.993C538.617 451.493 525.117 449.993 525.117 449.993L510.117 448.493C510.117 448.493 532.913 483.663 542.617 508.493C559.617 551.993 552.117 561.993 552.117 561.993L533.617 558.993C533.617 558.993 551.617 600.993 548.617 638.493L72.6165 639.993C70.1165 600.993 99.6166 522.993 96.1166 528.993C92.6166 534.993 84.6166 537.518 80.1166 537.493C76.8434 537.475 74.1166 531.993 74.6166 523.493C74.9401 517.993 83.1166 495.493 88.6166 484.493C100.617 460.493 114.117 432.993 114.117 432.993C114.117 432.993 89.9082 439.701 86.1166 430.493C84.5553 426.701 91.6166 415.993 94.1166 413.993C97.1166 411.593 107.141 403.951 114.117 392.993C121.984 380.635 124.621 377.643 124.617 362.993C124.614 355.028 122.179 350.803 120.617 342.993M120.617 342.993C131.892 323.246 136.583 310.776 141.117 288.493C148.329 253.043 133.031 232.037 136.117 195.993C138.302 170.465 143.43 156.682 148.117 131.493M246.117 467.493C246.117 467.493 227.913 489.443 223.617 506.493C221.646 514.314 215.319 521.386 221.117 526.993C226.169 531.88 232.401 529.07 239.117 526.993C246.208 524.8 254.617 515.993 254.617 515.993L243.617 562.493C243.617 562.493 242.326 584.256 252.117 587.493C263.266 591.179 272.617 565.493 272.617 565.493C272.617 565.493 274.012 583.887 276.117 595.493C278.162 606.77 280.383 612.863 283.117 623.993M403.117 519.493C403.117 519.493 408.432 544.512 403.117 558.993C399.757 568.145 399.345 579.359 389.617 579.993C381.057 580.551 373.117 565.493 373.117 565.493C373.117 565.493 362.146 601.147 355.117 623.993M198.117 275.993C198.117 275.993 204.117 320.493 255.617 325.993C307.117 331.493 313.117 268.493 313.117 268.493C313.117 268.493 327.117 325.993 371.117 325.993C415.117 325.993 428.117 272.993 428.117 272.993" stroke="black" stroke-width="20" stroke-linecap="round" stroke-linejoin="round"/>
<path d="M236.616 180.993C244.9 180.993 251.616 172.039 251.616 160.993C251.616 149.948 244.9 140.993 236.616 140.993C228.332 140.993 221.616 149.948 221.616 160.993C221.616 172.039 228.332 180.993 236.616 180.993Z" fill="black"/>
<path d="M389.616 180.993C397.9 180.993 404.616 172.039 404.616 160.993C404.616 149.948 397.9 140.993 389.616 140.993C381.332 140.993 374.616 149.948 374.616 160.993C374.616 172.039 381.332 180.993 389.616 180.993Z" fill="black"/>
<path d="M340.617 192.369C325.5 188.403 298.117 190.993 287.617 192.493C277.212 193.979 264.74 198.993 261.117 207.993C258.419 214.695 257.488 217.993 260.117 226.493C262.745 234.993 286.812 269.683 313.617 269.493C339.236 269.311 365.352 236.493 367.117 226.493C368.881 216.493 367.117 213.993 364.617 207.869C362.117 201.746 350.617 194.993 340.617 192.369Z" fill="black"/>
</g>
<path d="M184.459 421.934C174.538 398.964 160.03 395.554 147.216 389.554C134.402 383.554 109.457 387.068 99.2817 389.554C94.3451 390.761 79.6054 400.749 72.4688 411.46C64.6008 423.269 56.2306 432.152 61.1033 444.995C64.533 454.034 69.4764 460.12 79.8087 462.842C87.0765 464.757 92.3217 464.417 99.2817 461.58C102.563 465.8 114.669 473.275 126.018 471.815C136.017 470.53 147.215 458.475 147.215 458.475C147.215 458.475 158.472 469.713 167.46 469.131C175.476 468.611 182.761 462.184 186.661 455.92C188.099 453.611 189.799 434.298 184.459 421.934Z" fill="white"/>
<path d="M147.215 458.475C147.215 458.475 158.472 469.713 167.46 469.131C175.476 468.611 182.761 462.184 186.661 455.92C188.099 453.611 189.799 434.298 184.459 421.934C174.538 398.964 160.03 395.554 147.216 389.554C134.402 383.554 109.457 387.068 99.2817 389.554C94.3451 390.761 79.6054 400.749 72.4688 411.46C64.6008 423.269 56.2306 432.152 61.1033 444.995C64.533 454.034 69.4764 460.12 79.8087 462.842C87.0765 464.757 92.3217 464.417 99.2817 461.58M147.215 458.475L145.7 435.082M147.215 458.475C147.215 458.475 136.017 470.53 126.018 471.815C114.669 473.275 102.563 465.8 99.2817 461.58M99.2817 461.58C100.796 454.732 103.16 444.043 103.16 444.043" stroke="black" stroke-width="15" stroke-linecap="round"/>
<path d="M425.716 424.529C435.276 403.441 457.15 389.726 473.638 390.612C490.126 391.498 502.377 390.89 512.587 393.111C517.541 394.188 530.203 404.55 537.504 414.317C545.552 425.086 554.058 433.174 549.386 444.961C546.098 453.257 541.251 458.856 530.965 461.406C523.729 463.199 518.481 462.917 511.479 460.359C508.264 464.241 496.279 471.152 484.911 469.879C474.895 468.757 463.514 457.781 463.514 457.781C463.514 457.781 452.436 468.133 443.442 467.65C435.421 467.219 428.039 461.375 424.043 455.66C422.57 453.554 420.57 435.879 425.716 424.529Z" fill="white"/>
<path d="M463.514 457.781C463.514 457.781 452.436 468.133 443.442 467.65C435.421 467.219 428.039 461.375 424.043 455.66C422.57 453.554 420.57 435.879 425.716 424.529C435.276 403.441 457.15 389.726 473.638 390.612C490.126 391.498 502.377 390.89 512.587 393.111C517.541 394.188 530.203 404.55 537.504 414.317C545.552 425.086 554.058 433.174 549.386 444.961C546.098 453.257 541.251 458.856 530.965 461.406C523.729 463.199 518.481 462.917 511.479 460.359M463.514 457.781L464.665 436.353M463.514 457.781C463.514 457.781 474.895 468.757 484.911 469.879C496.279 471.152 508.264 464.241 511.479 460.359M511.479 460.359C509.859 454.096 507.33 444.323 507.33 444.323" stroke="black" stroke-width="15" stroke-linecap="round"/>
<defs>
<clipPath id="clip0_239_192">
<rect width="623" height="444" fill="white" transform="translate(0 -0.0067749)"/>
</clipPath>
</defs>
</svg>
