<svg width="92" height="59" viewBox="0 0 92 59" fill="none" xmlns="http://www.w3.org/2000/svg">
<path d="M9.89957 13.4756C9.89957 13.4756 9.78511 2.00011 45.1305 2C80.4758 1.99989 80.4758 14.2433 80.4758 14.2433C80.4758 14.2433 91.499 39.7661 89.8274 43.2588C89.8274 43.2588 85.8196 56.8251 45.6266 56.9988C25.3202 57.0865 5.85362 52.3932 2.30383 44.2949C0.178539 39.4464 9.89957 13.4756 9.89957 13.4756Z" fill="white"/>
<path d="M9.89957 13.4756C9.89957 13.4756 9.78511 2.00011 45.1305 2C80.4758 1.99989 80.4758 14.2433 80.4758 14.2433M9.89957 13.4756C9.89957 13.4756 16.5412 22.6103 45.1305 22.6102C73.7197 22.6101 80.4758 14.2433 80.4758 14.2433M9.89957 13.4756C9.89957 13.4756 0.178539 39.4464 2.30383 44.2949C5.85362 52.3932 25.3202 57.0865 45.6266 56.9988C85.8196 56.8251 89.8274 43.2588 89.8274 43.2588C91.499 39.7661 80.4758 14.2433 80.4758 14.2433" stroke="black" stroke-width="3"/>
<path d="M52.8661 44.1159C52.5191 43.1261 51.7103 42.6245 50.9296 42.1395C50.2501 41.7172 49.6085 41.3181 49.189 40.6016C48.0324 38.6169 47.3971 37.4193 45.5023 37.4193C43.6076 37.4193 42.9703 38.6173 41.811 40.6012C41.391 41.3193 40.7463 41.7191 40.0661 42.1422C39.2853 42.6277 38.4781 43.1281 38.1299 44.1159C37.9944 44.4721 37.9262 44.8504 37.9288 45.2315C37.9288 46.838 39.2084 48.1452 40.626 48.1452C42.0437 48.1452 43.9112 47.4303 45.5063 47.4303C47.1014 47.4303 48.9429 48.1452 50.3783 48.1452C51.8137 48.1452 53.0712 46.838 53.0712 45.2315C53.0723 44.8501 53.0028 44.4719 52.8661 44.1159Z" fill="#1F0C01"/>
<path d="M38.2442 41.2049C39.4637 41.2049 40.4524 39.9337 40.4524 38.3657C40.4524 36.7976 39.4637 35.5265 38.2442 35.5265C37.0246 35.5265 36.0359 36.7976 36.0359 38.3657C36.0359 39.9337 37.0246 41.2049 38.2442 41.2049Z" fill="#1F0C01"/>
<path d="M42.6607 37.4194C43.8803 37.4194 44.8689 36.1482 44.8689 34.5802C44.8689 33.0121 43.8803 31.741 42.6607 31.741C41.4411 31.741 40.4524 33.0121 40.4524 34.5802C40.4524 36.1482 41.4411 37.4194 42.6607 37.4194Z" fill="#1F0C01"/>
<path d="M48.3391 37.4194C49.5587 37.4194 50.5474 36.1482 50.5474 34.5802C50.5474 33.0121 49.5587 31.741 48.3391 31.741C47.1195 31.741 46.1309 33.0121 46.1309 34.5802C46.1309 36.1482 47.1195 37.4194 48.3391 37.4194Z" fill="#1F0C01"/>
<path d="M52.7556 41.2049C53.9752 41.2049 54.9639 39.9337 54.9639 38.3657C54.9639 36.7976 53.9752 35.5265 52.7556 35.5265C51.536 35.5265 50.5474 36.7976 50.5474 38.3657C50.5474 39.9337 51.536 41.2049 52.7556 41.2049Z" fill="#1F0C01"/>
</svg>
