<svg width="174" height="159" viewBox="0 0 174 159" fill="none" xmlns="http://www.w3.org/2000/svg">
<path d="M17.4339 87.4455L3 72.6708L86.6375 3L171 72.6708L157.291 87.4455L148.789 80.5709V156H22.9702V82.8752L17.4339 87.4455Z" fill="white"/>
<path d="M22.9702 82.8752L86.6375 30.3167L148.789 80.5709M22.9702 82.8752L17.4339 87.4455L3 72.6708L86.6375 3L171 72.6708L157.291 87.4455L148.789 80.5709M22.9702 82.8752V156H148.789V80.5709" stroke="black" stroke-width="5" stroke-linejoin="round"/>
<path d="M60.4883 109.238V153.718H114.07V109.238C114.07 109.238 111.448 86.3982 86.7023 86.3982C61.9563 86.3982 60.4883 109.238 60.4883 109.238Z" fill="black"/>
<path d="M89.6164 115.993C88.5329 117.076 87.9714 118.965 88.3797 120.444C88.597 121.225 88.632 122.172 88.0589 122.746L79.7464 131.059C79.1718 131.632 78.2254 131.597 77.4422 131.38C75.9649 130.971 74.0764 131.533 72.9929 132.616C72.6517 132.957 72.381 133.362 72.1963 133.808C72.0117 134.254 71.9166 134.731 71.9165 135.214C71.9164 136.188 72.3033 137.123 72.9921 137.812C73.681 138.501 74.6153 138.888 75.5896 138.888C76.5639 138.888 77.4984 138.501 78.1874 137.812C77.4986 138.501 77.1117 139.436 77.1118 140.41C77.112 141.385 77.4991 142.319 78.1882 143.008C78.8772 143.697 79.8117 144.084 80.786 144.083C81.7603 144.083 82.6946 143.696 83.3835 143.007C84.467 141.923 85.0285 140.035 84.6201 138.556C84.4029 137.775 84.3679 136.828 84.941 136.253L93.2535 127.941C93.8281 127.368 94.7745 127.403 95.5576 127.62C97.0349 128.028 98.9235 127.467 100.007 126.383C100.696 125.695 101.083 124.76 101.083 123.786C101.084 122.812 100.697 121.877 100.008 121.188C99.6667 120.847 99.2617 120.576 98.816 120.392C98.3704 120.207 97.8927 120.112 97.4102 120.112C96.4359 120.112 95.5015 120.499 94.8124 121.187C95.5013 120.498 95.8882 119.564 95.8881 118.59C95.8879 117.615 95.5007 116.681 94.8117 115.992C94.1227 115.303 93.1882 114.916 92.2139 114.917C91.2396 114.917 90.3052 115.304 89.6164 115.993Z" fill="white"/>
</svg>
