<svg width="44" height="33" viewBox="0 0 44 33" fill="none" xmlns="http://www.w3.org/2000/svg">
<path d="M40.2516 12.6257C38.8351 8.97956 33.695 3.64186 21.5463 2.92295C21.5463 2.92295 8.22697 2.2358 4.24031 8.04865C0.661792 13.2664 4.24031 24.2499 4.24031 24.2499C7.88957 27.7053 10.4979 29.1615 15.4992 29.5914C19.6669 29.9496 26.6734 28.7094 33.7688 27.2025C33.7688 27.2025 39.0906 25.6054 40.2448 23.3835C41.179 21.5853 41.6682 16.2718 40.2516 12.6257Z" fill="white"/>
<path d="M33.7688 27.2025C33.7688 27.2025 39.0906 25.6054 40.2448 23.3835C41.179 21.5853 41.6682 16.2718 40.2516 12.6257C38.8351 8.97956 33.695 3.64186 21.5463 2.92295C21.5463 2.92295 8.22697 2.2358 4.24031 8.04865C0.661792 13.2664 4.24031 24.2499 4.24031 24.2499C7.88957 27.7053 10.4979 29.1615 15.4992 29.5914C19.6669 29.9496 26.6734 28.7094 33.7688 27.2025ZM33.7688 27.2025C33.7688 27.2025 33.7712 23.3794 32.265 21.2447" stroke="black" stroke-width="5" stroke-linecap="round" stroke-linejoin="round"/>
</svg>
