<svg width="205" height="137" viewBox="0 0 205 137" fill="none" xmlns="http://www.w3.org/2000/svg">
<path d="M90.3067 40.4764C90.3067 40.4764 85.6146 27.9375 85.6175 23.2254C85.6216 16.7351 88.8444 12.2766 94.671 10.4284C103.63 7.58687 114.618 20.043 114.618 20.043C114.618 20.043 118.347 13.5443 125.708 12.6707C133.069 11.7971 138.386 16.6795 138.386 16.6795C138.386 16.6795 141.228 10.4578 149.92 9.2186C156.482 8.28286 161.268 13.5822 161.268 13.5822C161.268 13.5822 165.305 7.17474 170.319 4.87499C172.448 3.89838 176.836 2.78914 180.429 3.9923C183.831 5.13182 185.461 6.35763 187.342 9.42003C188.817 11.8215 188.422 17.0297 188.044 21.5119C187.705 25.5283 186.087 30.6681 186.087 30.6681C186.087 30.6681 192.359 33.9397 194.862 37.5195C197.255 40.9404 197.605 44.135 197.073 48.2788C196.806 50.3478 196.449 52.3681 196.449 52.3681C199.994 55.8377 200.873 58.0107 201.498 62.3289C202.642 70.2424 198.12 75.3962 198.12 75.3962C198.12 75.3962 200.999 79.8895 200.775 83.0439C200.238 90.6007 196.423 94.4214 196.423 94.4214C196.423 94.4214 194.884 100.033 193.047 103.221C189.392 109.565 184.557 110.856 179.117 115.748C179.117 115.748 164.867 117.985 154.372 119.645C151.794 131.112 144.344 131.641 144.344 131.641C135.209 133.68 131.661 134.033 124.833 134.385C113.038 134.992 106.397 129.833 97.5265 122.898C79.7892 124.843 63.4778 115.675 63.4778 115.675C63.4778 115.675 52.6563 119.758 47.7792 119.222C41.04 118.48 34.4787 116.813 31.1993 114.055C26.4083 117.697 24.3882 119.627 18.7803 120.092C12.395 120.622 6.2558 118.37 3.7982 112.348C3.08984 110.612 2.88935 106.005 3.09319 105.324C7.00326 92.2569 21.905 86.843 21.905 86.843C21.905 86.843 21.9103 78.4856 24.309 71.5524C27.2995 62.9084 34.6048 57.5115 34.6048 57.5115C40.4611 51.9946 41.9703 49.6117 47.8265 44.0948C47.8265 44.0948 59.7524 38.2993 66.8084 37.3498C75.9833 36.1153 90.3067 40.4764 90.3067 40.4764Z" fill="white"/>
<path d="M90.3067 40.4764C90.3067 40.4764 85.6146 27.9375 85.6175 23.2254C85.6216 16.7351 88.8444 12.2766 94.671 10.4284C103.63 7.58687 114.618 20.043 114.618 20.043C114.618 20.043 118.347 13.5443 125.708 12.6707C133.069 11.7971 138.386 16.6795 138.386 16.6795C138.386 16.6795 141.228 10.4578 149.92 9.2186C156.482 8.28286 161.268 13.5822 161.268 13.5822C161.268 13.5822 165.305 7.17474 170.319 4.87499C172.448 3.89838 176.836 2.78914 180.429 3.9923C183.831 5.13182 185.461 6.35763 187.342 9.42003C188.817 11.8215 188.422 17.0297 188.044 21.5119C187.705 25.5283 186.087 30.6681 186.087 30.6681C186.087 30.6681 192.359 33.9397 194.862 37.5195C197.255 40.9404 197.605 44.135 197.073 48.2788C196.806 50.3478 196.449 52.3681 196.449 52.3681C199.994 55.8377 200.873 58.0107 201.498 62.3289C202.642 70.2424 198.12 75.3962 198.12 75.3962C198.12 75.3962 200.999 79.8895 200.775 83.0439C200.238 90.6007 196.423 94.4214 196.423 94.4214C196.423 94.4214 194.884 100.033 193.047 103.221C189.392 109.565 184.557 110.856 179.117 115.748C179.117 115.748 164.867 117.985 154.372 119.645M90.3067 40.4764C90.3067 40.4764 86.2315 45.9304 86.1327 49.9869C86.0372 53.9073 90.2947 59.5026 90.2947 59.5026C90.2947 59.5026 83.1028 69.3651 85.1411 75.5916C87.5572 82.9725 93.9142 85.2881 93.9142 85.2881C93.9142 85.2881 93.1026 95.4284 97.5414 99.3378C101.391 102.728 109.688 102.813 109.688 102.813C109.688 102.813 114.03 108.328 119.262 108.331C125.063 108.335 131.235 107.361 136.112 107.364C140.989 107.367 149.901 112.191 154.372 119.645M90.3067 40.4764C90.3067 40.4764 75.9833 36.1153 66.8084 37.3498C59.7524 38.2993 47.8265 44.0948 47.8265 44.0948C41.9703 49.6117 40.4611 51.9946 34.6048 57.5115C34.6048 57.5115 27.2995 62.9084 24.309 71.5524C21.9103 78.4856 21.905 86.843 21.905 86.843C21.905 86.843 7.00326 92.2569 3.09319 105.324C2.88935 106.005 3.08984 110.612 3.7982 112.348C6.2558 118.37 12.395 120.622 18.7803 120.092C24.3882 119.627 26.4083 117.697 31.1993 114.055M154.372 119.645C151.794 131.112 144.344 131.641 144.344 131.641M144.344 131.641C135.209 133.68 131.661 134.033 124.833 134.385C113.038 134.992 106.397 129.833 97.5265 122.898M144.344 131.641C144.344 131.641 143.46 127.55 142.397 125.772M97.5265 122.898C97.5265 122.898 95.8436 119.697 95.4027 115.695M97.5265 122.898C79.7892 124.843 63.4778 115.675 63.4778 115.675C63.4778 115.675 52.6563 119.758 47.7792 119.222C41.04 118.48 34.4787 116.813 31.1993 114.055M31.1993 114.055C29.9188 112.734 28.8956 110.852 28.8956 110.852" stroke="black" stroke-width="5" stroke-linecap="round" stroke-linejoin="round"/>
<ellipse cx="138.615" cy="76.2473" rx="5.67553" ry="5.60117" transform="rotate(0.0361701 138.615 76.2473)" fill="black"/>
<ellipse cx="171.961" cy="71.8235" rx="5.67553" ry="5.60117" transform="rotate(0.0361701 171.961 71.8235)" fill="black"/>
<path d="M160.952 92.0879L161.747 97.7785M161.747 97.7785L168.927 102.317M161.747 97.7785L154.736 104.798" stroke="black" stroke-width="5" stroke-linecap="round" stroke-linejoin="round"/>
<ellipse cx="160.955" cy="87.5522" rx="7.44913" ry="5.69008" transform="rotate(0.0361701 160.955 87.5522)" fill="black"/>
</svg>
