<svg width="37" height="64" viewBox="0 0 37 64" fill="none" xmlns="http://www.w3.org/2000/svg">
<path d="M33.9387 47.7934C28.0825 53.3103 26.5733 55.6932 20.717 61.2101C20.717 61.2101 9.63617 50.6548 8.42692 49.172C6.14531 46.3743 2.85308 40.6829 2.8591 31.1378C2.87095 12.3783 14.5826 2.87262 14.5826 2.87262C14.5826 2.87262 17.7579 29.0204 22.7507 36.6358C23.0868 37.1483 33.5866 47.4624 33.9387 47.7934Z" fill="white"/>
<path d="M20.717 61.2101C26.5733 55.6932 28.0825 53.3103 33.9387 47.7934C33.5866 47.4624 23.0868 37.1483 22.7507 36.6358C17.7579 29.0204 14.5826 2.87262 14.5826 2.87262C14.5826 2.87262 2.87095 12.3783 2.8591 31.1378C2.85308 40.6829 6.14531 46.3743 8.42692 49.172M20.717 61.2101C20.717 61.2101 9.63617 50.6548 8.42692 49.172M20.717 61.2101L8.42692 49.172" stroke="black" stroke-width="5" stroke-linecap="round" stroke-linejoin="round"/>
</svg>
