<svg width="219" height="137" viewBox="0 0 219 137" fill="none" xmlns="http://www.w3.org/2000/svg">
<path d="M90.6121 39.6472C90.6121 39.6472 85.92 27.1083 85.9229 22.3962C85.927 15.9059 89.1498 11.4474 94.9764 9.5992C103.935 6.75765 114.923 19.2138 114.923 19.2138C114.923 19.2138 118.652 12.7151 126.013 11.8415C133.374 10.9678 138.692 15.8503 138.692 15.8503C138.692 15.8503 141.533 9.62859 150.225 8.38937C156.788 7.45364 161.573 12.753 161.573 12.753C161.573 12.753 165.611 6.34551 170.624 4.04576C172.753 3.06916 177.142 1.95991 180.734 3.16307C184.137 4.30259 185.767 5.52841 187.648 8.59081C189.123 10.9922 188.727 16.2005 188.349 20.6827C188.011 24.6991 186.393 29.8389 186.393 29.8389C186.393 29.8389 192.664 33.1105 195.168 36.6903C197.56 40.1112 197.911 43.3058 197.378 47.4495C197.112 49.5185 196.755 51.5389 196.755 51.5389C200.3 55.0085 201.179 57.1815 201.803 61.4997C202.947 69.4132 198.425 74.567 198.425 74.567C198.425 74.567 201.305 79.0603 201.081 82.2147C200.544 89.7715 196.728 93.5922 196.728 93.5922C208.877 94.3111 214.017 99.6488 215.433 103.295C216.85 106.941 216.361 112.254 215.427 114.053C214.272 116.275 208.951 117.872 208.951 117.872C201.855 119.379 194.849 120.619 190.681 120.261C185.68 119.831 183.071 118.374 179.422 114.919C179.422 114.919 165.172 117.155 154.678 118.815C152.099 130.283 144.649 130.812 144.649 130.812C135.514 132.851 131.967 133.204 125.138 133.555C113.343 134.162 106.702 129.004 97.8319 122.069C80.0946 124.014 63.7832 114.846 63.7832 114.846C63.7832 114.846 52.9617 118.929 48.0846 118.392C41.3454 117.651 34.7842 115.983 31.5047 113.225C26.7137 116.867 24.6936 118.798 19.0857 119.263C12.7004 119.793 6.56122 117.541 4.10362 111.519C3.39526 109.783 3.19477 105.176 3.39861 104.495C7.30868 91.4277 22.2104 86.0137 22.2104 86.0137C22.2104 86.0137 22.2157 77.6564 24.6144 70.7232C27.6049 62.0792 34.9102 56.6823 34.9102 56.6823C34.9102 56.6823 27.1986 51.0993 27.2078 36.4954C27.2197 17.7359 38.9313 8.23019 38.9313 8.23019C38.9313 8.23019 42.5484 38.0165 48.1319 43.2656C48.1319 43.2656 60.0578 37.47 67.1138 36.5206C76.2887 35.286 90.6121 39.6472 90.6121 39.6472Z" fill="white"/>
<path d="M90.6121 39.6472C90.6121 39.6472 85.92 27.1083 85.9229 22.3962C85.927 15.9059 89.1498 11.4474 94.9764 9.5992C103.935 6.75765 114.923 19.2138 114.923 19.2138C114.923 19.2138 118.652 12.7151 126.013 11.8415C133.374 10.9678 138.692 15.8503 138.692 15.8503C138.692 15.8503 141.533 9.62859 150.225 8.38937C156.788 7.45364 161.573 12.753 161.573 12.753C161.573 12.753 165.611 6.34551 170.624 4.04576C172.753 3.06916 177.142 1.95991 180.734 3.16307C184.137 4.30259 185.767 5.52841 187.648 8.59081C189.123 10.9922 188.727 16.2005 188.349 20.6827C188.011 24.6991 186.393 29.8389 186.393 29.8389C186.393 29.8389 192.664 33.1105 195.168 36.6903C197.56 40.1112 197.911 43.3058 197.378 47.4495C197.112 49.5185 196.755 51.5389 196.755 51.5389C200.3 55.0085 201.179 57.1815 201.803 61.4997C202.947 69.4132 198.425 74.567 198.425 74.567C198.425 74.567 201.305 79.0603 201.081 82.2147C200.544 89.7715 196.728 93.5922 196.728 93.5922M90.6121 39.6472C90.6121 39.6472 86.537 45.1011 86.4381 49.1576C86.3426 53.078 90.6001 58.6734 90.6001 58.6734C90.6001 58.6734 83.4082 68.5359 85.4465 74.7624C87.8627 82.1432 94.2196 84.4589 94.2196 84.4589C94.2196 84.4589 93.408 94.5992 97.8468 98.5085C101.696 101.899 109.994 101.984 109.994 101.984C109.994 101.984 114.335 107.499 119.568 107.502C125.369 107.506 131.54 106.531 136.417 106.535C141.295 106.538 150.206 111.362 154.678 118.815M90.6121 39.6472C90.6121 39.6472 76.2887 35.286 67.1138 36.5206C60.0578 37.47 48.1319 43.2656 48.1319 43.2656M196.728 93.5922C208.877 94.3111 214.017 99.6488 215.433 103.295C216.85 106.941 216.361 112.254 215.427 114.053C214.272 116.275 208.951 117.872 208.951 117.872M196.728 93.5922C196.728 93.5922 195.19 99.2038 193.353 102.392C189.697 108.736 184.862 110.027 179.422 114.919M208.951 117.872C208.951 117.872 208.953 114.049 207.447 111.914M208.951 117.872C201.855 119.379 194.849 120.619 190.681 120.261C185.68 119.831 183.071 118.374 179.422 114.919M179.422 114.919C179.422 114.919 165.172 117.155 154.678 118.815M154.678 118.815C152.099 130.283 144.649 130.812 144.649 130.812M144.649 130.812C135.514 132.851 131.967 133.204 125.138 133.555C113.343 134.162 106.702 129.004 97.8319 122.069M144.649 130.812C144.649 130.812 143.765 126.721 142.702 124.942M97.8319 122.069C97.8319 122.069 96.149 118.867 95.7081 114.866M97.8319 122.069C80.0946 124.014 63.7832 114.846 63.7832 114.846C63.7832 114.846 52.9617 118.929 48.0846 118.392C41.3454 117.651 34.7842 115.983 31.5047 113.225M31.5047 113.225C30.2242 111.905 29.201 110.023 29.201 110.023M31.5047 113.225C26.7137 116.867 24.6936 118.798 19.0857 119.263C12.7004 119.793 6.56122 117.541 4.10362 111.519C3.39526 109.783 3.19477 105.176 3.39861 104.495C7.30868 91.4277 22.2104 86.0137 22.2104 86.0137C22.2104 86.0137 22.2157 77.6564 24.6144 70.7232C27.6049 62.0792 34.9102 56.6823 34.9102 56.6823M34.9102 56.6823C40.7665 51.1654 42.2757 48.7824 48.1319 43.2656M34.9102 56.6823C34.9102 56.6823 27.1986 51.0993 27.2078 36.4954C27.2197 17.7359 38.9313 8.23019 38.9313 8.23019C38.9313 8.23019 42.5484 38.0165 48.1319 43.2656" stroke="black" stroke-width="5" stroke-linecap="round" stroke-linejoin="round"/>
<ellipse cx="138.92" cy="75.4185" rx="5.67553" ry="5.60117" transform="rotate(0.0361701 138.92 75.4185)" fill="black"/>
<ellipse cx="172.267" cy="70.9942" rx="5.67553" ry="5.60117" transform="rotate(0.0361701 172.267 70.9942)" fill="black"/>
<path d="M161.257 91.2582L162.052 96.9488M162.052 96.9488L169.232 101.488M162.052 96.9488L155.042 103.968" stroke="black" stroke-width="5" stroke-linecap="round" stroke-linejoin="round"/>
<ellipse cx="161.26" cy="86.7238" rx="7.44913" ry="5.69008" transform="rotate(0.0361701 161.26 86.7238)" fill="black"/>
</svg>
