<svg width="70" height="109" viewBox="0 0 70 109" fill="none" xmlns="http://www.w3.org/2000/svg">
<path d="M67 42L3 2.5V66.5L67 42Z" fill="white"/>
<path d="M3 106.5V66.5M3 66.5V2.5L67 42L3 66.5Z" stroke="black" stroke-width="5" stroke-linecap="round" stroke-linejoin="round"/>
<path d="M25.726 29.8523C24.9521 30.6263 24.551 31.9752 24.8427 33.0315C24.9979 33.5898 25.0229 34.2659 24.6135 34.6763L18.676 40.6138C18.2656 41.0232 17.5896 40.9982 17.0302 40.8429C15.975 40.5513 14.626 40.9523 13.8521 41.7263C13.6084 41.9699 13.415 42.2591 13.2831 42.5775C13.1512 42.8958 13.0833 43.237 13.0833 43.5816C13.0832 44.2776 13.3595 44.945 13.8516 45.4372C14.3436 45.9294 15.011 46.2059 15.7069 46.206C16.4028 46.2061 17.0703 45.9298 17.5625 45.4377C17.0705 45.9299 16.7941 46.5974 16.7942 47.2933C16.7943 47.9892 17.0708 48.6566 17.563 49.1487C18.0552 49.6407 18.7227 49.9171 19.4186 49.917C20.1145 49.9169 20.7819 49.6403 21.2739 49.1482C22.0479 48.3742 22.4489 47.0252 22.1573 45.969C22.0021 45.4107 21.9771 44.7346 22.3864 44.3242L28.3239 38.3867C28.7344 37.9773 29.4104 38.0023 29.9698 38.1575C31.025 38.4492 32.3739 38.0482 33.1479 37.2742C33.6401 36.7822 33.9166 36.1148 33.9167 35.4188C33.9168 34.7229 33.6405 34.0554 33.1484 33.5633C32.9048 33.3196 32.6156 33.1262 32.2972 32.9943C31.9789 32.8624 31.6377 32.7945 31.2931 32.7944C30.5971 32.7943 29.9297 33.0707 29.4375 33.5627C29.9295 33.0706 30.2059 32.4031 30.2058 31.7072C30.2057 31.0112 29.9291 30.3438 29.437 29.8518C28.9448 29.3598 28.2773 29.0834 27.5814 29.0835C26.8855 29.0836 26.2181 29.3601 25.726 29.8523Z" fill="black"/>
</svg>
