<svg width="507" height="101" viewBox="0 0 507 101" fill="none" xmlns="http://www.w3.org/2000/svg">
<path d="M132.93 43.3797C123.009 20.4094 108.5 17 95.6861 11C82.8721 5.00004 57.9273 8.51363 47.7522 11C42.8157 12.2063 28.076 22.1946 20.9394 32.9056C13.0714 44.7143 4.70116 53.5978 9.57391 66.4406C13.0036 75.48 17.947 81.5653 28.2792 84.2875C35.5471 86.2024 40.7922 85.8626 47.7523 83.026C51.0339 87.2457 63.1394 94.7205 74.4884 93.2611C84.4878 91.9752 95.6861 79.9208 95.6861 79.9208C95.6861 79.9208 106.943 91.1586 115.93 90.5764C123.947 90.0571 131.231 83.6301 135.132 77.3654C136.569 75.0562 138.27 55.7434 132.93 43.3797Z" fill="white"/>
<path d="M95.6861 79.9208C95.6861 79.9208 106.943 91.1586 115.93 90.5764C123.947 90.0571 131.231 83.63 135.132 77.3654C136.569 75.0562 138.27 55.7434 132.93 43.3797C123.009 20.4094 108.5 17 95.6861 11C82.8721 5.00004 57.9273 8.51363 47.7522 11C42.8157 12.2063 28.076 22.1946 20.9394 32.9056C13.0714 44.7143 4.70116 53.5978 9.57391 66.4406C13.0036 75.48 17.947 81.5653 28.2792 84.2875C35.5471 86.2024 40.7922 85.8626 47.7523 83.026M95.6861 79.9208L94.1706 56.528M95.6861 79.9208C95.6861 79.9208 84.4878 91.9752 74.4884 93.2611C63.1394 94.7205 51.0339 87.2457 47.7523 83.026M47.7523 83.026C49.2667 76.1774 51.6303 65.489 51.6303 65.489" stroke="black" stroke-width="15" stroke-linecap="round"/>
<path d="M374.186 45.9746C383.746 24.887 405.62 11.1718 422.108 12.0578C438.596 12.9438 450.848 12.336 461.058 14.5563C466.011 15.6334 478.674 25.9953 485.974 35.7632C494.023 46.5321 502.528 54.6199 497.856 66.4063C494.568 74.7023 489.721 80.3016 479.435 82.8515C472.199 84.6452 466.951 84.3631 459.949 81.8044C456.734 85.6864 444.749 92.5978 433.382 91.3243C423.366 90.2024 411.984 79.2268 411.984 79.2268C411.984 79.2268 400.906 89.5792 391.912 89.0959C383.891 88.6648 376.509 82.8203 372.513 77.1057C371.04 74.9993 369.04 57.325 374.186 45.9746Z" fill="white"/>
<path d="M411.984 79.2268C411.984 79.2268 400.906 89.5792 391.912 89.0959C383.891 88.6648 376.509 82.8203 372.513 77.1057C371.04 74.9993 369.04 57.325 374.186 45.9746C383.746 24.887 405.62 11.1718 422.108 12.0578C438.596 12.9438 450.848 12.336 461.058 14.5563C466.011 15.6334 478.674 25.9953 485.974 35.7632C494.023 46.5321 502.528 54.6199 497.856 66.4063C494.568 74.7023 489.721 80.3016 479.435 82.8515C472.199 84.6452 466.951 84.3631 459.949 81.8044M411.984 79.2268L413.136 57.7989M411.984 79.2268C411.984 79.2268 423.366 90.2024 433.382 91.3243C444.749 92.5978 456.734 85.6864 459.949 81.8044M459.949 81.8044C458.329 75.5419 455.8 65.7682 455.8 65.7682" stroke="black" stroke-width="15" stroke-linecap="round"/>
</svg>
