<svg width="71" height="71" viewBox="0 0 71 71" fill="none" xmlns="http://www.w3.org/2000/svg">
<g clip-path="url(#clip0_63_264)">
<ellipse cx="35.5" cy="34.5" rx="24.5" ry="32.5" fill="white"/>
<path fill-rule="evenodd" clip-rule="evenodd" d="M24.8906 9.09304L20.7421 22.9989C20.7421 22.9989 17.7094 33.4765 16.4568 43.7208C16.2794 45.4683 16.1846 47.2233 16.1728 48.9798C16.1728 55.7248 18.3383 58.9401 21.2341 60.7253C24.4798 62.7335 29.2976 63.3928 35.5 63.3928C41.6973 63.3928 46.5253 62.7335 49.7659 60.7253C52.6617 58.935 54.8272 55.7248 54.8272 48.9798C54.8272 47.3063 54.7258 45.5313 54.5381 43.7157C53.2906 33.4714 50.2579 22.9989 50.2579 22.9989L46.1094 9.09304C42.6496 8.15325 39.0849 7.654 35.5 7.60711C32.4571 7.60711 28.6181 8.08382 24.8906 9.09304ZM61.1665 48.9798C61.1665 47.5869 61.109 46.1719 60.9941 44.735L60.9738 44.4865L61.4302 44.3902C65.0157 43.5889 67.6427 41.748 69.2301 39.1058C69.7237 38.2896 70.1105 37.4136 70.3813 36.499C71.3144 33.4562 71.0913 30.0786 70.3813 26.9749C69.4962 23.3272 68.076 19.8306 66.1669 16.5988C64.3666 13.5001 62.196 10.6905 60.0356 8.88004C56.7493 6.11611 52.3473 4.23968 48.0467 3.04282C43.9573 1.91824 39.7408 1.32172 35.5 1.26782C31.2589 1.32338 27.0424 1.9216 22.9533 3.04789C18.6527 4.23968 14.2507 6.11611 10.9644 8.88004C8.804 10.6905 6.63343 13.495 4.83307 16.5988C2.92576 19.8309 1.5073 23.3275 0.623786 26.9749C0.228205 28.649 0.0190048 30.3617 0 32.0818C0 34.0445 0.309357 35.9919 1.09036 37.7821C2.59657 41.256 5.62421 43.6295 10.0262 44.4865V44.4967L10.0059 44.7249V44.735C9.89098 46.1719 9.8335 47.5869 9.8335 48.9798C9.8335 57.3071 12.6684 62.8857 17.8971 66.1213C22.7758 69.1337 29.2013 69.7321 35.5 69.7321C41.7987 69.7321 48.2242 69.1337 53.0979 66.1213C58.3316 62.8857 61.1665 57.3071 61.1665 48.9798ZM26.7619 28.2732C28.5116 28.2732 29.9316 29.6932 29.9316 31.4428V33.9278C29.9316 34.7685 29.5976 35.5747 29.0032 36.1691C28.4088 36.7635 27.6026 37.0975 26.7619 37.0975C25.9213 37.0975 25.1151 36.7635 24.5207 36.1691C23.9262 35.5747 23.5923 34.7685 23.5923 33.9278V31.4428C23.5923 29.6932 25.0123 28.2732 26.7619 28.2732ZM44.2431 28.2732C45.9928 28.2732 47.4128 29.6932 47.4128 31.4428V33.9278C47.4128 34.7685 47.0788 35.5747 46.4844 36.1691C45.89 36.7635 45.0838 37.0975 44.2431 37.0975C43.4025 37.0975 42.5963 36.7635 42.0019 36.1691C41.4074 35.5747 41.0735 34.7685 41.0735 33.9278V31.4428C41.0735 29.6932 42.4935 28.2732 44.2431 28.2732ZM29.5664 48.99C30.4945 51.1098 32.3861 52.7276 33.4613 53.4376C34.6835 54.249 36.3165 54.249 37.5387 53.4376C38.6139 52.7276 40.5106 51.1048 41.4336 48.99C41.6526 48.4843 41.7454 47.9329 41.7039 47.3833C41.6624 46.8338 41.4878 46.3026 41.1952 45.8355C40.7413 45.121 40.0471 44.5923 39.2376 44.3445C38.411 44.091 37.0874 43.8171 35.5 43.8171C33.9126 43.8171 32.589 44.091 31.7624 44.3445C30.9529 44.5923 30.2587 45.121 29.8048 45.8355C29.5122 46.3026 29.3376 46.8338 29.2961 47.3833C29.2546 47.9329 29.3474 48.4843 29.5664 48.99Z" fill="black"/>
</g>
<defs>
<clipPath id="clip0_63_264">
<rect width="71" height="71" fill="white"/>
</clipPath>
</defs>
</svg>
