<svg width="80" height="80" viewBox="0 0 80 80" fill="none" xmlns="http://www.w3.org/2000/svg">
<path d="M71.4999 37.4234H66.8666C66.261 31.1219 63.4817 25.2276 59.0054 20.7512C54.5291 16.2749 48.6347 13.4956 42.3332 12.89V8.25671C42.3332 7.59367 42.0699 6.95779 41.601 6.48895C41.1322 6.02011 40.4963 5.75671 39.8332 5.75671C39.1702 5.75671 38.5343 6.02011 38.0655 6.48895C37.5966 6.95779 37.3332 7.59367 37.3332 8.25671V12.89C31.0594 13.5259 25.2006 16.3193 20.7568 20.7935C16.313 25.2676 13.5596 31.1453 12.9666 37.4234H8.33325C8.00495 37.4234 7.67986 37.488 7.37654 37.6137C7.07323 37.7393 6.79763 37.9235 6.56549 38.1556C6.33334 38.3878 6.14919 38.6634 6.02355 38.9667C5.89792 39.27 5.83325 39.5951 5.83325 39.9234C5.83325 40.2517 5.89792 40.5768 6.02355 40.8801C6.14919 41.1834 6.33334 41.459 6.56549 41.6911C6.79763 41.9233 7.07323 42.1074 7.37654 42.2331C7.67986 42.3587 8.00495 42.4234 8.33325 42.4234H12.9666C13.5721 48.7248 16.3514 54.6192 20.8278 59.0955C25.3041 63.5718 31.1985 66.3511 37.4999 66.9567V71.59C37.4999 72.2531 37.7633 72.889 38.2322 73.3578C38.701 73.8267 39.3369 74.09 39.9999 74.09C40.663 74.09 41.2988 73.8267 41.7677 73.3578C42.2365 72.889 42.4999 72.2531 42.4999 71.59V66.9567C48.7991 66.345 54.69 63.5637 59.1651 59.0886C63.6402 54.6134 66.4215 48.7225 67.0332 42.4234H71.6666C71.9949 42.4234 72.32 42.3587 72.6233 42.2331C72.9266 42.1074 73.2022 41.9233 73.4343 41.6911C73.6665 41.459 73.8506 41.1834 73.9763 40.8801C74.1019 40.5768 74.1666 40.2517 74.1666 39.9234C74.1666 39.5951 74.1019 39.27 73.9763 38.9667C73.8506 38.6634 73.6665 38.3878 73.4343 38.1556C73.2022 37.9235 72.9266 37.7393 72.6233 37.6137C72.32 37.488 71.9949 37.4234 71.6666 37.4234H71.4999ZM39.8332 62.0567C35.4557 62.0567 31.1764 60.7586 27.5366 58.3266C23.8968 55.8945 21.0599 52.4378 19.3847 48.3934C17.7095 44.3491 17.2712 39.8988 18.1252 35.6054C18.9792 31.3119 21.0872 27.3681 24.1826 24.2727C27.278 21.1773 31.2218 19.0694 35.5152 18.2153C39.8087 17.3613 44.259 17.7996 48.3033 19.4748C52.3476 21.1501 55.8044 23.9869 58.2364 27.6268C60.6685 31.2666 61.9666 35.5458 61.9666 39.9234C61.9666 45.7966 59.6358 51.4297 55.4859 55.5858C51.3361 59.7419 45.7064 62.0812 39.8332 62.09V62.0567Z" fill="black"/>
<path d="M54.9334 39.9566C54.9334 42.9511 54.045 45.8783 52.3807 48.3677C50.7163 50.8571 48.3508 52.7967 45.5836 53.9412C42.8164 55.0856 39.7719 55.3833 36.8354 54.7967C33.899 54.21 31.2025 52.7654 29.0874 50.6457C26.9723 48.5259 25.5336 45.8263 24.9535 42.8885C24.3733 39.9507 24.6778 36.9069 25.8283 34.1422C26.9788 31.3775 28.9237 29.0163 31.4167 27.3575C33.9098 25.6986 36.8389 24.8167 39.8334 24.8233C41.8192 24.8233 43.7855 25.2149 45.6197 25.9759C47.4538 26.7368 49.1199 27.852 50.5225 29.2577C51.9251 30.6634 53.0367 32.332 53.7936 34.1679C54.5505 36.0037 54.9378 37.9708 54.9334 39.9566Z" fill="black"/>
</svg>
