<svg width="73" height="72" viewBox="0 0 73 72" fill="none" xmlns="http://www.w3.org/2000/svg">
<path d="M63.173 6.018L63.491 6L63.881 6.024L64.151 6.072L64.52 6.177L64.841 6.315L65.141 6.486L65.411 6.687L65.657 6.912L65.813 7.089L66.059 7.437L66.215 7.725C66.355 8.025 66.445 8.341 66.485 8.673L66.5 8.991C66.5 9.217 66.476 9.437 66.428 9.651L66.323 10.02L46.727 64.251C46.3556 65.0597 45.7598 65.7448 45.0106 66.225C44.2613 66.7052 43.39 66.9603 42.5 66.96C41.6987 66.9617 40.9105 66.7562 40.212 66.3636C39.5134 65.9709 38.9282 65.4044 38.513 64.719L38.318 64.338L28.262 44.232L8.25204 34.224C7.51164 33.8854 6.87313 33.3583 6.40036 32.6955C5.92759 32.0326 5.63713 31.2573 5.55804 30.447L5.54004 30C5.54004 28.32 6.44304 26.784 8.06304 25.89L8.48304 25.68L62.534 6.162L62.852 6.072L63.173 6.018Z" fill="#1F0C01"/>
</svg>
