<svg width="32" height="32" viewBox="0 0 32 32" fill="none" xmlns="http://www.w3.org/2000/svg">
<path d="M4.40027 24.3789C4.39657 23.8245 4.49517 23.2741 4.69226 22.7559L4.69617 22.7471C5.19466 21.3329 6.34417 20.605 7.59851 19.8252C8.66449 19.1621 9.77478 18.4814 10.4979 17.2451H10.4989C11.4298 15.6522 12.1125 14.4469 12.9257 13.624C13.7076 12.8328 14.6084 12.4004 16.0038 12.4004C17.399 12.4004 18.2985 12.8322 19.079 13.623C19.8908 14.4458 20.5721 15.6514 21.5009 17.2451L21.5018 17.2461C22.2242 18.4796 23.329 19.1591 24.3944 19.8213C25.5703 20.5518 26.6567 21.2378 27.1971 22.4883L27.2977 22.7461L27.3016 22.7568C27.5005 23.275 27.6021 23.8259 27.6005 24.3809V24.3818C27.6005 26.7324 25.7617 28.5993 23.7323 28.5996C22.6461 28.5996 21.3929 28.3283 20.0487 28.042C18.7266 27.7604 17.323 27.4668 16.0096 27.4668C14.6965 27.4668 13.283 27.7604 11.954 28.042C10.6025 28.3284 9.34739 28.5996 8.27527 28.5996C6.27142 28.5996 4.40027 26.73 4.40027 24.3818V24.3789Z" fill="white" stroke="black" stroke-width="0.8"/>
<path d="M4.5 9.40039C6.12435 9.40039 7.59961 11.1363 7.59961 13.5C7.59961 15.8637 6.12435 17.5996 4.5 17.5996C2.87565 17.5996 1.40039 15.8637 1.40039 13.5C1.40039 11.1363 2.87565 9.40039 4.5 9.40039Z" fill="white" stroke="black" stroke-width="0.8"/>
<path d="M11.5 3.40039C13.1244 3.40039 14.5996 5.13626 14.5996 7.5C14.5996 9.86374 13.1244 11.5996 11.5 11.5996C9.87565 11.5996 8.40039 9.86374 8.40039 7.5C8.40039 5.13626 9.87565 3.40039 11.5 3.40039Z" fill="white" stroke="black" stroke-width="0.8"/>
<path d="M20.5 3.40039C22.1244 3.40039 23.5996 5.13626 23.5996 7.5C23.5996 9.86374 22.1244 11.5996 20.5 11.5996C18.8756 11.5996 17.4004 9.86374 17.4004 7.5C17.4004 5.13626 18.8756 3.40039 20.5 3.40039Z" fill="white" stroke="black" stroke-width="0.8"/>
<path d="M27.5 9.40039C29.1244 9.40039 30.5996 11.1363 30.5996 13.5C30.5996 15.8637 29.1244 17.5996 27.5 17.5996C25.8756 17.5996 24.4004 15.8637 24.4004 13.5C24.4004 11.1363 25.8756 9.40039 27.5 9.40039Z" fill="white" stroke="black" stroke-width="0.8"/>
</svg>
