<svg width="190" height="190" viewBox="0 0 190 190" fill="none" xmlns="http://www.w3.org/2000/svg">
<path d="M50.2285 54.9635C50.2285 54.9635 44.1277 50.2753 45.5435 44.5419C47.0525 38.4314 52.3352 36.4622 52.3352 36.4622C52.3352 36.4622 48.8551 29.18 54.2364 23.0666C58.7697 17.9164 67.5944 19.2143 67.5944 19.2143C67.5944 19.2143 68.9773 11.0655 75.8046 9.53371C81.6271 8.22733 85.5871 11.6144 85.5871 11.6144C85.5871 11.6144 88.1943 6.75387 93.8137 5.49305C99.4331 4.23223 104.831 10.8596 104.831 10.8596C104.831 10.8596 110.102 7.82428 115.421 10.835C122.182 14.6615 121.12 20.3877 121.12 20.3877C121.12 20.3877 125.701 18.9323 129.29 21.6189C132.878 24.3054 133.439 28.384 133.439 28.384C133.439 28.384 141.388 27.8062 145.149 30.816C150.783 35.3239 151.681 39.3267 151.681 39.3267C151.681 39.3267 158.752 40.733 160.228 47.3139C161.903 54.7767 158.113 56.2683 158.113 56.2683C158.113 56.2683 162.607 61.776 159.765 66.8003C156.303 72.9215 150.437 71.8149 150.437 71.8149C150.762 76.8469 150.004 79.5833 147.871 84.1484C145.565 89.0839 144.683 89.7308 142.658 91.66C145.908 95.1886 151.418 97.1055 151.418 97.1055C151.418 97.1055 171.323 92.6395 180.154 112.036C182.502 117.192 175.531 120.27 175.531 120.27C175.531 120.27 173.323 125.326 167.358 126.949C161.394 128.573 143.392 120.284 143.392 120.284L138.337 124.696C138.337 124.696 146.948 130.745 148.363 137.055C149.779 143.364 149.572 147.829 146.187 148.588C145.372 148.771 143.726 148.713 143.726 148.713C143.726 148.713 140.872 151.379 138.036 152.198C129.712 154.605 116.145 144.64 116.145 144.64C116.145 144.64 112.176 146.599 103.502 145.339C105.762 149.042 105.858 154.572 105.426 156.451C104.773 159.292 100.766 161.986 100.766 161.986C100.766 161.986 103.745 167.659 102.196 171.214C101.454 172.915 100.633 173.845 98.824 174.25C96.1835 174.843 94.9806 172.334 94.9806 172.334C94.9806 172.334 94.7413 176.022 92.3717 176.553C85.0988 178.185 76.8322 168.781 75.995 165.049C72.3994 168.992 67.2608 169.86 67.2608 169.86C67.2608 169.86 64.8689 182.653 59.6117 184.26C57.8216 184.807 57.0629 184.629 55.2162 184.32C53.0289 186.9 48.0711 186.493 46.4216 186.008C41.4729 184.553 38.7824 181.151 36.8809 175.179C34.2658 166.967 41.8977 152.534 41.8977 152.534C41.8977 152.534 41.0805 150.793 40.5125 146.36C40.0974 143.12 42.0758 139.382 42.0758 139.382C42.0758 139.382 33.5036 136.673 34.5903 125.669C35.6769 114.666 45.2194 114.092 45.2194 114.092C45.2194 114.092 46.9796 110.291 48.6748 108.258L48.7787 108.133C50.8045 105.703 52.0102 104.256 54.5082 102.246C50.1247 101.091 45.6468 98.2481 45.6468 98.2481C45.6468 98.2481 36.4066 102.388 33.0067 100.229C27.8038 96.9255 27.8751 88.7675 27.8751 88.7675C27.8751 88.7675 18.472 84.8915 26.2645 73.6657C30.7787 67.1624 39.3789 68.728 39.3789 68.728C39.3789 68.728 41.8793 63.7489 43.7926 60.8256C45.7059 57.9022 50.2285 54.9635 50.2285 54.9635Z" fill="white"/>
<path d="M150.437 71.8149C150.437 71.8149 156.303 72.9215 159.765 66.8003C162.607 61.776 158.113 56.2683 158.113 56.2683C158.113 56.2683 161.903 54.7767 160.228 47.3139C158.752 40.733 151.681 39.3267 151.681 39.3267C151.681 39.3267 150.783 35.3239 145.149 30.816C141.388 27.8062 133.439 28.384 133.439 28.384C133.439 28.384 132.878 24.3054 129.29 21.6189C125.701 18.9323 121.12 20.3877 121.12 20.3877C121.12 20.3877 122.182 14.6615 115.421 10.835C110.102 7.82428 104.831 10.8596 104.831 10.8596C104.831 10.8596 99.4331 4.23223 93.8137 5.49305C88.1943 6.75387 85.5871 11.6144 85.5871 11.6144C85.5871 11.6144 81.6271 8.22733 75.8046 9.53371C68.9773 11.0655 67.5944 19.2143 67.5944 19.2143C67.5944 19.2143 58.7697 17.9164 54.2364 23.0666C48.8551 29.18 52.3352 36.4622 52.3352 36.4622C52.3352 36.4622 47.0525 38.4314 45.5435 44.5419C44.1277 50.2753 50.2285 54.9635 50.2285 54.9635C50.2285 54.9635 45.7059 57.9022 43.7926 60.8255C41.8793 63.7489 39.3789 68.728 39.3789 68.728C39.3789 68.728 30.7787 67.1624 26.2645 73.6657C18.472 84.8915 27.8751 88.7675 27.8751 88.7675C27.8751 88.7675 27.8038 96.9255 33.0067 100.229C36.4066 102.388 45.6468 98.2481 45.6468 98.2481C45.6468 98.2481 50.1247 101.091 54.5082 102.246M150.437 71.8149C150.463 57.9849 137.923 55.0263 137.923 55.0263C137.923 55.0263 137.721 49.371 134.785 46.1105M150.437 71.8149C150.762 76.8469 150.004 79.5833 147.871 84.1484C145.565 89.0839 144.683 89.7308 142.658 91.66M137.661 95.0614C137.661 95.0614 140.633 93.5892 142.658 91.66M142.658 91.66C145.908 95.1886 151.418 97.1055 151.418 97.1055C151.418 97.1055 171.323 92.6395 180.154 112.036C182.502 117.192 175.531 120.27 175.531 120.27M175.531 120.27C175.531 120.27 175.069 119.162 173.938 118.561M175.531 120.27C175.531 120.27 173.323 125.326 167.358 126.949C161.394 128.573 143.392 120.284 143.392 120.284L138.337 124.696M138.337 124.696C138.337 124.696 127.663 118.326 123.454 117.632M138.337 124.696C138.337 124.696 146.948 130.745 148.363 137.055C149.779 143.364 149.572 147.829 146.187 148.588C145.372 148.771 143.726 148.713 143.726 148.713M143.726 148.713C143.726 148.713 143.183 147.026 142.628 146.037M143.726 148.713C143.726 148.713 140.872 151.379 138.036 152.198C129.712 154.605 116.145 144.64 116.145 144.64C116.145 144.64 112.176 146.599 103.502 145.339M103.502 145.339C102.048 142.957 101.198 142.449 98.8158 140.618M103.502 145.339C105.762 149.042 105.858 154.572 105.426 156.451C104.773 159.292 100.766 161.986 100.766 161.986C100.766 161.986 103.745 167.659 102.196 171.214C101.454 172.915 100.633 173.845 98.824 174.25C96.1835 174.843 94.9806 172.334 94.9806 172.334C94.9806 172.334 94.7413 176.022 92.3717 176.553C85.0988 178.185 76.8322 168.781 75.995 165.049M103.502 145.339C89.916 154.515 82.2387 154.527 82.2387 154.527M75.995 165.049C79.5024 161.982 82.2387 154.527 82.2387 154.527M75.995 165.049C72.3994 168.992 67.2608 169.86 67.2608 169.86C67.2608 169.86 64.8689 182.653 59.6117 184.26C57.8216 184.807 57.0629 184.629 55.2162 184.32M82.2387 154.527C82.2387 154.527 81.8125 152.628 80.8142 150.714M55.2162 184.32C55.2162 184.32 55.1233 182.638 54.939 181.817M55.2162 184.32C53.0289 186.9 48.0711 186.493 46.4216 186.008C41.4729 184.553 38.7824 181.151 36.8809 175.179C34.2658 166.967 41.8977 152.534 41.8977 152.534C41.8977 152.534 41.0805 150.793 40.5125 146.36C40.0974 143.12 42.0758 139.382 42.0758 139.382C42.0758 139.382 33.5036 136.673 34.5903 125.669C35.6769 114.666 45.2194 114.092 45.2194 114.092C45.2194 114.092 46.9796 110.291 48.6748 108.258C50.7639 105.752 51.9677 104.291 54.5082 102.246M54.5082 102.246C57.2163 101.638 61.1409 100.919 63.403 98.4684C66.7209 94.8736 68.4905 89.1322 68.4905 89.1322C68.4905 89.1322 72.7943 86.435 74.8214 83.4362C78.3986 78.1443 73.351 70.2269 73.351 70.2269M128.579 77.7168L129.842 83.3479M129.842 83.3479C129.842 83.3479 125.656 90.7278 121.085 91.2271C118.144 91.5483 116.132 90.977 113.794 89.1575M129.842 83.3479C129.842 83.3479 133.599 84.7532 135.933 84.1902C138.82 83.4939 140.575 81.9991 141.724 79.2567M12.3942 95.5189C11.6787 100.553 12.8085 104.27 16.0836 108.159C19.4096 112.108 23.095 112.785 27.9219 113.698M8.97952 111.677C11.5057 116.597 15.0069 120.158 20.8358 121.416" stroke="black" stroke-width="5" stroke-linecap="round" stroke-linejoin="round"/>
<ellipse cx="107.01" cy="70.7509" rx="4.02821" ry="3.90422" transform="rotate(-12.6459 107.01 70.7509)" fill="black"/>
<ellipse cx="129.578" cy="60.9398" rx="4.02821" ry="3.90422" transform="rotate(-12.6459 129.578 60.9398)" fill="black"/>
<ellipse cx="6.81793" cy="4.42264" rx="6.81793" ry="4.42264" transform="matrix(0.941656 -0.336577 0.336105 0.941825 121.315 75.6924)" fill="black"/>
</svg>
