<svg width="177" height="141" viewBox="0 0 177 141" fill="none" xmlns="http://www.w3.org/2000/svg">
<path d="M139.287 28.9677C139.287 28.9677 122.485 23.4433 89.2305 41.5082C89.1801 38.4206 86.8196 33.4128 81.7291 31.7981C77.8084 30.5546 72.4032 34.4085 72.4032 34.4085C72.4032 34.4085 70.1985 27.8265 62.3503 27.3873C57.4717 27.1143 51.807 32.9799 51.807 32.9799C51.807 32.9799 46.5115 28.4772 42.5527 28.3408C35.649 28.1028 32.0706 33.8063 32.0706 33.8063C32.0706 33.8063 22.9454 25.4463 14.8702 30.9987C8.17218 35.6041 15.9063 47.9365 15.9063 47.9365C15.9063 47.9365 11.2336 48.6431 8.5051 55.999C7.10063 59.7854 8.66247 65.6399 8.66247 65.6399C8.66247 65.6399 3.88475 67.6717 3.28223 73.4172C2.40824 81.7513 6.08053 85.8513 6.08053 85.8513C6.08053 85.8513 5.55043 91.8477 9.17779 97.209C13.3113 103.318 17.0656 103.446 17.0656 103.446C17.0656 103.446 11.0531 107.389 8.33902 115.627C7.38473 118.524 8.86095 121.249 11.3092 123.079C13.761 124.912 16.8324 124.06 16.8324 124.06C16.8324 124.06 22.8148 124.762 26.2864 125.419C27.8633 128.125 29.2684 129.95 31.8338 131.757C34.4455 133.597 38.3994 134.549 38.3994 134.549C38.3994 134.549 52.063 137.856 60.29 137.722C68.6608 137.585 75.0584 135.022 80.5086 131.53C85.9587 128.037 88.4212 123.774 91.4542 119.565C91.4542 119.565 100.549 122.199 107.635 118.103C113.217 114.877 118.786 110.925 122.087 107.657C123.609 111.666 127.64 114.31 127.64 114.31C127.64 114.31 121.662 119.608 122.352 123.851C122.907 127.262 124.744 129.337 127.908 130.756C130.013 131.7 134.32 131.849 137.971 130.592C137.971 130.592 146.366 133.039 150.59 131.962C158.065 130.055 160.127 125.381 164.431 119.004C167.25 114.828 168.834 110.929 169.472 105.938C170.306 99.4121 166.316 90.9882 166.316 90.9882C166.316 90.9882 168.103 80.561 168.378 73.8107C169.146 54.9525 159.727 44.0762 159.727 44.0762C159.727 44.0762 167.198 41.0207 165.347 31.6308C164.381 26.7303 160.726 16.997 153.142 16.8291C140.033 16.5388 139.287 28.9677 139.287 28.9677Z" fill="white"/>
<path d="M89.2305 41.5082C122.485 23.4433 139.287 28.9677 139.287 28.9677C139.287 28.9677 140.033 16.5388 153.142 16.8291C160.726 16.997 164.381 26.7303 165.347 31.6308C167.198 41.0207 159.727 44.0762 159.727 44.0762C159.727 44.0762 169.146 54.9525 168.378 73.8107C168.103 80.561 166.316 90.9882 166.316 90.9882C166.316 90.9882 170.306 99.4121 169.472 105.938C168.834 110.929 167.25 114.828 164.431 119.004C160.127 125.381 158.065 130.055 150.59 131.962C146.366 133.039 137.971 130.592 137.971 130.592M89.2305 41.5082C89.1801 38.4206 86.8196 33.4128 81.7291 31.7981C77.8085 30.5546 72.4032 34.4085 72.4032 34.4085C72.4032 34.4085 70.1985 27.8265 62.3503 27.3873C57.4717 27.1143 51.807 32.9799 51.807 32.9799C51.807 32.9799 46.5115 28.4772 42.5527 28.3408C35.649 28.1028 32.0706 33.8063 32.0706 33.8063C32.0706 33.8063 22.9454 25.4463 14.8702 30.9987C8.17217 35.6041 15.9063 47.9365 15.9063 47.9365C15.9063 47.9365 11.2336 48.6431 8.50509 55.999C7.10062 59.7854 8.66246 65.6399 8.66246 65.6399C8.66246 65.6399 3.88475 67.6717 3.28223 73.4172C2.40824 81.7513 6.08054 85.8513 6.08054 85.8513C6.08054 85.8513 5.55044 91.8477 9.17778 97.209C13.3113 103.318 17.0656 103.446 17.0656 103.446M89.2305 41.5082C88.2144 45.1805 87.3346 45.573 87.3346 45.573C87.3346 45.573 95.4324 50.1914 96.9275 55.438C98.6259 61.3981 96.3733 64.1451 96.3733 64.1451C96.3733 64.1451 102.204 71.1055 101.264 76.7971C99.9392 84.8234 92.6198 86.2665 92.6198 86.2665C92.6198 86.2665 93.3206 95.0359 90.2298 98.8483C87.0115 102.818 78.23 104.402 78.23 104.402C78.23 104.402 74.2018 113.574 67.2566 114.665C60.3113 115.757 52.7835 112.191 52.7835 112.191C52.7835 112.191 47.7131 115.032 44.1579 115.042C40.7948 115.052 35.6479 113.353 35.6479 113.353M17.0656 103.446C17.0656 103.446 11.0531 107.389 8.33901 115.627C7.38473 118.524 8.86094 121.249 11.3092 123.079C13.761 124.912 16.8324 124.06 16.8324 124.06M17.0656 103.446L21.1333 104.451C21.1333 104.451 23.6633 107.641 26.0283 109.603C29.1889 112.224 35.6479 113.353 35.6479 113.353M16.8324 124.06C17.3773 122.539 17.7395 121.461 18.9815 119.991M16.8324 124.06C16.8324 124.06 22.8148 124.762 26.2864 125.419M26.2864 125.419C27.0638 123.068 27.3147 120.549 28.2771 119.399C30.2019 117.098 33.024 115.476 35.6479 113.353M26.2864 125.419C27.8633 128.125 29.2684 129.95 31.8338 131.757C34.4455 133.597 38.3994 134.549 38.3994 134.549M38.3994 134.549C38.3994 134.549 36.9454 130.791 38.3058 128.815M38.3994 134.549C38.3994 134.549 52.0631 137.856 60.29 137.722C68.6607 137.585 75.0584 135.022 80.5086 131.53C85.9587 128.037 88.4212 123.774 91.4542 119.565C91.4542 119.565 100.549 122.199 107.635 118.103C113.217 114.877 118.786 110.925 122.087 107.657M122.087 107.657C122.087 107.657 120.683 99.1705 124.524 94.0655M122.087 107.657C123.609 111.666 127.64 114.31 127.64 114.31C127.64 114.31 121.662 119.608 122.352 123.851C122.907 127.262 124.744 129.337 127.908 130.756C130.013 131.7 134.32 131.849 137.971 130.592M137.971 130.592C137.971 130.592 137.576 129.716 137.525 126.565M173.546 22.0426C177.105 15.1143 166.591 3.12136 166.591 3.12136" stroke="black" stroke-width="5" stroke-linecap="round" stroke-linejoin="round"/>
<ellipse cx="4.49377" cy="4.34842" rx="4.49377" ry="4.34842" transform="matrix(-0.999867 0.0163214 0.0163214 0.999867 60.1846 76.9634)" fill="black"/>
<ellipse cx="4.49377" cy="4.34842" rx="4.49377" ry="4.34842" transform="matrix(-0.999867 0.0163214 0.0163214 0.999867 31.8506 70.7449)" fill="black"/>
<path d="M34.8675 84.9401C37.0192 84.9049 40.0663 85.4354 41.1543 86.1611C42.9261 87.3429 43.7975 89.0803 43.3769 90.4738C43.0519 91.5506 38.5619 94.0908 37.157 93.3486C35.3053 92.3704 31.4774 90.542 31.8119 87.7633C31.9971 86.2245 34.2347 84.9504 34.8675 84.9401Z" fill="black"/>
</svg>
