<svg width="180" height="144" viewBox="0 0 180 144" fill="none" xmlns="http://www.w3.org/2000/svg">
<path d="M36.6411 34.6067C36.6411 34.6067 52.9657 27.8007 87.5166 43.2425C87.3283 40.1602 89.295 34.985 94.2455 32.9819C98.0583 31.4391 103.745 34.864 103.745 34.864C103.745 34.864 105.435 28.1312 113.226 27.0871C118.069 26.438 124.169 31.8484 124.169 31.8484C124.169 31.8484 129.101 26.9501 133.038 26.5082C139.902 25.7375 143.911 31.1476 143.911 31.1476C143.911 31.1476 152.363 22.1076 160.843 27.0195C167.877 31.0936 161.118 43.9868 161.118 43.9868C161.118 43.9868 165.832 44.3302 169.12 51.4534C170.813 55.1199 169.708 61.0776 169.708 61.0776C169.708 61.0776 174.629 62.7343 175.673 68.416C177.188 76.6577 173.844 81.0291 173.844 81.0291C173.844 81.0291 174.836 86.9666 171.633 92.5921C167.984 99.0026 164.251 99.42 164.251 99.42C164.251 99.42 170.55 102.887 173.893 110.89C175.068 113.705 173.807 116.536 171.507 118.55C169.204 120.566 166.076 119.955 166.076 119.955C166.076 119.955 160.166 121.116 156.755 122.039C155.392 124.86 154.132 126.788 151.714 128.787C149.252 130.823 145.384 132.078 145.384 132.078C145.384 132.078 132.017 136.431 123.804 136.932C115.448 137.443 108.871 135.382 103.167 132.321C97.4636 129.26 94.6792 125.2 91.33 121.238C91.33 121.238 82.4656 124.566 75.0842 121.03C69.2706 118.245 63.4126 114.735 59.8683 111.732C58.6612 115.846 54.8465 118.794 54.8465 118.794C54.8465 118.794 61.2161 123.614 60.8559 127.898C60.5663 131.342 58.8948 133.553 55.8494 135.212C53.8242 136.315 49.5417 136.797 45.8046 135.825C45.8046 135.825 37.6231 138.914 33.3289 138.166C25.7291 136.842 23.3121 132.341 18.5278 126.316C15.3946 122.37 13.5142 118.606 12.4927 113.678C11.1573 107.237 14.4842 98.53 14.4842 98.53C14.4842 98.53 11.8973 88.272 11.1016 81.5631C8.87867 62.8206 17.4297 51.2491 17.4297 51.2491L24.8095 43.2421L36.6411 34.6067Z" fill="white"/>
<path d="M87.5166 43.2425C52.9657 27.8007 36.6411 34.6067 36.6411 34.6067L24.8095 43.2421L17.4297 51.2491C17.4297 51.2491 8.87867 62.8206 11.1016 81.5631C11.8973 88.272 14.4842 98.53 14.4842 98.53C14.4842 98.53 11.1573 107.237 12.4927 113.678C13.5142 118.606 15.3946 122.37 18.5278 126.316C23.3121 132.341 25.7291 136.842 33.3289 138.166C37.6231 138.914 45.8046 135.825 45.8046 135.825M87.5166 43.2425C87.3283 40.1602 89.295 34.985 94.2455 32.9819C98.0583 31.4391 103.745 34.864 103.745 34.864C103.745 34.864 105.435 28.1312 113.226 27.0871C118.069 26.438 124.169 31.8484 124.169 31.8484C124.169 31.8484 129.101 26.9501 133.038 26.5082C139.902 25.7375 143.911 31.1476 143.911 31.1476C143.911 31.1476 152.363 22.1076 160.843 27.0195C167.877 31.0936 161.118 43.9868 161.118 43.9868C161.118 43.9868 165.832 44.3302 169.12 51.4534C170.813 55.1199 169.708 61.0776 169.708 61.0776C169.708 61.0776 174.629 62.7343 175.673 68.416C177.188 76.6577 173.844 81.0291 173.844 81.0291C173.844 81.0291 174.836 86.9666 171.633 92.5921C167.984 99.0026 164.251 99.42 164.251 99.42M87.5166 43.2425C88.8135 46.8253 89.721 47.1487 89.721 47.1487C89.721 47.1487 82.0042 52.3789 80.9189 57.7253C79.686 63.7987 82.1441 66.3635 82.1441 66.3635C82.1441 66.3635 76.8689 73.7535 78.2454 79.3556C80.1864 87.2555 87.5954 88.1288 87.5954 88.1288C87.5954 88.1288 87.5742 96.9262 90.9502 100.488C94.4656 104.198 103.343 105.098 103.343 105.098C103.343 105.098 108.068 113.931 115.077 114.483C122.086 115.035 129.315 110.899 129.315 110.899C129.315 110.899 134.59 113.339 138.136 113.075C141.489 112.825 146.49 110.733 146.49 110.733M164.251 99.42C164.251 99.42 170.55 102.887 173.893 110.89C175.068 113.705 173.807 116.536 171.507 118.55C169.204 120.566 166.076 119.955 166.076 119.955M164.251 99.42L160.273 100.736C160.273 100.736 157.997 104.112 155.791 106.251C152.842 109.108 146.49 110.733 146.49 110.733M166.076 119.955C165.415 118.48 164.971 117.434 163.619 116.064M166.076 119.955C166.076 119.955 160.166 121.116 156.755 122.039M156.755 122.039C155.799 119.755 155.354 117.263 154.305 116.191C152.209 114.046 149.27 112.647 146.49 110.733M156.755 122.039C155.392 124.86 154.132 126.788 151.714 128.787C149.252 130.823 145.384 132.078 145.384 132.078M145.384 132.078C145.384 132.078 146.543 128.219 145.034 126.354M145.384 132.078C145.384 132.078 132.017 136.431 123.804 136.932C115.448 137.443 108.871 135.382 103.167 132.321C97.4636 129.26 94.6792 125.2 91.33 121.238C91.33 121.238 82.4656 124.566 75.0842 121.03C69.2706 118.245 63.4126 114.735 59.8683 111.732M59.8683 111.732C59.8683 111.732 60.6131 103.162 56.3888 98.3694M59.8683 111.732C58.6612 115.846 54.8465 118.794 54.8465 118.794C54.8465 118.794 61.2161 123.614 60.8559 127.898C60.5663 131.342 58.8948 133.553 55.8494 135.212C53.8242 136.315 49.5417 136.797 45.8046 135.825M45.8046 135.825C45.8046 135.825 46.1298 134.922 45.9377 131.776" stroke="black" stroke-width="5" stroke-linecap="round" stroke-linejoin="round"/>
<ellipse cx="123.965" cy="80.414" rx="4.49377" ry="4.34842" transform="rotate(-3.49572 123.965 80.414)" fill="black"/>
<ellipse cx="151.734" cy="72.0253" rx="4.49377" ry="4.34842" transform="rotate(-3.49572 151.734 72.0253)" fill="black"/>
<path d="M145.072 82.3449C142.924 82.476 139.927 83.2404 138.899 84.0479C137.223 85.363 136.489 87.1626 137.016 88.5194C137.423 89.5679 142.096 91.7537 143.439 90.9051C145.21 89.7868 148.885 87.6681 148.337 84.9235C148.033 83.4037 145.704 82.3063 145.072 82.3449Z" fill="black"/>
</svg>
