<svg width="180" height="144" viewBox="0 0 180 144" fill="none" xmlns="http://www.w3.org/2000/svg">
<path d="M87.5165 42.3319C52.9656 26.8901 36.6409 33.696 36.6409 33.696L24.8093 42.3315L17.4296 50.3384C17.4296 50.3384 8.87855 61.91 11.1015 80.6525C11.8972 87.3614 14.4841 97.6194 14.4841 97.6194C14.4841 97.6194 11.1572 106.326 12.4926 112.768C13.5141 117.695 15.3945 121.46 18.5277 125.406C23.312 131.431 25.729 135.932 33.3287 137.255C37.6229 138.003 45.8045 134.915 45.8045 134.915C49.5416 135.886 53.8241 135.404 55.8493 134.301C58.8947 132.642 60.5662 130.431 60.8558 126.987C61.2159 122.704 54.8463 117.883 54.8463 117.883C54.8463 117.883 58.6611 114.935 59.8682 110.821C63.4125 113.824 69.2705 117.335 75.0841 120.12C82.4655 123.656 91.3299 120.327 91.3299 120.327C94.6791 124.289 97.4635 128.35 103.167 131.411C108.871 134.472 115.447 136.532 123.804 136.022C132.016 135.52 145.384 131.168 145.384 131.168C145.384 131.168 149.252 129.913 151.714 127.877C154.132 125.877 155.392 123.949 156.755 121.129C160.166 120.205 166.076 119.044 166.076 119.044C166.076 119.044 169.204 119.655 171.507 117.639C173.806 115.625 175.068 112.794 173.892 109.98C170.55 101.976 164.251 98.5094 164.251 98.5094C164.251 98.5094 151.359 74.6317 138.107 64.2663C122.223 51.8432 87.5165 42.3319 87.5165 42.3319Z" fill="white"/>
<path d="M166.076 119.044C166.076 119.044 169.204 119.655 171.507 117.639C173.806 115.625 175.068 112.794 173.892 109.98C170.55 101.976 164.251 98.5094 164.251 98.5094C164.251 98.5094 151.359 74.6317 138.107 64.2663C122.223 51.8432 87.5165 42.3319 87.5165 42.3319C52.9656 26.8901 36.6409 33.696 36.6409 33.696L24.8093 42.3315L17.4296 50.3384C17.4296 50.3384 8.87855 61.91 11.1015 80.6525C11.8972 87.3614 14.4841 97.6194 14.4841 97.6194C14.4841 97.6194 11.1572 106.326 12.4926 112.768C13.5141 117.695 15.3945 121.46 18.5277 125.406C23.312 131.431 25.729 135.932 33.3287 137.255C37.6229 138.003 45.8045 134.915 45.8045 134.915M166.076 119.044C165.415 117.569 164.971 116.523 163.619 115.153M166.076 119.044C166.076 119.044 160.166 120.205 156.755 121.129M156.755 121.129C155.798 118.845 155.354 116.353 154.305 115.28C152.209 113.135 149.27 111.737 146.49 109.823M156.755 121.129C155.392 123.949 154.132 125.877 151.714 127.877C149.252 129.913 145.384 131.168 145.384 131.168M145.384 131.168C145.384 131.168 146.543 127.309 145.034 125.444M145.384 131.168C145.384 131.168 132.016 135.52 123.804 136.022C115.447 136.532 108.871 134.472 103.167 131.411C97.4635 128.35 94.6791 124.289 91.3299 120.327C91.3299 120.327 82.4655 123.656 75.0841 120.12C69.2705 117.335 63.4125 113.824 59.8682 110.821M59.8682 110.821C59.8682 110.821 60.613 102.252 56.3887 97.4588M59.8682 110.821C58.6611 114.935 54.8463 117.883 54.8463 117.883C54.8463 117.883 61.2159 122.704 60.8558 126.987C60.5662 130.431 58.8947 132.642 55.8493 134.301C53.8241 135.405 49.5416 135.886 45.8045 134.915M45.8045 134.915C45.8045 134.915 46.1297 134.011 45.9376 130.866" stroke="black" stroke-width="5" stroke-linecap="round" stroke-linejoin="round"/>
</svg>
