<svg width="104" height="95" viewBox="0 0 104 95" fill="none" xmlns="http://www.w3.org/2000/svg">
<path d="M28.6763 12.4498C28.6763 12.4498 22.5445 8.16985 17.2581 12.4498C11.9718 16.7297 14.6521 24.7345 14.6521 24.7345C14.6521 24.7345 6.93528 29.9647 5.84998 35.3111C4.6171 41.3846 7.07518 43.9494 7.07518 43.9494C7.07518 43.9494 1.80002 51.3394 3.17646 56.9414C5.11749 64.8414 12.5265 65.7147 12.5265 65.7147C12.5265 65.7147 12.5053 74.5121 15.8813 78.0742C19.3967 81.7834 28.2743 82.6839 28.2743 82.6839C28.2743 82.6839 32.999 91.5173 40.0079 92.0692C47.0168 92.621 54.2466 88.4844 54.2466 88.4844C54.2466 88.4844 65.217 90.6646 71.6573 88.4844C77.9216 86.3638 85.2042 78.3222 85.2042 78.3222L89.1821 77.0059C89.1821 77.0059 92.9153 76.5884 96.5645 70.178C99.7668 64.5525 98.775 58.6149 98.775 58.6149C98.775 58.6149 102.12 54.2435 100.604 46.0018C99.5597 40.3201 94.6393 38.6634 94.6393 38.6634C94.6393 38.6634 95.7442 32.7058 94.0514 29.0392C90.7628 21.9161 86.0494 21.5726 86.0494 21.5726C86.0494 21.5726 92.8077 8.67948 85.7739 4.60532C77.2938 -0.306532 68.8418 8.73342 68.8418 8.73342C68.8418 8.73342 64.8335 3.32338 57.9688 4.09403C54.0323 4.53595 49.1005 9.43427 49.1005 9.43427C49.1005 9.43427 42.9996 4.02384 38.1567 4.67293C30.3659 5.71709 28.6763 12.4498 28.6763 12.4498Z" fill="white" stroke="black" stroke-width="5" stroke-linecap="round" stroke-linejoin="round"/>
<ellipse cx="48.8965" cy="57.9999" rx="4.49377" ry="4.34842" transform="rotate(-3.49572 48.8965 57.9999)" fill="black"/>
<ellipse cx="76.6651" cy="49.6112" rx="4.49377" ry="4.34842" transform="rotate(-3.49572 76.6651 49.6112)" fill="black"/>
<path d="M70.0035 59.9308C67.8555 60.062 64.8585 60.8263 63.8298 61.6339C62.1547 62.949 61.4201 64.7485 61.9471 66.1054C62.3543 67.1539 67.0271 69.3396 68.3704 68.4911C70.141 67.3727 73.8163 65.254 73.2681 62.5095C72.9646 60.9896 70.6352 59.8922 70.0035 59.9308Z" fill="black"/>
</svg>
