<svg width="19" height="20" viewBox="0 0 19 20" fill="none" xmlns="http://www.w3.org/2000/svg">
<path d="M16.432 13.9269C16.1055 12.9955 15.3444 12.5234 14.6096 12.067C13.9702 11.6696 13.3664 11.294 12.9716 10.6197C11.8832 8.75201 11.2853 7.625 9.50223 7.625C7.71913 7.625 7.11944 8.75238 6.02842 10.6194C5.63321 11.2951 5.02647 11.6714 4.38633 12.0696C3.65157 12.5264 2.89194 12.9973 2.56426 13.9269C2.43676 14.2621 2.37259 14.6181 2.375 14.9767C2.375 16.4886 3.5792 17.7188 4.91329 17.7188C6.24737 17.7188 8.00487 17.046 9.50594 17.046C11.007 17.046 12.74 17.7188 14.0908 17.7188C15.4416 17.7188 16.625 16.4886 16.625 14.9767C16.6261 14.6179 16.5606 14.2619 16.432 13.9269Z" fill="#F0945B"/>
<path d="M2.67188 11.1875C3.81959 11.1875 4.75 9.99126 4.75 8.51562C4.75 7.03999 3.81959 5.84375 2.67188 5.84375C1.52416 5.84375 0.59375 7.03999 0.59375 8.51562C0.59375 9.99126 1.52416 11.1875 2.67188 11.1875Z" fill="#F0945B"/>
<path d="M6.82812 7.625C7.97584 7.625 8.90625 6.42876 8.90625 4.95312C8.90625 3.47749 7.97584 2.28125 6.82812 2.28125C5.68041 2.28125 4.75 3.47749 4.75 4.95312C4.75 6.42876 5.68041 7.625 6.82812 7.625Z" fill="#F0945B"/>
<path d="M12.1719 7.625C13.3196 7.625 14.25 6.42876 14.25 4.95312C14.25 3.47749 13.3196 2.28125 12.1719 2.28125C11.0242 2.28125 10.0938 3.47749 10.0938 4.95312C10.0938 6.42876 11.0242 7.625 12.1719 7.625Z" fill="#F0945B"/>
<path d="M16.3281 11.1875C17.4758 11.1875 18.4062 9.99126 18.4062 8.51562C18.4062 7.03999 17.4758 5.84375 16.3281 5.84375C15.1804 5.84375 14.25 7.03999 14.25 8.51562C14.25 9.99126 15.1804 11.1875 16.3281 11.1875Z" fill="#F0945B"/>
</svg>
