<svg width="18" height="18" viewBox="0 0 18 18" fill="none" xmlns="http://www.w3.org/2000/svg">
<path d="M9 2C12.8661 2 16 5.1339 16 9C16 12.8661 12.8661 16 9 16C5.1339 16 2 12.8661 2 9C2 5.1339 5.1339 2 9 2ZM9 4.8C8.81435 4.8 8.6363 4.87375 8.50503 5.00503C8.37375 5.1363 8.3 5.31435 8.3 5.5V9C8.30004 9.18564 8.37382 9.36365 8.5051 9.4949L10.6051 11.5949C10.7371 11.7224 10.9139 11.793 11.0975 11.7914C11.281 11.7898 11.4566 11.7162 11.5864 11.5864C11.7162 11.4566 11.7898 11.281 11.7914 11.0975C11.793 10.9139 11.7224 10.7371 11.5949 10.6051L9.7 8.7102V5.5C9.7 5.31435 9.62625 5.1363 9.49497 5.00503C9.3637 4.87375 9.18565 4.8 9 4.8Z" fill="#F0945B"/>
</svg>
